#VRML V2.0 utf8
# 3D model generated by easyeda2kicad.py (https://github.com/uPesy/easyeda2kicad.py)

Shape{
    appearance Appearance {
        material  Material 	{
            diffuseColor 0.1843137254901961 0.5647058823529412 1.0
            specularColor 0.09411764705882353 0.2823529411764706 0.5019607843137255
            ambientIntensity 0.2
            transparency 0
            shininess 0.5
        }
    }
    geometry IndexedFaceSet {
        ccw TRUE
        solid FALSE
        coord DEF co Coordinate {
            point [
                -1.5025 0.5748 0.2362, -1.4741 0.3553 0.2362, -1.3579 0.3887 0.2362, -1.4586 0.1186 0.2362, -1.3579 -0.3887 0.2362, -1.4586 -0.1186 0.2362, -1.4741 -0.3553 0.2362, -0.5804 0.3887 0.2362, -0.5074 0.5748 0.2362, -1.0149 0.5748 0.2362, -0.5074 -0.5748 0.2362, -0.5804 -0.3887 0.2362, -1.0149 -0.5748 0.2362, -1.5025 -0.5748 0.2362, 0.0 -0.5748 0.2362, 0.5074 -0.5748 0.2362, 1.4741 -0.3553 0.2362, 1.0149 -0.5748 0.2362, 1.5025 -0.5748 0.2362, 1.5025 0.5748 0.2362, 1.0149 0.5748 0.2362, 1.4741 0.3553 0.2362, 0.5074 0.5748 0.2362, -0.0 0.5748 0.2362, 1.4586 0.1186 0.2362, 1.4586 -0.1186 0.2362, 0.0 -0.5906 0.2205, -0.5074 -0.5906 0.2205, -1.4587 -0.5906 0.0486, -1.0149 -0.5906 0.2205, -1.4746 -0.5906 0.1443, -1.4994 -0.5906 0.2205, -1.4587 -0.5906 -0.0486, 1.4587 -0.5906 -0.0486, 1.4587 -0.5906 0.0486, -0.5074 -0.5906 -0.2205, -1.0149 -0.5906 -0.2205, -1.4746 -0.5906 -0.1443, -1.4994 -0.5906 -0.2205, -0.0 -0.5906 -0.2205, 0.5074 -0.5906 -0.2205, 1.0149 -0.5906 -0.2205, 1.4746 -0.5906 -0.1443, 1.4994 -0.5906 -0.2205, 0.5074 -0.5906 0.2205, 1.0149 -0.5906 0.2205, 1.4746 -0.5906 0.1443, 1.4994 -0.5906 0.2205, 1.5051 -0.5906 -0.242, 1.506 -0.5906 -0.242, 1.5051 -0.5906 -0.234, 1.506 -0.5906 -0.2362, 1.506 -0.5906 0.2362, 1.506 -0.5906 0.242, 1.5051 -0.5906 0.234, 1.5051 -0.5906 0.242, -1.506 -0.5906 -0.2362, -1.506 -0.5906 -0.242, -1.5051 -0.5906 -0.234, -1.5051 -0.5906 -0.242, 1.506 0.5906 -0.2362, 1.506 0.5906 -0.242, 1.5051 0.5906 -0.234, 1.5051 0.5906 -0.242, -0.0 0.5906 0.2205, 0.5074 0.5906 0.2205, 1.4587 0.5906 0.0486, 1.0149 0.5906 0.2205, 1.4746 0.5906 0.1443, 1.4994 0.5906 0.2205, -1.4587 0.5906 0.0486, -1.4587 0.5906 -0.0486, 1.4587 0.5906 -0.0486, -0.5074 0.5906 0.2205, -1.0149 0.5906 0.2205, -1.4746 0.5906 0.1443, -1.4994 0.5906 0.2205, 0.0 0.5906 -0.2205, -0.5074 0.5906 -0.2205, -1.0149 0.5906 -0.2205, -1.4746 0.5906 -0.1443, -1.4994 0.5906 -0.2205, 0.5074 0.5906 -0.2205, 1.0149 0.5906 -0.2205, 1.4746 0.5906 -0.1443, 1.4994 0.5906 -0.2205, -1.5051 0.5906 -0.242, -1.506 0.5906 -0.242, -1.5051 0.5906 -0.234, -1.506 0.5906 -0.2362, 1.5051 0.5906 0.242, 1.506 0.5906 0.242, 1.5051 0.5906 0.234, 1.506 0.5906 0.2362, 0.0485 -0.0353 -0.2362, -0.0 -0.5748 -0.2362, 0.0461 -0.035 -0.2362, -0.0151 -0.5748 -0.2362, 0.0536 -0.035 -0.2362, 1.4586 -0.035 -0.2362, 0.0501 -0.0353 -0.2362, 1.4586 -0.1186 -0.2362, 1.4741 -0.3553 -0.2362, 1.5025 -0.5748 -0.2362, 1.0149 -0.5748 -0.2362, 0.5074 -0.5748 -0.2362, 0.1052 0.0244 -0.2362, 0.1052 -0.0281 -0.2362, 0.0828 -0.0281 -0.2362, -0.0079 0.0244 -0.2362, -0.0079 0.018 -0.2362, -0.0151 -0.035 -0.2362, 0.5074 0.5748 -0.2362, 0.0223 0.0244 -0.2362, 0.0 0.5748 -0.2362, -0.0151 0.5748 -0.2362, 0.0339 0.0149 -0.2362, 0.0223 -0.0346 -0.2362, 0.0339 -0.0251 -0.2362, 0.0405 0.0177 -0.2362, 0.0349 -0.0257 -0.2362, 0.0477 0.0187 -0.2362, 0.0535 0.018 -0.2362, -0.0065 -0.008 -0.2362, -0.0065 -0.0015 -0.2362, 0.0144 -0.0015 -0.2362, 0.0144 0.018 -0.2362, 0.0339 -0.0316 -0.2362, 1.0149 0.5748 -0.2362, 1.5025 0.5748 -0.2362, 0.1131 -0.0346 -0.2362, 1.4741 0.3553 -0.2362, 1.4586 0.1186 -0.2362, 0.0579 0.0164 -0.2362, 0.062 0.0137 -0.2362, 0.0656 0.0098 -0.2362, 0.0699 -0.0057 -0.2362, 0.0693 -0.0121 -0.2362, 0.0677 -0.0172 -0.2362, 0.0545 -0.0282 -0.2362, 0.049 -0.0289 -0.2362, 0.0588 -0.0267 -0.2362, 0.0625 -0.0242 -0.2362, 0.0652 -0.0213 -0.2362, 0.0412 -0.028 -0.2362, 0.1131 0.0244 -0.2362, 0.0723 -0.0249 -0.2362, 0.0679 -0.0296 -0.2362, 0.0828 -0.0346 -0.2362, 0.0631 -0.0326 -0.2362, 0.068 0.0052 -0.2362, 0.0696 -0.0011 -0.2362, 0.0144 -0.008 -0.2362, 0.0144 -0.0281 -0.2362, -0.0093 -0.0281 -0.2362, -0.0093 -0.0346 -0.2362, 0.0769 0.0022 -0.2362, 0.0747 0.0089 -0.2362, 0.0712 0.0144 -0.2362, 0.0659 0.0195 -0.2362, 0.0603 0.0228 -0.2362, 0.0574 -0.0346 -0.2362, 0.0537 0.0247 -0.2362, 0.0478 0.0252 -0.2362, 0.0407 0.0247 -0.2362, 0.0339 0.0228 -0.2362, 0.0754 -0.0193 -0.2362, 0.0772 -0.013 -0.2362, 0.0778 -0.0062 -0.2362, -0.095 0.0244 -0.2362, -0.5074 0.5748 -0.2362, -0.103 0.0244 -0.2362, -0.0814 -0.0346 -0.2362, -0.0727 -0.0346 -0.2362, -1.5025 0.5748 -0.2362, -1.0149 0.5748 -0.2362, -1.4741 0.3553 -0.2362, -1.4586 0.1186 -0.2362, -1.4586 -0.035 -0.2362, -0.126 -0.0346 -0.2362, -0.1174 -0.0346 -0.2362, -0.1114 -0.0181 -0.2362, -0.087 -0.0181 -0.2362, -0.0209 0.0244 -0.2362, -0.0375 0.0244 -0.2362, -0.0595 0.0167 -0.2362, -0.0636 0.0121 -0.2362, -0.0664 0.007 -0.2362, -0.0655 -0.0184 -0.2362, -0.0621 -0.0237 -0.2362, -0.0572 -0.0284 -0.2362, -0.051 -0.032 -0.2362, -0.0461 0.0235 -0.2362, -0.053 0.0211 -0.2362, -0.0594 0.0168 -0.2362, -0.0442 -0.034 -0.2362, -0.0369 -0.0346 -0.2362, -0.0209 -0.0346 -0.2362, -0.068 0.0012 -0.2362, -0.0684 -0.0043 -0.2362, -0.0676 -0.0123 -0.2362, -1.4586 -0.1186 -0.2362, -1.4741 -0.3553 -0.2362, -1.0149 -0.5748 -0.2362, -1.5025 -0.5748 -0.2362, 0.0402 -0.0341 -0.2362, -0.5074 -0.5748 -0.2362, -0.5074 -0.5748 -0.2362
            ]
        }
        coordIndex [
            0,1,2,-1,2,1,3,-1,2,3,4,-1,4,3,5,-1,4,5,6,-1,7,8,2,-1,2,8,9,-1,2,9,0,-1,10,11,12,-1,12,11,4,-1,12,4,13,-1,13,4,6,-1,14,15,16,-1,16,15,17,-1,16,17,18,-1,19,20,21,-1,21,20,22,-1,22,23,21,-1,21,23,8,-1,21,8,24,-1,24,8,7,-1,24,7,25,-1,25,7,11,-1,25,11,16,-1,16,11,10,-1,16,10,14,-1,26,27,28,-1,28,27,29,-1,28,29,30,-1,30,29,31,-1,32,33,28,-1,28,33,34,-1,35,32,36,-1,36,32,37,-1,36,37,38,-1,35,39,32,-1,32,39,40,-1,32,40,33,-1,33,40,41,-1,33,41,42,-1,42,41,43,-1,26,28,44,-1,44,28,34,-1,44,34,45,-1,45,34,46,-1,45,46,47,-1,48,49,50,-1,50,49,51,-1,52,53,54,-1,54,53,55,-1,56,57,58,-1,58,57,59,-1,60,61,62,-1,62,61,63,-1,64,65,66,-1,66,65,67,-1,66,67,68,-1,68,67,69,-1,70,66,71,-1,71,66,72,-1,64,66,73,-1,73,66,70,-1,73,70,74,-1,74,70,75,-1,74,75,76,-1,77,78,71,-1,71,78,79,-1,71,79,80,-1,80,79,81,-1,77,71,82,-1,82,71,72,-1,82,72,83,-1,83,72,84,-1,83,84,85,-1,86,87,88,-1,88,87,89,-1,90,91,92,-1,92,91,93,-1,94,95,96,-1,96,95,97,-1,98,99,100,-1,100,99,101,-1,102,103,104,-1,104,105,102,-1,102,105,95,-1,102,95,101,-1,101,95,94,-1,101,94,100,-1,106,107,108,-1,109,110,111,-1,112,113,114,-1,114,113,109,-1,114,109,115,-1,116,117,113,-1,118,119,120,-1,120,119,121,-1,120,121,122,-1,123,111,124,-1,124,111,110,-1,124,110,125,-1,125,110,126,-1,127,117,118,-1,118,117,116,-1,118,116,119,-1,128,129,130,-1,130,129,131,-1,130,131,132,-1,122,133,120,-1,120,133,134,-1,120,134,135,-1,136,137,120,-1,120,137,138,-1,139,140,141,-1,141,140,142,-1,138,143,120,-1,120,143,142,-1,120,142,144,-1,144,142,140,-1,128,130,112,-1,112,130,145,-1,112,145,106,-1,146,108,147,-1,147,108,148,-1,147,148,149,-1,135,150,120,-1,120,150,151,-1,120,151,136,-1,152,153,123,-1,123,153,154,-1,123,154,111,-1,111,154,155,-1,111,155,117,-1,156,157,106,-1,157,158,106,-1,106,158,159,-1,106,159,160,-1,132,99,130,-1,130,99,98,-1,130,98,148,-1,148,98,161,-1,148,161,149,-1,160,162,106,-1,106,162,163,-1,106,163,112,-1,112,163,164,-1,112,164,113,-1,113,164,165,-1,113,165,116,-1,146,166,108,-1,108,166,167,-1,108,167,106,-1,106,167,168,-1,106,168,156,-1,115,169,170,-1,170,169,171,-1,172,173,111,-1,174,175,176,-1,176,175,170,-1,176,170,177,-1,177,170,171,-1,177,171,178,-1,179,180,111,-1,111,180,172,-1,172,180,181,-1,172,181,182,-1,109,111,115,-1,115,111,183,-1,115,183,184,-1,185,186,169,-1,169,186,187,-1,188,189,173,-1,173,189,190,-1,173,190,191,-1,184,192,115,-1,115,192,193,-1,115,193,169,-1,169,193,194,-1,169,194,185,-1,191,195,173,-1,173,195,196,-1,173,196,111,-1,111,196,197,-1,111,197,183,-1,187,198,169,-1,169,198,199,-1,169,199,173,-1,173,199,200,-1,173,200,188,-1,171,179,178,-1,178,179,111,-1,178,111,201,-1,201,111,202,-1,203,204,202,-1,127,205,117,-1,117,205,96,-1,117,96,111,-1,111,96,97,-1,111,97,202,-1,202,97,206,-1,202,206,203,-1,
        ]
    }
}
Shape{
    appearance Appearance {
        material  Material 	{
            diffuseColor 0.8549019607843137 0.8549019607843137 0.8549019607843137
            specularColor 0.42745098039215684 0.42745098039215684 0.42745098039215684
            ambientIntensity 0.2
            transparency 0
            shininess 0.5
        }
    }
    geometry IndexedFaceSet {
        ccw TRUE
        solid FALSE
        coord DEF co Coordinate {
            point [
                -1.4741 -0.3553 -0.2362, -1.4741 -0.3553 -0.2441, -1.4586 -0.1186 -0.2441, -1.5051 0.5906 -0.242, -1.5051 0.5906 -0.234, -1.5049 0.5895 -0.2425, -1.5042 0.5855 -0.2321, -1.5043 0.5862 -0.2437, -1.5038 0.5827 -0.2341, -1.5038 0.5827 -0.2441, -1.5032 0.5789 -0.2357, -1.5025 0.5748 -0.2362, -1.4741 0.3553 -0.2441, -1.5038 -0.5827 -0.2441, -1.5025 -0.5748 -0.2362, -1.5032 -0.5789 -0.2357, -1.5044 -0.5868 -0.2436, -1.5051 -0.5906 -0.234, -1.5051 -0.5906 -0.242, -1.5042 -0.5855 -0.2321, -1.5038 -0.5827 -0.2341, -1.4741 0.3553 -0.2362, -1.4586 0.1186 -0.2362, -1.4586 0.1186 -0.2441, -1.4586 -0.035 -0.2362, -1.4586 -0.1186 -0.2362, -1.4586 -0.1186 -0.2362
            ]
        }
        coordIndex [
            0,1,2,-1,3,4,5,-1,5,4,6,-1,5,6,7,-1,7,6,8,-1,7,8,9,-1,8,10,9,-1,9,10,11,-1,9,11,12,-1,1,0,13,-1,0,14,13,-1,13,14,15,-1,13,15,16,-1,17,18,19,-1,19,18,16,-1,19,16,20,-1,20,16,15,-1,11,21,12,-1,12,21,22,-1,12,22,23,-1,23,22,24,-1,23,24,2,-1,2,24,25,-1,2,25,0,-1,
        ]
    }
}
Shape{
    appearance Appearance {
        material  Material 	{
            diffuseColor 0.4392156862745098 0.4392156862745098 0.4392156862745098
            specularColor 0.2196078431372549 0.2196078431372549 0.2196078431372549
            ambientIntensity 0.2
            transparency 0
            shininess 0.5
        }
    }
    geometry IndexedFaceSet {
        ccw TRUE
        solid FALSE
        coord DEF co Coordinate {
            point [
                -0.5804 -0.3887 0.2362, -0.5804 0.3887 0.2362, -1.3579 -0.3887 0.2362, -1.3579 0.3887 0.2362, -1.3579 0.3887 0.2362
            ]
        }
        coordIndex [
            0,1,2,-1,2,1,3,-1,
        ]
    }
}
Shape{
    appearance Appearance {
        material  Material 	{
            diffuseColor 0.8549019607843137 0.8549019607843137 0.8549019607843137
            specularColor 0.42745098039215684 0.42745098039215684 0.42745098039215684
            ambientIntensity 0.2
            transparency 0
            shininess 0.5
        }
    }
    geometry IndexedFaceSet {
        ccw TRUE
        solid FALSE
        coord DEF co Coordinate {
            point [
                -1.4746 -0.5984 0.1443, -1.5026 -0.5984 0.2283, -1.7559 -0.5984 0.2283, -1.5026 -0.5984 -0.2283, -1.4746 -0.5984 -0.1443, -1.7559 -0.5984 -0.2283, -1.4587 -0.5984 -0.0486, -1.4587 -0.5984 0.0486, -1.5051 -0.5906 0.242, -1.5051 -0.5906 0.234, -1.5042 -0.5855 0.2321, -1.5044 -0.5868 0.2436, -1.5038 -0.5827 0.2341, -1.5038 -0.5827 0.2441, -1.5032 -0.5789 0.2357, -1.5025 -0.5748 0.2362, -1.4741 -0.3553 0.2441, -1.4741 0.3553 0.2362, -1.5025 0.5748 0.2362, -1.5038 0.5827 0.2441, -1.5032 0.5789 0.2357, -1.5043 0.5862 0.2437, -1.5038 0.5827 0.2341, -1.5049 0.5895 0.2425, -1.5042 0.5855 0.2321, -1.5051 0.5906 0.242, -1.5051 0.5906 0.234, -1.4741 -0.3553 0.2362, -1.4586 -0.1186 0.2362, -1.4586 -0.1186 0.2441, -1.4586 0.1186 0.2362, -1.4586 0.1186 0.2441, -1.4741 0.3553 0.2441, -1.7559 0.5827 0.2441, -1.7559 -0.5827 0.2441, -1.7559 0.5827 -0.2441, -1.7559 0.5862 -0.2436, -1.5038 0.5827 -0.2441, -1.5043 0.5862 -0.2437, -1.5049 0.5895 -0.2425, -1.7559 0.5868 -0.2436, -1.7559 0.5895 -0.2424, -1.5051 0.5906 -0.242, -1.506 0.5906 -0.242, -1.506 0.5925 -0.2407, -1.7559 0.5906 -0.242, -1.7559 0.5924 -0.2406, -1.7559 0.5938 -0.2395, -1.506 0.595 -0.2382, -1.7559 0.5949 -0.2381, -1.506 0.5963 -0.2362, -1.7559 0.5963 -0.2362, -1.5056 0.5969 -0.2352, -1.7559 0.5968 -0.2351, -1.7559 0.5979 -0.2324, -1.5041 0.598 -0.2319, -1.7559 0.598 -0.2318, -1.7559 0.5984 -0.2283, -1.5026 0.5984 -0.2283, -1.4746 0.5984 -0.1443, -1.5026 0.5984 0.2283, -1.4746 0.5984 0.1443, -1.7559 0.5984 0.2283, -1.4587 0.5984 0.0486, -1.4587 0.5984 -0.0486, -1.7559 0.598 0.2318, -1.5041 0.598 0.2319, -1.5056 0.5969 0.2352, -1.7559 0.5979 0.2324, -1.7559 0.5968 0.2351, -1.7559 0.5963 0.2362, -1.506 0.595 0.2382, -1.506 0.5963 0.2362, -1.506 0.5906 0.242, -1.7559 0.5949 0.2381, -1.7559 0.5938 0.2395, -1.506 0.5925 0.2407, -1.7559 0.5924 0.2406, -1.7559 0.5906 0.242, -1.7559 0.5895 0.2424, -1.7559 0.5868 0.2436, -1.7559 0.5862 0.2436, -1.4741 -0.3553 -0.2441, -1.5038 -0.5827 -0.2441, -1.7559 -0.5827 -0.2441, -1.4741 0.3553 -0.2441, -1.4586 0.1186 -0.2441, -1.4586 -0.1186 -0.2441, -1.5044 -0.5868 -0.2436, -1.5051 -0.5906 -0.242, -1.506 -0.5906 -0.242, -1.7559 -0.5868 -0.2436, -1.7559 -0.5906 -0.242, -1.506 -0.5938 -0.2395, -1.7559 -0.5938 -0.2395, -1.506 -0.5963 -0.2362, -1.7559 -0.5963 -0.2362, -1.5044 -0.5979 -0.2324, -1.7559 -0.5979 -0.2324, -1.7559 -0.5979 -0.2324
            ]
        }
        coordIndex [
            0,1,2,-1,3,4,5,-1,5,4,6,-1,5,6,2,-1,2,6,7,-1,2,7,0,-1,8,9,10,-1,8,10,11,-1,11,10,12,-1,11,12,13,-1,12,14,13,-1,13,14,15,-1,13,15,16,-1,17,18,19,-1,19,18,20,-1,19,20,21,-1,21,20,22,-1,21,22,23,-1,23,22,24,-1,23,24,25,-1,25,24,26,-1,15,27,16,-1,16,27,28,-1,16,28,29,-1,29,28,30,-1,29,30,31,-1,31,30,17,-1,31,17,32,-1,32,17,19,-1,32,19,33,-1,13,16,34,-1,34,16,29,-1,34,29,33,-1,33,29,31,-1,33,31,32,-1,35,36,37,-1,37,36,38,-1,38,36,39,-1,39,36,40,-1,39,40,41,-1,42,39,43,-1,43,39,41,-1,43,41,44,-1,44,41,45,-1,45,46,44,-1,44,46,47,-1,44,47,48,-1,48,47,49,-1,48,49,50,-1,50,49,51,-1,50,51,52,-1,51,53,52,-1,52,53,54,-1,52,54,55,-1,54,56,55,-1,55,56,57,-1,55,57,58,-1,59,58,57,-1,60,61,62,-1,62,61,63,-1,62,63,57,-1,57,63,64,-1,57,64,59,-1,62,65,60,-1,60,65,66,-1,66,65,67,-1,67,65,68,-1,67,68,69,-1,70,71,69,-1,69,71,72,-1,69,72,67,-1,23,25,73,-1,70,74,71,-1,71,74,75,-1,71,75,76,-1,76,75,77,-1,76,77,73,-1,73,77,78,-1,73,78,23,-1,78,79,23,-1,23,79,80,-1,23,80,21,-1,80,81,21,-1,21,81,33,-1,21,33,19,-1,82,83,84,-1,37,85,35,-1,35,85,86,-1,35,86,84,-1,84,86,87,-1,84,87,82,-1,88,89,90,-1,84,83,88,-1,84,88,91,-1,91,88,90,-1,91,90,92,-1,92,90,93,-1,92,93,94,-1,94,93,95,-1,94,95,96,-1,96,95,97,-1,96,97,98,-1,98,97,3,-1,98,3,5,-1,
        ]
    }
}
Shape{
    appearance Appearance {
        material  Material 	{
            diffuseColor 0.1843137254901961 0.5647058823529412 1.0
            specularColor 0.09411764705882353 0.2823529411764706 0.5019607843137255
            ambientIntensity 0.2
            transparency 0
            shininess 0.5
        }
    }
    geometry IndexedFaceSet {
        ccw TRUE
        solid FALSE
        coord DEF co Coordinate {
            point [
                -1.506 0.5906 0.2362, -1.506 0.5906 0.242, -1.5051 0.5906 0.234, -1.5051 0.5906 0.242, -1.5051 -0.5906 0.242, -1.506 -0.5906 0.242, -1.5051 -0.5906 0.234, -1.506 -0.5906 0.2362, -1.506 -0.5906 0.2362
            ]
        }
        coordIndex [
            0,1,2,-1,2,1,3,-1,4,5,6,-1,6,5,7,-1,
        ]
    }
}
Shape{
    appearance Appearance {
        material  Material 	{
            diffuseColor 0.8549019607843137 0.8549019607843137 0.8549019607843137
            specularColor 0.42745098039215684 0.42745098039215684 0.42745098039215684
            ambientIntensity 0.2
            transparency 0
            shininess 0.5
        }
    }
    geometry IndexedFaceSet {
        ccw TRUE
        solid FALSE
        coord DEF co Coordinate {
            point [
                1.5044 -0.5868 0.2436, 1.5051 -0.5906 0.242, 1.506 -0.5906 0.242, 1.7559 -0.5827 0.2441, 1.5038 -0.5827 0.2441, 1.7559 -0.5868 0.2436, 1.7559 -0.5906 0.242, 1.506 -0.5938 0.2395, 1.7559 -0.5938 0.2395, 1.506 -0.5963 0.2362, 1.7559 -0.5963 0.2362, 1.5044 -0.5979 0.2324, 1.7559 -0.5979 0.2324, 1.5026 -0.5984 0.2283, 1.7559 -0.5984 0.2283, 1.4741 0.3553 -0.2362, 1.4741 0.3553 -0.2441, 1.4586 0.1186 -0.2441, 1.5051 -0.5906 -0.242, 1.5051 -0.5906 -0.234, 1.5042 -0.5855 -0.2321, 1.5044 -0.5868 -0.2436, 1.5038 -0.5827 -0.2341, 1.5038 -0.5827 -0.2441, 1.5032 -0.5789 -0.2357, 1.5025 -0.5748 -0.2362, 1.4741 -0.3553 -0.2441, 1.5038 0.5827 -0.2441, 1.5025 0.5748 -0.2362, 1.5032 0.5789 -0.2357, 1.5043 0.5862 -0.2437, 1.5038 0.5827 -0.2341, 1.5049 0.5895 -0.2425, 1.5042 0.5855 -0.2321, 1.5051 0.5906 -0.242, 1.5051 0.5906 -0.234, 1.4741 -0.3553 -0.2362, 1.4586 -0.1186 -0.2362, 1.4586 -0.1186 -0.2441, 1.4586 -0.035 -0.2362, 1.4586 0.1186 -0.2362, 1.4746 -0.5984 -0.1443, 1.5026 -0.5984 -0.2283, 1.7559 -0.5984 -0.2283, 1.4746 -0.5984 0.1443, 1.4587 -0.5984 0.0486, 1.4587 -0.5984 -0.0486, 1.7559 -0.5827 -0.2441, 1.7559 -0.5868 -0.2436, 1.506 -0.5906 -0.242, 1.7559 -0.5906 -0.242, 1.7559 -0.5938 -0.2395, 1.506 -0.5938 -0.2395, 1.7559 -0.5963 -0.2362, 1.506 -0.5963 -0.2362, 1.7559 -0.5979 -0.2324, 1.5044 -0.5979 -0.2324, 1.5051 0.5906 0.242, 1.5051 0.5906 0.234, 1.5049 0.5895 0.2425, 1.5042 0.5855 0.2321, 1.5043 0.5862 0.2437, 1.5038 0.5827 0.2341, 1.5038 0.5827 0.2441, 1.5032 0.5789 0.2357, 1.5025 0.5748 0.2362, 1.4741 0.3553 0.2441, 1.4741 -0.3553 0.2362, 1.5025 -0.5748 0.2362, 1.5032 -0.5789 0.2357, 1.5051 -0.5906 0.234, 1.5042 -0.5855 0.2321, 1.5038 -0.5827 0.2341, 1.4741 0.3553 0.2362, 1.4586 0.1186 0.2362, 1.4586 0.1186 0.2441, 1.4586 -0.1186 0.2362, 1.4586 -0.1186 0.2441, 1.4741 -0.3553 0.2441, 1.7559 0.5827 0.2441, 1.506 0.5906 0.242, 1.7559 0.5895 0.2424, 1.506 0.5925 0.2407, 1.7559 0.5906 0.242, 1.7559 0.5924 0.2406, 1.7559 0.5938 0.2395, 1.506 0.595 0.2382, 1.7559 0.5949 0.2381, 1.506 0.5963 0.2362, 1.7559 0.5963 0.2362, 1.5056 0.5969 0.2352, 1.7559 0.5968 0.2351, 1.7559 0.5979 0.2324, 1.5041 0.598 0.2319, 1.7559 0.598 0.2318, 1.7559 0.5984 0.2283, 1.5026 0.5984 0.2283, 1.7559 0.5862 0.2436, 1.7559 0.5868 0.2436, 1.4746 0.5984 0.1443, 1.5026 0.5984 -0.2283, 1.4746 0.5984 -0.1443, 1.7559 0.5984 -0.2283, 1.4587 0.5984 -0.0486, 1.4587 0.5984 0.0486, 1.7559 0.5827 -0.2441, 1.7717 -0.5827 -0.2283, 1.7717 0.5827 -0.2283, 1.7717 -0.5827 0.2283, 1.7717 0.5827 0.2283, 1.76 0.5979 0.2283, 1.76 0.5979 -0.2283, 1.7638 0.5963 0.2283, 1.7638 0.5963 -0.2283, 1.767 0.5938 0.2283, 1.767 0.5938 -0.2283, 1.7695 0.5906 0.2283, 1.7695 0.5906 -0.2283, 1.7711 0.5868 0.2283, 1.7711 0.5868 -0.2283, 1.7559 0.5963 -0.2362, 1.506 0.595 -0.2382, 1.7559 0.5968 -0.2351, 1.506 0.5963 -0.2362, 1.5056 0.5969 -0.2352, 1.506 0.5906 -0.242, 1.7559 0.5949 -0.2381, 1.7559 0.5938 -0.2395, 1.506 0.5925 -0.2407, 1.7559 0.5924 -0.2406, 1.7559 0.5906 -0.242, 1.7559 0.5895 -0.2424, 1.7559 0.5868 -0.2436, 1.7559 0.5862 -0.2436, 1.7559 0.598 -0.2318, 1.5041 0.598 -0.2319, 1.7559 0.5979 -0.2324, 1.7594 0.5959 0.2362, 1.7588 0.5934 0.2395, 1.7579 0.5903 0.242, 1.757 0.5866 0.2436, 1.7579 0.5862 0.2436, 1.76 0.5827 0.2436, 1.7598 0.5837 0.2436, 1.7615 0.5882 0.242, 1.7594 0.5847 0.2436, 1.7627 0.5866 0.242, 1.7635 0.5847 0.242, 1.7638 0.5827 0.242, 1.7598 0.5895 0.242, 1.7588 0.5856 0.2436, 1.7615 0.5923 0.2395, 1.7638 0.5906 0.2395, 1.7655 0.5882 0.2395, 1.7667 0.5856 0.2395, 1.767 0.5827 0.2395, 1.7627 0.5945 0.2362, 1.7655 0.5923 0.2362, 1.7677 0.5895 0.2362, 1.7691 0.5862 0.2362, 1.7695 0.5827 0.2362, 1.7598 0.5974 0.2324, 1.7635 0.5959 0.2324, 1.7667 0.5934 0.2324, 1.7691 0.5903 0.2324, 1.7706 0.5866 0.2324, 1.7711 0.5827 0.2324, 1.7588 0.5856 -0.2436, 1.7594 0.5847 -0.2436, 1.7579 0.5903 -0.242, 1.7588 0.5934 -0.2395, 1.7706 0.5866 -0.2324, 1.7667 0.5934 -0.2324, 1.7598 0.5974 -0.2324, 1.7635 0.5959 -0.2324, 1.7627 0.5945 -0.2362, 1.7594 0.5959 -0.2362, 1.7695 0.5827 -0.2362, 1.767 0.5827 -0.2395, 1.7667 0.5856 -0.2395, 1.7615 0.5923 -0.2395, 1.7655 0.5923 -0.2362, 1.7691 0.5903 -0.2324, 1.7635 0.5847 -0.242, 1.7627 0.5866 -0.242, 1.7677 0.5895 -0.2362, 1.7638 0.5906 -0.2395, 1.7598 0.5895 -0.242, 1.757 0.5866 -0.2436, 1.7598 0.5837 -0.2436, 1.7638 0.5827 -0.242, 1.76 0.5827 -0.2436, 1.7711 0.5827 -0.2324, 1.7691 0.5862 -0.2362, 1.7655 0.5882 -0.2395, 1.7615 0.5882 -0.242, 1.7579 0.5862 -0.2436, 1.76 -0.5827 0.2436, 1.7638 -0.5827 0.242, 1.767 -0.5827 0.2395, 1.7695 -0.5827 0.2362, 1.7711 -0.5827 0.2324, 1.76 -0.5827 -0.2436, 1.7638 -0.5827 -0.242, 1.767 -0.5827 -0.2395, 1.7695 -0.5827 -0.2362, 1.7711 -0.5827 -0.2324, 1.7706 -0.5866 0.2324, 1.7627 -0.5866 0.242, 1.7594 -0.5847 0.2436, 1.7588 -0.5856 0.2436, 1.757 -0.5866 0.2436, 1.7598 -0.5837 0.2436, 1.7635 -0.5847 0.242, 1.7667 -0.5856 0.2395, 1.7615 -0.5882 0.242, 1.7579 -0.5862 0.2436, 1.7598 -0.5895 0.242, 1.7579 -0.5903 0.242, 1.7655 -0.5882 0.2395, 1.7638 -0.5906 0.2395, 1.7615 -0.5923 0.2395, 1.7588 -0.5934 0.2395, 1.7691 -0.5862 0.2362, 1.7677 -0.5895 0.2362, 1.7655 -0.5923 0.2362, 1.7627 -0.5945 0.2362, 1.7594 -0.5959 0.2362, 1.7691 -0.5903 0.2324, 1.7667 -0.5934 0.2324, 1.7635 -0.5959 0.2324, 1.7598 -0.5974 0.2324, 1.7711 -0.5868 0.2283, 1.7695 -0.5906 0.2283, 1.767 -0.5938 0.2283, 1.7638 -0.5963 0.2283, 1.76 -0.5979 0.2283, 1.7711 -0.5868 -0.2283, 1.7695 -0.5906 -0.2283, 1.7706 -0.5866 -0.2324, 1.7691 -0.5903 -0.2324, 1.7691 -0.5862 -0.2362, 1.7677 -0.5895 -0.2362, 1.7667 -0.5856 -0.2395, 1.7655 -0.5882 -0.2395, 1.7635 -0.5847 -0.242, 1.7627 -0.5866 -0.242, 1.7598 -0.5837 -0.2436, 1.7594 -0.5847 -0.2436, 1.767 -0.5938 -0.2283, 1.7667 -0.5934 -0.2324, 1.7655 -0.5923 -0.2362, 1.7638 -0.5906 -0.2395, 1.7615 -0.5882 -0.242, 1.7588 -0.5856 -0.2436, 1.7638 -0.5963 -0.2283, 1.76 -0.5979 -0.2283, 1.7635 -0.5959 -0.2324, 1.7598 -0.5974 -0.2324, 1.7627 -0.5945 -0.2362, 1.7594 -0.5959 -0.2362, 1.7615 -0.5923 -0.2395, 1.7588 -0.5934 -0.2395, 1.7598 -0.5895 -0.242, 1.7579 -0.5903 -0.242, 1.7579 -0.5862 -0.2436, 1.757 -0.5866 -0.2436, 1.757 -0.5866 -0.2436
            ]
        }
        coordIndex [
            0,1,2,-1,3,4,0,-1,3,0,5,-1,5,0,2,-1,5,2,6,-1,6,2,7,-1,6,7,8,-1,8,7,9,-1,8,9,10,-1,10,9,11,-1,10,11,12,-1,12,11,13,-1,12,13,14,-1,15,16,17,-1,18,19,20,-1,18,20,21,-1,21,20,22,-1,21,22,23,-1,22,24,23,-1,23,24,25,-1,23,25,26,-1,16,15,27,-1,15,28,27,-1,27,28,29,-1,27,29,30,-1,30,29,31,-1,30,31,32,-1,32,31,33,-1,32,33,34,-1,34,33,35,-1,25,36,26,-1,26,36,37,-1,26,37,38,-1,38,37,39,-1,38,39,17,-1,17,39,40,-1,17,40,15,-1,41,42,43,-1,13,44,14,-1,14,44,45,-1,14,45,43,-1,43,45,46,-1,43,46,41,-1,23,47,48,-1,23,48,21,-1,21,48,49,-1,21,49,18,-1,48,50,49,-1,49,50,51,-1,49,51,52,-1,52,51,53,-1,52,53,54,-1,54,53,55,-1,54,55,56,-1,56,55,43,-1,56,43,42,-1,57,58,59,-1,59,58,60,-1,59,60,61,-1,61,60,62,-1,61,62,63,-1,62,64,63,-1,63,64,65,-1,63,65,66,-1,67,68,4,-1,4,68,69,-1,4,69,0,-1,70,1,71,-1,71,1,0,-1,71,0,72,-1,72,0,69,-1,65,73,66,-1,66,73,74,-1,66,74,75,-1,75,74,76,-1,75,76,77,-1,77,76,67,-1,77,67,78,-1,78,67,4,-1,78,4,3,-1,63,66,79,-1,79,66,75,-1,79,75,3,-1,3,75,77,-1,3,77,78,-1,57,59,80,-1,80,59,81,-1,80,81,82,-1,82,81,83,-1,83,84,82,-1,82,84,85,-1,82,85,86,-1,86,85,87,-1,86,87,88,-1,88,87,89,-1,88,89,90,-1,89,91,90,-1,90,91,92,-1,90,92,93,-1,92,94,93,-1,93,94,95,-1,93,95,96,-1,79,97,63,-1,63,97,61,-1,61,97,59,-1,59,97,98,-1,59,98,81,-1,99,96,95,-1,100,101,102,-1,102,101,103,-1,102,103,95,-1,95,103,104,-1,95,104,99,-1,16,27,105,-1,23,26,47,-1,47,26,38,-1,47,38,105,-1,105,38,17,-1,105,17,16,-1,106,107,108,-1,108,107,109,-1,102,95,110,-1,102,110,111,-1,111,110,112,-1,111,112,113,-1,113,112,114,-1,113,114,115,-1,115,114,116,-1,115,116,117,-1,117,116,118,-1,117,118,119,-1,119,118,109,-1,119,109,107,-1,120,121,122,-1,122,121,123,-1,122,123,124,-1,32,34,125,-1,120,126,121,-1,121,126,127,-1,121,127,128,-1,128,127,129,-1,128,129,125,-1,125,129,130,-1,125,130,32,-1,130,131,32,-1,32,131,132,-1,32,132,30,-1,132,133,30,-1,30,133,105,-1,30,105,27,-1,102,134,100,-1,100,134,135,-1,135,134,124,-1,124,134,136,-1,124,136,122,-1,91,89,137,-1,87,85,138,-1,139,140,141,-1,79,142,143,-1,141,140,79,-1,97,79,140,-1,84,83,139,-1,139,83,81,-1,139,81,140,-1,140,81,98,-1,140,98,97,-1,144,145,146,-1,146,145,143,-1,146,143,147,-1,147,143,142,-1,147,142,148,-1,85,84,138,-1,138,84,139,-1,138,139,149,-1,149,139,141,-1,149,141,150,-1,150,141,79,-1,151,144,152,-1,152,144,146,-1,152,146,153,-1,153,146,147,-1,153,147,154,-1,154,147,148,-1,154,148,155,-1,137,151,156,-1,156,151,152,-1,156,152,157,-1,157,152,153,-1,157,153,158,-1,158,153,154,-1,158,154,159,-1,159,154,155,-1,159,155,160,-1,94,92,161,-1,161,92,91,-1,91,137,161,-1,161,137,156,-1,161,156,162,-1,162,156,157,-1,162,157,163,-1,163,157,158,-1,163,158,164,-1,164,158,159,-1,164,159,165,-1,165,159,160,-1,165,160,166,-1,110,95,94,-1,94,161,110,-1,110,161,162,-1,110,162,112,-1,112,162,163,-1,112,163,114,-1,114,163,164,-1,114,164,116,-1,116,164,165,-1,116,165,118,-1,118,165,166,-1,118,166,109,-1,145,79,143,-1,89,87,137,-1,137,87,138,-1,137,138,151,-1,151,138,149,-1,151,149,144,-1,144,149,150,-1,144,150,145,-1,145,150,79,-1,167,168,105,-1,131,130,169,-1,129,127,170,-1,171,119,107,-1,172,115,117,-1,102,111,134,-1,134,111,173,-1,134,173,136,-1,113,115,174,-1,174,115,172,-1,174,172,175,-1,136,173,122,-1,122,173,176,-1,122,176,120,-1,111,113,173,-1,173,113,174,-1,173,174,176,-1,176,174,175,-1,176,175,170,-1,170,127,176,-1,176,127,126,-1,176,126,120,-1,177,178,179,-1,130,129,169,-1,169,129,170,-1,169,170,180,-1,180,170,175,-1,180,175,181,-1,181,175,172,-1,181,172,182,-1,182,172,117,-1,182,117,119,-1,179,183,184,-1,119,171,182,-1,182,171,185,-1,182,185,181,-1,181,185,186,-1,181,186,180,-1,180,186,187,-1,180,187,169,-1,169,187,188,-1,169,188,131,-1,168,167,184,-1,184,183,168,-1,168,183,189,-1,168,189,105,-1,179,178,183,-1,183,178,190,-1,183,190,189,-1,189,190,191,-1,189,191,105,-1,105,133,188,-1,188,133,132,-1,188,132,131,-1,107,192,171,-1,171,192,193,-1,171,193,185,-1,185,193,194,-1,185,194,186,-1,186,194,195,-1,186,195,187,-1,187,195,196,-1,187,196,188,-1,188,196,105,-1,192,177,193,-1,193,177,179,-1,193,179,194,-1,194,179,184,-1,194,184,195,-1,195,184,167,-1,195,167,196,-1,196,167,105,-1,79,3,197,-1,79,197,142,-1,142,197,198,-1,142,198,148,-1,148,198,199,-1,148,199,155,-1,155,199,200,-1,155,200,160,-1,160,200,201,-1,160,201,166,-1,166,201,108,-1,166,108,109,-1,47,105,191,-1,47,191,202,-1,202,191,190,-1,202,190,203,-1,203,190,178,-1,203,178,204,-1,204,178,177,-1,204,177,205,-1,205,177,192,-1,205,192,206,-1,206,192,107,-1,206,107,106,-1,108,201,207,-1,208,209,210,-1,3,5,211,-1,210,209,3,-1,212,3,209,-1,212,209,213,-1,213,209,208,-1,213,208,214,-1,197,3,212,-1,215,216,217,-1,217,216,211,-1,217,211,218,-1,218,211,5,-1,218,5,6,-1,197,212,198,-1,198,212,213,-1,198,213,199,-1,199,213,214,-1,199,214,200,-1,219,215,220,-1,220,215,217,-1,220,217,221,-1,221,217,218,-1,221,218,222,-1,222,218,6,-1,222,6,8,-1,223,219,224,-1,224,219,220,-1,224,220,225,-1,225,220,221,-1,225,221,226,-1,226,221,222,-1,226,222,227,-1,227,222,8,-1,227,8,10,-1,201,223,207,-1,207,223,224,-1,207,224,228,-1,228,224,225,-1,228,225,229,-1,229,225,226,-1,229,226,230,-1,230,226,227,-1,230,227,231,-1,231,227,10,-1,231,10,12,-1,108,207,232,-1,232,207,228,-1,232,228,233,-1,233,228,229,-1,233,229,234,-1,234,229,230,-1,234,230,235,-1,235,230,231,-1,235,231,236,-1,236,231,12,-1,236,12,14,-1,216,3,211,-1,201,200,223,-1,223,200,214,-1,223,214,219,-1,219,214,208,-1,219,208,215,-1,215,208,210,-1,215,210,216,-1,216,210,3,-1,237,238,239,-1,239,238,240,-1,239,240,241,-1,241,240,242,-1,241,242,243,-1,243,242,244,-1,243,244,245,-1,245,244,246,-1,245,246,247,-1,247,246,248,-1,247,248,47,-1,238,249,240,-1,240,249,250,-1,240,250,242,-1,242,250,251,-1,242,251,244,-1,244,251,252,-1,244,252,246,-1,246,252,253,-1,246,253,248,-1,248,253,254,-1,248,254,47,-1,106,237,206,-1,206,237,239,-1,206,239,205,-1,205,239,241,-1,205,241,204,-1,204,241,243,-1,204,243,203,-1,203,243,245,-1,203,245,202,-1,202,245,247,-1,202,247,47,-1,255,256,257,-1,257,256,258,-1,257,258,259,-1,259,258,260,-1,259,260,261,-1,261,260,262,-1,261,262,263,-1,263,262,264,-1,263,264,265,-1,265,264,266,-1,265,266,47,-1,256,43,258,-1,258,43,55,-1,258,55,260,-1,260,55,53,-1,260,53,262,-1,262,53,51,-1,262,51,264,-1,264,51,50,-1,264,50,266,-1,266,50,48,-1,266,48,47,-1,249,255,250,-1,250,255,257,-1,250,257,251,-1,251,257,259,-1,251,259,252,-1,252,259,261,-1,252,261,253,-1,253,261,263,-1,253,263,254,-1,254,263,265,-1,254,265,47,-1,14,43,256,-1,14,256,236,-1,236,256,255,-1,236,255,235,-1,235,255,249,-1,235,249,234,-1,234,249,238,-1,234,238,233,-1,233,238,237,-1,233,237,232,-1,232,237,106,-1,232,106,108,-1,
        ]
    }
}
Shape{
    appearance Appearance {
        material  Material 	{
            diffuseColor 1.0 1.0 1.0
            specularColor 0.8784313725490196 0.8784313725490196 0.8784313725490196
            ambientIntensity 0.2
            transparency 0
            shininess 0.5
        }
    }
    geometry IndexedFaceSet {
        ccw TRUE
        solid FALSE
        coord DEF co Coordinate {
            point [
                1.504 0.5859 0.2316, 1.5042 0.5855 0.2321, 1.5051 0.5906 0.234, 1.4994 0.5906 0.2205, 1.5011 0.59 0.2245, 1.5026 0.5984 0.2283, 1.4746 0.5906 0.1443, 1.5026 0.5884 0.2283, 1.506 0.5906 0.2362, 1.506 0.5963 0.2362, 1.5056 0.5969 0.2352, 1.5041 0.598 0.2319, 1.4746 0.5984 -0.1443, 1.4587 0.5906 -0.0486, 1.4587 0.5984 -0.0486, 1.4587 0.5906 0.0486, 1.4587 0.5984 0.0486, 1.4746 0.5984 0.1443, 1.506 0.5963 -0.2362, 1.506 0.5906 -0.2362, 1.5056 0.5969 -0.2352, 1.5051 0.5906 -0.234, 1.5041 0.598 -0.2319, 1.5042 0.5855 -0.2321, 1.504 0.5859 -0.2316, 1.5026 0.5984 -0.2283, 1.5026 0.5884 -0.2283, 1.5011 0.59 -0.2245, 1.4994 0.5906 -0.2205, 1.4746 0.5906 -0.1443, 1.506 0.595 -0.2382, 1.506 0.5925 -0.2407, 1.506 0.5906 -0.242, 1.506 0.5906 0.242, 1.506 0.5925 0.2407, 1.506 0.595 0.2382, 1.5051 -0.5906 0.234, 1.5042 -0.5855 0.2321, 1.504 -0.5859 0.2316, 1.506 -0.5963 0.2362, 1.506 -0.5906 0.2362, 1.5044 -0.5979 0.2324, 1.5026 -0.5984 0.2283, 1.5026 -0.5884 0.2283, 1.5011 -0.59 0.2245, 1.4994 -0.5906 0.2205, 1.4746 -0.5984 0.1443, 1.504 -0.5859 -0.2316, 1.5042 -0.5855 -0.2321, 1.5051 -0.5906 -0.234, 1.4994 -0.5906 -0.2205, 1.5011 -0.59 -0.2245, 1.5026 -0.5984 -0.2283, 1.4746 -0.5906 -0.1443, 1.5026 -0.5884 -0.2283, 1.5044 -0.5979 -0.2324, 1.506 -0.5906 -0.2362, 1.506 -0.5963 -0.2362, 1.4746 -0.5906 0.1443, 1.4587 -0.5906 0.0486, 1.4587 -0.5984 0.0486, 1.4587 -0.5906 -0.0486, 1.4587 -0.5984 -0.0486, 1.4746 -0.5984 -0.1443, 1.506 -0.5906 0.242, 1.506 -0.5938 0.2395, 1.506 -0.5938 -0.2395, 1.506 -0.5906 -0.242, -0.103 0.0244 -0.2323, -0.126 -0.0346 -0.2323, -0.103 0.0244 -0.2362, -0.126 -0.0346 -0.2362, -0.1174 -0.0346 -0.2323, -0.1174 -0.0346 -0.2362, -0.1114 -0.0181 -0.2323, -0.1114 -0.0181 -0.2362, -0.087 -0.0181 -0.2323, -0.087 -0.0181 -0.2362, -0.0814 -0.0346 -0.2323, -0.0814 -0.0346 -0.2362, -0.0727 -0.0346 -0.2323, -0.0727 -0.0346 -0.2362, -0.095 0.0244 -0.2323, -0.095 0.0244 -0.2362, -0.089 -0.0116 -0.2323, -0.1087 -0.0116 -0.2323, -0.0978 0.0131 -0.2323, -0.0984 0.0151 -0.2323, -0.0988 0.0172 -0.2323, -0.0989 0.0172 -0.2323, -0.0993 0.0151 -0.2323, -0.0999 0.0131 -0.2323, -0.089 -0.0116 -0.2362, -0.1087 -0.0116 -0.2362, -0.0978 0.0131 -0.2362, -0.0984 0.0151 -0.2362, -0.0988 0.0172 -0.2362, -0.0989 0.0172 -0.2362, -0.0993 0.0151 -0.2362, -0.0999 0.0131 -0.2362, -0.0369 -0.0346 -0.2323, -0.0209 -0.0346 -0.2323, -0.0369 -0.0346 -0.2362, -0.0209 -0.0346 -0.2362, -0.0209 0.0244 -0.2323, -0.0209 0.0244 -0.2362, -0.0375 0.0244 -0.2323, -0.0375 0.0244 -0.2362, -0.0684 -0.0043 -0.2323, -0.0684 -0.0043 -0.2362, -0.068 0.0012 -0.2362, -0.068 0.0012 -0.2323, -0.0664 0.007 -0.2362, -0.0664 0.007 -0.2323, -0.0636 0.0121 -0.2362, -0.0636 0.0121 -0.2323, -0.0595 0.0167 -0.2362, -0.0595 0.0167 -0.2323, -0.0594 0.0168 -0.2362, -0.0594 0.0168 -0.2323, -0.053 0.0211 -0.2362, -0.053 0.0211 -0.2323, -0.0461 0.0235 -0.2362, -0.0461 0.0235 -0.2323, -0.0442 -0.034 -0.2362, -0.0442 -0.034 -0.2323, -0.051 -0.032 -0.2362, -0.051 -0.032 -0.2323, -0.0572 -0.0284 -0.2362, -0.0572 -0.0284 -0.2323, -0.0621 -0.0237 -0.2362, -0.0621 -0.0237 -0.2323, -0.0655 -0.0184 -0.2362, -0.0655 -0.0184 -0.2323, -0.0676 -0.0123 -0.2362, -0.0676 -0.0123 -0.2323, -0.0565 0.0097 -0.2323, -0.0537 0.0127 -0.2323, -0.0494 0.0155 -0.2323, -0.0445 0.0172 -0.2323, -0.0375 0.018 -0.2323, -0.0288 0.018 -0.2323, -0.0288 -0.0281 -0.2323, -0.0372 -0.0281 -0.2323, -0.0434 -0.0276 -0.2323, -0.0484 -0.026 -0.2323, -0.0524 -0.0236 -0.2323, -0.0557 -0.0203 -0.2323, -0.0582 -0.0163 -0.2323, -0.0599 -0.0107 -0.2323, -0.0605 -0.0045 -0.2323, -0.06 0.0014 -0.2323, -0.0586 0.006 -0.2323, -0.0375 0.018 -0.2362, -0.0288 0.018 -0.2362, -0.0445 0.0172 -0.2362, -0.0494 0.0155 -0.2362, -0.0537 0.0127 -0.2362, -0.0565 0.0097 -0.2362, -0.0586 0.006 -0.2362, -0.06 0.0014 -0.2362, -0.0605 -0.0045 -0.2362, -0.0599 -0.0107 -0.2362, -0.0582 -0.0163 -0.2362, -0.0557 -0.0203 -0.2362, -0.0524 -0.0236 -0.2362, -0.0484 -0.026 -0.2362, -0.0434 -0.0276 -0.2362, -0.0372 -0.0281 -0.2362, -0.0288 -0.0281 -0.2362, -0.0093 -0.0281 -0.2323, -0.0093 -0.0346 -0.2323, -0.0093 -0.0281 -0.2362, -0.0093 -0.0346 -0.2362, 0.0223 -0.0346 -0.2323, 0.0223 -0.0346 -0.2362, 0.0223 0.0244 -0.2323, 0.0223 0.0244 -0.2362, -0.0079 0.0244 -0.2323, -0.0079 0.0244 -0.2362, -0.0079 0.018 -0.2323, -0.0079 0.018 -0.2362, 0.0144 0.018 -0.2323, 0.0144 0.018 -0.2362, 0.0144 -0.0015 -0.2323, 0.0144 -0.0015 -0.2362, -0.0065 -0.0015 -0.2323, -0.0065 -0.0015 -0.2362, -0.0065 -0.008 -0.2323, -0.0065 -0.008 -0.2362, 0.0144 -0.008 -0.2323, 0.0144 -0.008 -0.2362, 0.0144 -0.0281 -0.2323, 0.0144 -0.0281 -0.2362, 0.0339 -0.0251 -0.2323, 0.0339 -0.0316 -0.2323, 0.0339 -0.0251 -0.2362, 0.0339 -0.0316 -0.2362, 0.0402 -0.0341 -0.2323, 0.0501 -0.0353 -0.2323, 0.0501 -0.0353 -0.2362, 0.0485 -0.0353 -0.2362, 0.0485 -0.0353 -0.2323, 0.0461 -0.035 -0.2362, 0.0402 -0.0341 -0.2362, 0.0778 -0.0062 -0.2323, 0.0778 -0.0062 -0.2362, 0.0772 -0.013 -0.2362, 0.0772 -0.013 -0.2323, 0.0754 -0.0193 -0.2362, 0.0754 -0.0193 -0.2323, 0.0723 -0.0249 -0.2362, 0.0723 -0.0249 -0.2323, 0.0679 -0.0296 -0.2362, 0.0679 -0.0296 -0.2323, 0.0631 -0.0326 -0.2362, 0.0631 -0.0326 -0.2323, 0.0574 -0.0346 -0.2362, 0.0574 -0.0346 -0.2323, 0.0536 -0.035 -0.2362, 0.0478 0.0252 -0.2323, 0.0478 0.0252 -0.2362, 0.0537 0.0247 -0.2362, 0.0537 0.0247 -0.2323, 0.0603 0.0228 -0.2362, 0.0603 0.0228 -0.2323, 0.0659 0.0195 -0.2362, 0.0659 0.0195 -0.2323, 0.0712 0.0144 -0.2362, 0.0712 0.0144 -0.2323, 0.0747 0.0089 -0.2362, 0.0747 0.0089 -0.2323, 0.0769 0.0022 -0.2362, 0.0769 0.0022 -0.2323, 0.0339 0.0228 -0.2323, 0.0339 0.0228 -0.2362, 0.0407 0.0247 -0.2362, 0.0407 0.0247 -0.2323, 0.0339 0.0149 -0.2323, 0.0339 0.0149 -0.2362, 0.0477 0.0187 -0.2323, 0.0477 0.0187 -0.2362, 0.0405 0.0177 -0.2362, 0.0405 0.0177 -0.2323, 0.0699 -0.0057 -0.2323, 0.0699 -0.0057 -0.2362, 0.0696 -0.0011 -0.2362, 0.0696 -0.0011 -0.2323, 0.068 0.0052 -0.2362, 0.068 0.0052 -0.2323, 0.0656 0.0098 -0.2362, 0.0656 0.0098 -0.2323, 0.062 0.0137 -0.2362, 0.062 0.0137 -0.2323, 0.0579 0.0164 -0.2362, 0.0579 0.0164 -0.2323, 0.0535 0.018 -0.2362, 0.0535 0.018 -0.2323, 0.049 -0.0289 -0.2323, 0.049 -0.0289 -0.2362, 0.0545 -0.0282 -0.2362, 0.0545 -0.0282 -0.2323, 0.0588 -0.0267 -0.2362, 0.0588 -0.0267 -0.2323, 0.0625 -0.0242 -0.2362, 0.0625 -0.0242 -0.2323, 0.0652 -0.0213 -0.2362, 0.0652 -0.0213 -0.2323, 0.0677 -0.0172 -0.2362, 0.0677 -0.0172 -0.2323, 0.0693 -0.0121 -0.2362, 0.0693 -0.0121 -0.2323, 0.0349 -0.0257 -0.2362, 0.0349 -0.0257 -0.2323, 0.0412 -0.028 -0.2362, 0.0412 -0.028 -0.2323, 0.0828 -0.0281 -0.2323, 0.0828 -0.0346 -0.2323, 0.0828 -0.0281 -0.2362, 0.0828 -0.0346 -0.2362, 0.1131 -0.0346 -0.2323, 0.1131 -0.0346 -0.2362, 0.1131 0.0244 -0.2323, 0.1131 0.0244 -0.2362, 0.1052 0.0244 -0.2323, 0.1052 0.0244 -0.2362, 0.1052 -0.0281 -0.2323, 0.1052 -0.0281 -0.2362, 0.1052 -0.0281 -0.2362
            ]
        }
        coordIndex [
            0,1,2,-1,3,4,5,-1,3,5,6,-1,0,2,7,-1,8,9,2,-1,2,9,10,-1,4,7,5,-1,5,7,2,-1,5,2,11,-1,11,2,10,-1,12,13,14,-1,14,13,15,-1,14,15,16,-1,16,15,6,-1,16,6,17,-1,17,6,5,-1,18,19,20,-1,20,19,21,-1,20,21,22,-1,21,23,24,-1,22,21,25,-1,25,21,24,-1,25,24,26,-1,26,27,25,-1,25,27,28,-1,25,28,12,-1,12,28,29,-1,12,29,13,-1,18,30,19,-1,19,30,31,-1,19,31,32,-1,33,34,8,-1,8,34,35,-1,8,35,9,-1,36,37,38,-1,39,40,41,-1,41,40,36,-1,41,36,42,-1,42,36,38,-1,42,38,43,-1,43,44,42,-1,42,44,45,-1,42,45,46,-1,47,48,49,-1,50,51,52,-1,50,52,53,-1,47,49,54,-1,51,54,52,-1,52,54,49,-1,52,49,55,-1,55,49,56,-1,55,56,57,-1,45,58,46,-1,46,58,59,-1,46,59,60,-1,60,59,61,-1,60,61,62,-1,62,61,53,-1,62,53,63,-1,63,53,52,-1,64,40,65,-1,65,40,39,-1,57,56,66,-1,66,56,67,-1,68,69,70,-1,70,69,71,-1,69,72,71,-1,71,72,73,-1,72,74,73,-1,73,74,75,-1,74,76,75,-1,75,76,77,-1,76,78,77,-1,77,78,79,-1,78,80,79,-1,79,80,81,-1,80,82,81,-1,81,82,83,-1,82,68,83,-1,83,68,70,-1,84,76,85,-1,85,76,74,-1,86,82,84,-1,84,82,80,-1,84,80,76,-1,76,80,78,-1,86,87,82,-1,82,87,88,-1,82,88,68,-1,68,88,89,-1,68,89,90,-1,90,91,68,-1,68,91,85,-1,68,85,69,-1,69,85,74,-1,69,74,72,-1,84,85,92,-1,92,85,93,-1,86,84,94,-1,94,84,92,-1,86,94,95,-1,86,95,87,-1,87,95,96,-1,87,96,88,-1,89,88,97,-1,97,88,96,-1,89,97,98,-1,89,98,90,-1,90,98,99,-1,90,99,91,-1,85,91,93,-1,93,91,99,-1,100,101,102,-1,102,101,103,-1,101,104,103,-1,103,104,105,-1,104,106,105,-1,105,106,107,-1,108,109,110,-1,108,110,111,-1,111,110,112,-1,111,112,113,-1,113,112,114,-1,113,114,115,-1,115,114,116,-1,115,116,117,-1,117,116,118,-1,117,118,119,-1,119,118,120,-1,119,120,121,-1,121,120,122,-1,121,122,123,-1,123,122,107,-1,123,107,106,-1,100,102,124,-1,100,124,125,-1,125,124,126,-1,125,126,127,-1,127,126,128,-1,127,128,129,-1,129,128,130,-1,129,130,131,-1,131,130,132,-1,131,132,133,-1,133,132,134,-1,133,134,135,-1,135,134,109,-1,135,109,108,-1,113,115,136,-1,136,115,117,-1,136,117,137,-1,137,117,119,-1,137,119,138,-1,138,119,121,-1,138,121,139,-1,139,121,123,-1,139,123,140,-1,140,123,106,-1,140,106,141,-1,141,106,104,-1,141,104,142,-1,142,104,101,-1,142,101,143,-1,143,101,100,-1,143,100,144,-1,144,100,125,-1,144,125,145,-1,145,125,127,-1,145,127,146,-1,146,127,129,-1,146,129,147,-1,147,129,131,-1,147,131,148,-1,148,131,133,-1,148,133,149,-1,149,133,135,-1,149,135,150,-1,150,135,108,-1,150,108,151,-1,151,108,111,-1,151,111,152,-1,152,111,113,-1,152,113,136,-1,140,141,153,-1,153,141,154,-1,140,153,155,-1,140,155,139,-1,139,155,156,-1,139,156,138,-1,138,156,157,-1,138,157,137,-1,137,157,158,-1,137,158,136,-1,136,158,159,-1,136,159,152,-1,152,159,160,-1,152,160,151,-1,151,160,161,-1,151,161,150,-1,150,161,162,-1,150,162,149,-1,149,162,163,-1,149,163,148,-1,148,163,164,-1,148,164,147,-1,147,164,165,-1,147,165,146,-1,146,165,166,-1,146,166,145,-1,145,166,167,-1,145,167,144,-1,144,167,168,-1,144,168,143,-1,142,143,169,-1,169,143,168,-1,141,142,154,-1,154,142,169,-1,170,171,172,-1,172,171,173,-1,171,174,173,-1,173,174,175,-1,174,176,175,-1,175,176,177,-1,176,178,177,-1,177,178,179,-1,178,180,179,-1,179,180,181,-1,180,182,181,-1,181,182,183,-1,182,184,183,-1,183,184,185,-1,184,186,185,-1,185,186,187,-1,186,188,187,-1,187,188,189,-1,188,190,189,-1,189,190,191,-1,190,192,191,-1,191,192,193,-1,192,170,193,-1,193,170,172,-1,174,171,170,-1,170,192,174,-1,174,192,190,-1,174,190,176,-1,180,178,182,-1,182,178,176,-1,182,176,184,-1,184,176,190,-1,184,190,186,-1,186,190,188,-1,194,195,196,-1,196,195,197,-1,197,195,198,-1,199,200,201,-1,199,201,202,-1,202,201,203,-1,202,203,198,-1,198,203,204,-1,198,204,197,-1,205,206,207,-1,205,207,208,-1,208,207,209,-1,208,209,210,-1,210,209,211,-1,210,211,212,-1,212,211,213,-1,212,213,214,-1,214,213,215,-1,214,215,216,-1,216,215,217,-1,216,217,218,-1,218,217,199,-1,199,217,219,-1,199,219,200,-1,220,221,222,-1,220,222,223,-1,223,222,224,-1,223,224,225,-1,225,224,226,-1,225,226,227,-1,227,226,228,-1,227,228,229,-1,229,228,230,-1,229,230,231,-1,231,230,232,-1,231,232,233,-1,233,232,206,-1,233,206,205,-1,234,235,236,-1,234,236,237,-1,237,236,221,-1,237,221,220,-1,234,238,235,-1,235,238,239,-1,240,241,242,-1,240,242,243,-1,243,242,239,-1,243,239,238,-1,244,245,246,-1,244,246,247,-1,247,246,248,-1,247,248,249,-1,249,248,250,-1,249,250,251,-1,251,250,252,-1,251,252,253,-1,253,252,254,-1,253,254,255,-1,255,254,256,-1,255,256,257,-1,257,256,241,-1,257,241,240,-1,258,259,260,-1,258,260,261,-1,261,260,262,-1,261,262,263,-1,263,262,264,-1,263,264,265,-1,265,264,266,-1,265,266,267,-1,267,266,268,-1,267,268,269,-1,269,268,270,-1,269,270,271,-1,271,270,245,-1,271,245,244,-1,194,196,272,-1,194,272,273,-1,273,272,274,-1,273,274,275,-1,275,274,259,-1,275,259,258,-1,261,199,258,-1,258,199,202,-1,258,202,275,-1,275,202,198,-1,275,198,273,-1,273,198,195,-1,273,195,194,-1,238,234,243,-1,243,234,237,-1,243,237,240,-1,240,237,220,-1,240,220,257,-1,257,220,223,-1,257,223,255,-1,255,223,225,-1,255,225,253,-1,253,225,227,-1,253,227,251,-1,251,227,229,-1,251,229,249,-1,249,229,231,-1,249,231,247,-1,247,231,233,-1,247,233,244,-1,244,233,205,-1,244,205,271,-1,271,205,208,-1,271,208,269,-1,269,208,210,-1,269,210,267,-1,267,210,212,-1,267,212,265,-1,265,212,214,-1,265,214,263,-1,263,214,216,-1,263,216,261,-1,261,216,218,-1,261,218,199,-1,276,277,278,-1,278,277,279,-1,277,280,279,-1,279,280,281,-1,280,282,281,-1,281,282,283,-1,282,284,283,-1,283,284,285,-1,284,286,285,-1,285,286,287,-1,286,276,287,-1,287,276,278,-1,284,282,286,-1,286,282,280,-1,286,280,276,-1,276,280,277,-1,
        ]
    }
}
Shape{
    appearance Appearance {
        material  Material 	{
            diffuseColor 0.1843137254901961 0.5647058823529412 1.0
            specularColor 0.09411764705882353 0.2823529411764706 0.5019607843137255
            ambientIntensity 0.2
            transparency 0
            shininess 0.5
        }
    }
    geometry IndexedFaceSet {
        ccw TRUE
        solid FALSE
        coord DEF co Coordinate {
            point [
                -0.089 -0.0116 -0.2362, -0.1087 -0.0116 -0.2362, -0.0978 0.0131 -0.2362, -0.0999 0.0131 -0.2362, -0.0984 0.0151 -0.2362, -0.0993 0.0151 -0.2362, -0.0988 0.0172 -0.2362, -0.0989 0.0172 -0.2362, -0.0288 0.018 -0.2362, -0.0288 -0.0281 -0.2362, -0.0375 0.018 -0.2362, -0.0372 -0.0281 -0.2362, -0.0434 -0.0276 -0.2362, -0.0605 -0.0045 -0.2362, -0.06 0.0014 -0.2362, -0.0586 0.006 -0.2362, -0.0445 0.0172 -0.2362, -0.0484 -0.026 -0.2362, -0.0524 -0.0236 -0.2362, -0.0557 -0.0203 -0.2362, -0.0582 -0.0163 -0.2362, -0.0599 -0.0107 -0.2362, -0.0565 0.0097 -0.2362, -0.0537 0.0127 -0.2362, -0.0494 0.0155 -0.2362, -0.0494 0.0155 -0.2362
            ]
        }
        coordIndex [
            0,1,2,-1,2,1,3,-1,2,3,4,-1,4,3,5,-1,4,5,6,-1,6,5,7,-1,8,9,10,-1,10,9,11,-1,10,11,12,-1,13,14,10,-1,10,14,15,-1,10,15,16,-1,12,17,10,-1,10,17,18,-1,10,18,19,-1,19,20,10,-1,10,20,21,-1,10,21,13,-1,22,23,15,-1,15,23,24,-1,15,24,16,-1,
        ]
    }
}
Shape{
    appearance Appearance {
        material  Material 	{
            diffuseColor 0.8549019607843137 0.8549019607843137 0.8549019607843137
            specularColor 0.42745098039215684 0.42745098039215684 0.42745098039215684
            ambientIntensity 0.2
            transparency 0
            shininess 0.5
        }
    }
    geometry IndexedFaceSet {
        ccw TRUE
        solid FALSE
        coord DEF co Coordinate {
            point [
                -1.7717 0.5827 -0.2283, -1.7717 -0.5827 -0.2283, -1.7717 0.5827 0.2283, -1.7717 -0.5827 0.2283, -1.5038 -0.5827 0.2441, -1.7559 -0.5827 0.2441, -1.7559 -0.5868 0.2436, -1.5044 -0.5868 0.2436, -1.506 -0.5906 0.242, -1.5051 -0.5906 0.242, -1.7559 -0.5906 0.242, -1.7559 -0.5938 0.2395, -1.506 -0.5938 0.2395, -1.7559 -0.5963 0.2362, -1.506 -0.5963 0.2362, -1.7559 -0.5979 0.2324, -1.5044 -0.5979 0.2324, -1.7559 -0.5984 0.2283, -1.5026 -0.5984 0.2283, -1.7559 -0.5984 -0.2283, -1.76 -0.5979 0.2283, -1.76 -0.5979 -0.2283, -1.7638 -0.5963 0.2283, -1.7638 -0.5963 -0.2283, -1.767 -0.5938 0.2283, -1.767 -0.5938 -0.2283, -1.7695 -0.5906 0.2283, -1.7695 -0.5906 -0.2283, -1.7711 -0.5868 0.2283, -1.7711 -0.5868 -0.2283, -1.7598 -0.5974 -0.2324, -1.7635 -0.5959 -0.2324, -1.7594 -0.5959 -0.2362, -1.7627 -0.5945 -0.2362, -1.7588 -0.5934 -0.2395, -1.7615 -0.5923 -0.2395, -1.7579 -0.5903 -0.242, -1.7598 -0.5895 -0.242, -1.757 -0.5866 -0.2436, -1.7579 -0.5862 -0.2436, -1.7559 -0.5827 -0.2441, -1.7667 -0.5934 -0.2324, -1.7655 -0.5923 -0.2362, -1.7638 -0.5906 -0.2395, -1.7615 -0.5882 -0.242, -1.7588 -0.5856 -0.2436, -1.7559 -0.5979 -0.2324, -1.7559 -0.5963 -0.2362, -1.7559 -0.5938 -0.2395, -1.7559 -0.5906 -0.242, -1.7559 -0.5868 -0.2436, -1.7691 -0.5903 -0.2324, -1.7706 -0.5866 -0.2324, -1.7677 -0.5895 -0.2362, -1.7691 -0.5862 -0.2362, -1.7655 -0.5882 -0.2395, -1.7667 -0.5856 -0.2395, -1.7627 -0.5866 -0.242, -1.7635 -0.5847 -0.242, -1.7594 -0.5847 -0.2436, -1.7598 -0.5837 -0.2436, -1.7711 -0.5827 -0.2324, -1.7695 -0.5827 -0.2362, -1.767 -0.5827 -0.2395, -1.7638 -0.5827 -0.242, -1.76 -0.5827 -0.2436, -1.7598 -0.5974 0.2324, -1.7598 -0.5895 0.242, -1.7579 -0.5862 0.2436, -1.7588 -0.5856 0.2436, -1.76 -0.5827 0.2436, -1.7598 -0.5837 0.2436, -1.757 -0.5866 0.2436, -1.7579 -0.5903 0.242, -1.7588 -0.5934 0.2395, -1.7615 -0.5882 0.242, -1.7594 -0.5847 0.2436, -1.7627 -0.5866 0.242, -1.7635 -0.5847 0.242, -1.7638 -0.5827 0.242, -1.7615 -0.5923 0.2395, -1.7638 -0.5906 0.2395, -1.7655 -0.5882 0.2395, -1.7667 -0.5856 0.2395, -1.767 -0.5827 0.2395, -1.7594 -0.5959 0.2362, -1.7627 -0.5945 0.2362, -1.7655 -0.5923 0.2362, -1.7677 -0.5895 0.2362, -1.7691 -0.5862 0.2362, -1.7695 -0.5827 0.2362, -1.7635 -0.5959 0.2324, -1.7667 -0.5934 0.2324, -1.7691 -0.5903 0.2324, -1.7706 -0.5866 0.2324, -1.7711 -0.5827 0.2324, -1.7559 0.5827 -0.2441, -1.76 0.5827 -0.2436, -1.7638 0.5827 -0.242, -1.767 0.5827 -0.2395, -1.7695 0.5827 -0.2362, -1.7711 0.5827 -0.2324, -1.7559 0.5827 0.2441, -1.76 0.5827 0.2436, -1.7638 0.5827 0.242, -1.767 0.5827 0.2395, -1.7695 0.5827 0.2362, -1.7711 0.5827 0.2324, -1.7559 0.5862 -0.2436, -1.757 0.5866 -0.2436, -1.7559 0.5984 -0.2283, -1.7559 0.598 -0.2318, -1.76 0.5979 -0.2283, -1.7598 0.5974 -0.2324, -1.7559 0.5979 -0.2324, -1.7559 0.5968 -0.2351, -1.7594 0.5959 -0.2362, -1.7559 0.5963 -0.2362, -1.7559 0.5949 -0.2381, -1.7588 0.5934 -0.2395, -1.7559 0.5938 -0.2395, -1.7559 0.5924 -0.2406, -1.7579 0.5903 -0.242, -1.7711 0.5868 -0.2283, -1.7695 0.5906 -0.2283, -1.7706 0.5866 -0.2324, -1.7691 0.5903 -0.2324, -1.7691 0.5862 -0.2362, -1.7677 0.5895 -0.2362, -1.7667 0.5856 -0.2395, -1.7655 0.5882 -0.2395, -1.7635 0.5847 -0.242, -1.7627 0.5866 -0.242, -1.7598 0.5837 -0.2436, -1.7594 0.5847 -0.2436, -1.767 0.5938 -0.2283, -1.7667 0.5934 -0.2324, -1.7655 0.5923 -0.2362, -1.7638 0.5906 -0.2395, -1.7615 0.5882 -0.242, -1.7588 0.5856 -0.2436, -1.7638 0.5963 -0.2283, -1.7635 0.5959 -0.2324, -1.7627 0.5945 -0.2362, -1.7615 0.5923 -0.2395, -1.7598 0.5895 -0.242, -1.7579 0.5862 -0.2436, -1.7559 0.5906 -0.242, -1.7559 0.5895 -0.2424, -1.7559 0.5868 -0.2436, -1.7706 0.5866 0.2324, -1.7691 0.5862 0.2362, -1.7635 0.5847 0.242, -1.7598 0.5837 0.2436, -1.7594 0.5847 0.2436, -1.757 0.5866 0.2436, -1.7559 0.5862 0.2436, -1.7579 0.5862 0.2436, -1.7627 0.5866 0.242, -1.7588 0.5856 0.2436, -1.7615 0.5882 0.242, -1.7598 0.5895 0.242, -1.7579 0.5903 0.242, -1.7559 0.5868 0.2436, -1.7559 0.5895 0.2424, -1.7559 0.5906 0.242, -1.7559 0.5924 0.2406, -1.7667 0.5856 0.2395, -1.7655 0.5882 0.2395, -1.7638 0.5906 0.2395, -1.7615 0.5923 0.2395, -1.7588 0.5934 0.2395, -1.7559 0.5938 0.2395, -1.7677 0.5895 0.2362, -1.7655 0.5923 0.2362, -1.7627 0.5945 0.2362, -1.7594 0.5959 0.2362, -1.7559 0.5949 0.2381, -1.7691 0.5903 0.2324, -1.7667 0.5934 0.2324, -1.7635 0.5959 0.2324, -1.7598 0.5974 0.2324, -1.7559 0.5963 0.2362, -1.7559 0.5968 0.2351, -1.7559 0.5979 0.2324, -1.7559 0.598 0.2318, -1.7711 0.5868 0.2283, -1.7695 0.5906 0.2283, -1.767 0.5938 0.2283, -1.7638 0.5963 0.2283, -1.76 0.5979 0.2283, -1.7559 0.5984 0.2283, -1.7559 0.5984 0.2283
            ]
        }
        coordIndex [
            0,1,2,-1,2,1,3,-1,4,5,6,-1,4,6,7,-1,7,6,8,-1,7,8,9,-1,6,10,8,-1,8,10,11,-1,8,11,12,-1,12,11,13,-1,12,13,14,-1,14,13,15,-1,14,15,16,-1,16,15,17,-1,16,17,18,-1,19,17,20,-1,19,20,21,-1,21,20,22,-1,21,22,23,-1,23,22,24,-1,23,24,25,-1,25,24,26,-1,25,26,27,-1,27,26,28,-1,27,28,29,-1,29,28,3,-1,29,3,1,-1,21,23,30,-1,30,23,31,-1,30,31,32,-1,32,31,33,-1,32,33,34,-1,34,33,35,-1,34,35,36,-1,36,35,37,-1,36,37,38,-1,38,37,39,-1,38,39,40,-1,23,25,31,-1,31,25,41,-1,31,41,33,-1,33,41,42,-1,33,42,35,-1,35,42,43,-1,35,43,37,-1,37,43,44,-1,37,44,39,-1,39,44,45,-1,39,45,40,-1,19,21,46,-1,46,21,30,-1,46,30,47,-1,47,30,32,-1,47,32,48,-1,48,32,34,-1,48,34,49,-1,49,34,36,-1,49,36,50,-1,50,36,38,-1,50,38,40,-1,27,29,51,-1,51,29,52,-1,51,52,53,-1,53,52,54,-1,53,54,55,-1,55,54,56,-1,55,56,57,-1,57,56,58,-1,57,58,59,-1,59,58,60,-1,59,60,40,-1,29,1,52,-1,52,1,61,-1,52,61,54,-1,54,61,62,-1,54,62,56,-1,56,62,63,-1,56,63,58,-1,58,63,64,-1,58,64,60,-1,60,64,65,-1,60,65,40,-1,25,27,41,-1,41,27,51,-1,41,51,42,-1,42,51,53,-1,42,53,43,-1,43,53,55,-1,43,55,44,-1,44,55,57,-1,44,57,45,-1,45,57,59,-1,45,59,40,-1,17,15,66,-1,67,68,69,-1,5,70,71,-1,69,68,5,-1,72,5,68,-1,72,68,73,-1,73,68,67,-1,73,67,74,-1,6,5,72,-1,75,76,77,-1,77,76,71,-1,77,71,78,-1,78,71,70,-1,78,70,79,-1,6,72,10,-1,10,72,73,-1,10,73,11,-1,11,73,74,-1,11,74,13,-1,80,75,81,-1,81,75,77,-1,81,77,82,-1,82,77,78,-1,82,78,83,-1,83,78,79,-1,83,79,84,-1,85,80,86,-1,86,80,81,-1,86,81,87,-1,87,81,82,-1,87,82,88,-1,88,82,83,-1,88,83,89,-1,89,83,84,-1,89,84,90,-1,15,85,66,-1,66,85,86,-1,66,86,91,-1,91,86,87,-1,91,87,92,-1,92,87,88,-1,92,88,93,-1,93,88,89,-1,93,89,94,-1,94,89,90,-1,94,90,95,-1,17,66,20,-1,20,66,91,-1,20,91,22,-1,22,91,92,-1,22,92,24,-1,24,92,93,-1,24,93,26,-1,26,93,94,-1,26,94,28,-1,28,94,95,-1,28,95,3,-1,76,5,71,-1,15,13,85,-1,85,13,74,-1,85,74,80,-1,80,74,67,-1,80,67,75,-1,75,67,69,-1,75,69,76,-1,76,69,5,-1,96,40,65,-1,96,65,97,-1,97,65,64,-1,97,64,98,-1,98,64,63,-1,98,63,99,-1,99,63,62,-1,99,62,100,-1,100,62,61,-1,100,61,101,-1,101,61,1,-1,101,1,0,-1,5,102,103,-1,5,103,70,-1,70,103,104,-1,70,104,79,-1,79,104,105,-1,79,105,84,-1,84,105,106,-1,84,106,90,-1,90,106,107,-1,90,107,95,-1,95,107,2,-1,95,2,3,-1,108,96,109,-1,110,111,112,-1,112,111,113,-1,111,114,113,-1,113,114,115,-1,113,115,116,-1,115,117,116,-1,116,117,118,-1,116,118,119,-1,118,120,119,-1,119,120,121,-1,119,121,122,-1,123,124,125,-1,125,124,126,-1,125,126,127,-1,127,126,128,-1,127,128,129,-1,129,128,130,-1,129,130,131,-1,131,130,132,-1,131,132,133,-1,133,132,134,-1,133,134,96,-1,124,135,126,-1,126,135,136,-1,126,136,128,-1,128,136,137,-1,128,137,130,-1,130,137,138,-1,130,138,132,-1,132,138,139,-1,132,139,134,-1,134,139,140,-1,134,140,96,-1,0,123,101,-1,101,123,125,-1,101,125,100,-1,100,125,127,-1,100,127,99,-1,99,127,129,-1,99,129,98,-1,98,129,131,-1,98,131,97,-1,97,131,133,-1,97,133,96,-1,141,112,142,-1,142,112,113,-1,142,113,143,-1,143,113,116,-1,143,116,144,-1,144,116,119,-1,144,119,145,-1,145,119,122,-1,145,122,146,-1,146,122,109,-1,146,109,96,-1,121,147,122,-1,122,147,148,-1,122,148,109,-1,109,148,149,-1,109,149,108,-1,135,141,136,-1,136,141,142,-1,136,142,137,-1,137,142,143,-1,137,143,138,-1,138,143,144,-1,138,144,139,-1,139,144,145,-1,139,145,140,-1,140,145,146,-1,140,146,96,-1,2,107,150,-1,107,106,151,-1,152,153,154,-1,154,153,102,-1,103,102,153,-1,155,102,156,-1,157,102,155,-1,103,153,104,-1,104,153,152,-1,104,152,105,-1,158,159,160,-1,160,159,157,-1,160,157,161,-1,161,157,155,-1,161,155,162,-1,156,163,155,-1,155,163,164,-1,155,164,162,-1,162,164,165,-1,162,165,166,-1,167,158,168,-1,168,158,160,-1,168,160,169,-1,169,160,161,-1,169,161,170,-1,170,161,162,-1,170,162,171,-1,171,162,166,-1,171,166,172,-1,106,167,151,-1,151,167,168,-1,151,168,173,-1,173,168,169,-1,173,169,174,-1,174,169,170,-1,174,170,175,-1,175,170,171,-1,175,171,176,-1,176,171,172,-1,176,172,177,-1,107,151,150,-1,150,151,173,-1,150,173,178,-1,178,173,174,-1,178,174,179,-1,179,174,175,-1,179,175,180,-1,180,175,176,-1,180,176,181,-1,159,102,157,-1,106,105,167,-1,167,105,152,-1,167,152,158,-1,158,152,154,-1,158,154,159,-1,159,154,102,-1,177,182,176,-1,176,182,183,-1,176,183,181,-1,181,183,184,-1,181,184,185,-1,2,150,186,-1,186,150,178,-1,186,178,187,-1,187,178,179,-1,187,179,188,-1,188,179,180,-1,188,180,189,-1,189,180,181,-1,189,181,190,-1,190,181,185,-1,190,185,191,-1,191,110,112,-1,191,112,190,-1,190,112,141,-1,190,141,189,-1,189,141,135,-1,189,135,188,-1,188,135,124,-1,188,124,187,-1,187,124,123,-1,187,123,186,-1,186,123,0,-1,186,0,2,-1,
        ]
    }
}
Shape{
    appearance Appearance {
        material  Material 	{
            diffuseColor 1.0 1.0 1.0
            specularColor 0.8784313725490196 0.8784313725490196 0.8784313725490196
            ambientIntensity 0.2
            transparency 0
            shininess 0.5
        }
    }
    geometry IndexedFaceSet {
        ccw TRUE
        solid FALSE
        coord DEF co Coordinate {
            point [
                -1.506 0.5963 0.2362, -1.506 0.5906 0.2362, -1.5056 0.5969 0.2352, -1.5051 0.5906 0.234, -1.5041 0.598 0.2319, -1.5042 0.5855 0.2321, -1.504 0.5859 0.2316, -1.5026 0.5984 0.2283, -1.5026 0.5884 0.2283, -1.5011 0.59 0.2245, -1.4994 0.5906 0.2205, -1.4746 0.5984 0.1443, -1.504 0.5859 -0.2316, -1.5042 0.5855 -0.2321, -1.5051 0.5906 -0.234, -1.4994 0.5906 -0.2205, -1.5011 0.59 -0.2245, -1.5026 0.5984 -0.2283, -1.4746 0.5906 -0.1443, -1.5026 0.5884 -0.2283, -1.506 0.5906 -0.2362, -1.506 0.5963 -0.2362, -1.5056 0.5969 -0.2352, -1.5041 0.598 -0.2319, -1.4746 0.5906 0.1443, -1.4587 0.5906 0.0486, -1.4587 0.5984 0.0486, -1.4587 0.5906 -0.0486, -1.4587 0.5984 -0.0486, -1.4746 0.5984 -0.1443, -1.506 0.595 0.2382, -1.506 0.5925 0.2407, -1.506 0.5906 0.242, -1.506 0.5906 -0.242, -1.506 0.5925 -0.2407, -1.506 0.595 -0.2382, -1.504 -0.5859 0.2316, -1.5042 -0.5855 0.2321, -1.5051 -0.5906 0.234, -1.4994 -0.5906 0.2205, -1.5011 -0.59 0.2245, -1.5026 -0.5984 0.2283, -1.4746 -0.5906 0.1443, -1.5026 -0.5884 0.2283, -1.5044 -0.5979 0.2324, -1.506 -0.5906 0.2362, -1.506 -0.5963 0.2362, -1.4746 -0.5984 -0.1443, -1.4587 -0.5906 -0.0486, -1.4587 -0.5984 -0.0486, -1.4587 -0.5906 0.0486, -1.4587 -0.5984 0.0486, -1.4746 -0.5984 0.1443, -1.5051 -0.5906 -0.234, -1.5042 -0.5855 -0.2321, -1.504 -0.5859 -0.2316, -1.506 -0.5963 -0.2362, -1.506 -0.5906 -0.2362, -1.5044 -0.5979 -0.2324, -1.5026 -0.5984 -0.2283, -1.5026 -0.5884 -0.2283, -1.5011 -0.59 -0.2245, -1.4994 -0.5906 -0.2205, -1.4746 -0.5906 -0.1443, -1.506 -0.5906 -0.242, -1.506 -0.5938 -0.2395, -1.506 -0.5938 0.2395, -1.506 -0.5906 0.242, -1.506 -0.5906 0.242
            ]
        }
        coordIndex [
            0,1,2,-1,2,1,3,-1,2,3,4,-1,3,5,6,-1,4,3,7,-1,7,3,6,-1,7,6,8,-1,8,9,7,-1,7,9,10,-1,7,10,11,-1,12,13,14,-1,15,16,17,-1,15,17,18,-1,12,14,19,-1,20,21,14,-1,14,21,22,-1,16,19,17,-1,17,19,14,-1,17,14,23,-1,23,14,22,-1,10,24,11,-1,11,24,25,-1,11,25,26,-1,26,25,27,-1,26,27,28,-1,28,27,18,-1,28,18,29,-1,29,18,17,-1,0,30,1,-1,1,30,31,-1,1,31,32,-1,33,34,20,-1,20,34,35,-1,20,35,21,-1,36,37,38,-1,39,40,41,-1,39,41,42,-1,36,38,43,-1,40,43,41,-1,41,43,38,-1,41,38,44,-1,44,38,45,-1,44,45,46,-1,47,48,49,-1,49,48,50,-1,49,50,51,-1,51,50,42,-1,51,42,52,-1,52,42,41,-1,53,54,55,-1,56,57,58,-1,58,57,53,-1,58,53,59,-1,59,53,55,-1,59,55,60,-1,60,61,59,-1,59,61,62,-1,59,62,47,-1,47,62,63,-1,47,63,48,-1,64,57,65,-1,65,57,56,-1,46,45,66,-1,66,45,67,-1,
        ]
    }
}
Shape{
    appearance Appearance {
        material  Material 	{
            diffuseColor 0.1843137254901961 0.5647058823529412 1.0
            specularColor 0.09411764705882353 0.2823529411764706 0.5019607843137255
            ambientIntensity 0.2
            transparency 0
            shininess 0.5
        }
    }
    geometry IndexedFaceSet {
        ccw TRUE
        solid FALSE
        coord DEF co Coordinate {
            point [
                -1.0149 0.5906 -0.2205, -0.5074 0.5906 -0.2205, -0.5074 0.59 -0.2245, 0.0 0.5906 -0.2205, 0.0 0.59 -0.2245, 0.5074 0.5906 -0.2205, 0.5074 0.59 -0.2245, 1.0149 0.5906 -0.2205, 1.0149 0.59 -0.2245, -1.4994 0.5906 -0.2205, -1.0149 0.59 -0.2245, -1.5011 0.59 -0.2245, -1.0149 0.5884 -0.2283, -1.5026 0.5884 -0.2283, -1.0149 0.5859 -0.2316, -1.504 0.5859 -0.2316, -1.5042 0.5855 -0.2321, -1.0149 0.5827 -0.2341, -1.5038 0.5827 -0.2341, -1.0149 0.5789 -0.2357, -1.5032 0.5789 -0.2357, -1.0149 0.5748 -0.2362, -1.5025 0.5748 -0.2362, 1.0149 0.5789 -0.2357, 1.0149 0.5827 -0.2341, 1.5032 0.5789 -0.2357, 1.5038 0.5827 -0.2341, 1.5042 0.5855 -0.2321, 1.0149 0.5859 -0.2316, 1.504 0.5859 -0.2316, 1.0149 0.5884 -0.2283, 1.5026 0.5884 -0.2283, 1.5011 0.59 -0.2245, 1.4994 0.5906 -0.2205, 0.5074 0.5884 -0.2283, 0.5074 0.5859 -0.2316, 0.5074 0.5827 -0.2341, 0.5074 0.5789 -0.2357, 0.0 0.5884 -0.2283, 0.0 0.5859 -0.2316, 0.0 0.5827 -0.2341, 0.0 0.5789 -0.2357, 1.5025 0.5748 -0.2362, 1.0149 0.5748 -0.2362, 0.5074 0.5748 -0.2362, 0.0 0.5748 -0.2362, -0.0151 0.5748 -0.2362, -0.5074 0.5884 -0.2283, -0.5074 0.5859 -0.2316, -0.5074 0.5827 -0.2341, -0.5074 0.5789 -0.2357, -0.5074 0.5748 -0.2362, 1.5042 -0.5855 -0.2321, 1.504 -0.5859 -0.2316, 1.0149 -0.5859 -0.2316, -1.5042 -0.5855 -0.2321, -1.5038 -0.5827 -0.2341, -1.0149 -0.5827 -0.2341, 1.5025 -0.5748 -0.2362, 1.5032 -0.5789 -0.2357, 1.0149 -0.5748 -0.2362, 1.0149 -0.5789 -0.2357, 0.5074 -0.5748 -0.2362, 0.5074 -0.5789 -0.2357, -0.0 -0.5748 -0.2362, -0.0 -0.5789 -0.2357, -0.0151 -0.5748 -0.2362, -0.5074 -0.5789 -0.2357, -1.5032 -0.5789 -0.2357, -1.5025 -0.5748 -0.2362, -1.0149 -0.5789 -0.2357, -1.0149 -0.5748 -0.2362, -0.5074 -0.5748 -0.2362, 1.5038 -0.5827 -0.2341, 1.0149 -0.5827 -0.2341, 0.5074 -0.5827 -0.2341, -0.0 -0.5827 -0.2341, -0.5074 -0.5827 -0.2341, 0.5074 -0.5859 -0.2316, -0.0 -0.5859 -0.2316, -0.5074 -0.5859 -0.2316, -1.0149 -0.5859 -0.2316, -1.504 -0.5859 -0.2316, 1.5026 -0.5884 -0.2283, 1.0149 -0.5884 -0.2283, 0.5074 -0.5884 -0.2283, -0.0 -0.5884 -0.2283, -0.5074 -0.5884 -0.2283, -1.0149 -0.5884 -0.2283, -1.5026 -0.5884 -0.2283, 1.5011 -0.59 -0.2245, 1.0149 -0.59 -0.2245, 0.5074 -0.59 -0.2245, -0.0 -0.59 -0.2245, -0.5074 -0.59 -0.2245, -1.0149 -0.59 -0.2245, -1.5011 -0.59 -0.2245, 1.4994 -0.5906 -0.2205, 1.0149 -0.5906 -0.2205, 0.5074 -0.5906 -0.2205, -0.0 -0.5906 -0.2205, -0.5074 -0.5906 -0.2205, -1.0149 -0.5906 -0.2205, -1.4994 -0.5906 -0.2205, 1.5042 -0.5855 0.2321, 1.5038 -0.5827 0.2341, 1.0149 -0.5827 0.2341, -1.5042 -0.5855 0.2321, -1.504 -0.5859 0.2316, -1.0149 -0.5859 0.2316, 1.4994 -0.5906 0.2205, 1.5011 -0.59 0.2245, 1.0149 -0.5906 0.2205, 1.0149 -0.59 0.2245, 0.5074 -0.5906 0.2205, 0.5074 -0.59 0.2245, 0.0 -0.5906 0.2205, 0.0 -0.59 0.2245, -0.5074 -0.5906 0.2205, -0.5074 -0.59 0.2245, -1.0149 -0.5906 0.2205, -1.0149 -0.59 0.2245, -1.4994 -0.5906 0.2205, -1.5011 -0.59 0.2245, 1.5026 -0.5884 0.2283, 1.0149 -0.5884 0.2283, 0.5074 -0.5884 0.2283, 0.0 -0.5884 0.2283, -0.5074 -0.5884 0.2283, -1.0149 -0.5884 0.2283, -1.5026 -0.5884 0.2283, 1.504 -0.5859 0.2316, 1.0149 -0.5859 0.2316, 0.5074 -0.5859 0.2316, 0.0 -0.5859 0.2316, -0.5074 -0.5859 0.2316, 0.5074 -0.5827 0.2341, 0.0 -0.5827 0.2341, -0.5074 -0.5827 0.2341, -1.0149 -0.5827 0.2341, -1.5038 -0.5827 0.2341, 1.5032 -0.5789 0.2357, 1.0149 -0.5789 0.2357, 0.5074 -0.5789 0.2357, 0.0 -0.5789 0.2357, -0.5074 -0.5789 0.2357, -1.0149 -0.5789 0.2357, -1.5032 -0.5789 0.2357, 1.5025 -0.5748 0.2362, 1.0149 -0.5748 0.2362, 0.5074 -0.5748 0.2362, 0.0 -0.5748 0.2362, -0.5074 -0.5748 0.2362, -1.0149 -0.5748 0.2362, -1.5025 -0.5748 0.2362, 1.5042 0.5855 0.2321, 1.504 0.5859 0.2316, 1.0149 0.5859 0.2316, -1.5042 0.5855 0.2321, -1.5038 0.5827 0.2341, -1.0149 0.5827 0.2341, 1.5025 0.5748 0.2362, 1.5032 0.5789 0.2357, 1.0149 0.5748 0.2362, 1.0149 0.5789 0.2357, 0.5074 0.5748 0.2362, 0.5074 0.5789 0.2357, -0.0 0.5748 0.2362, -0.0 0.5789 0.2357, -0.5074 0.5748 0.2362, -0.5074 0.5789 0.2357, -1.0149 0.5748 0.2362, -1.0149 0.5789 0.2357, -1.5025 0.5748 0.2362, -1.5032 0.5789 0.2357, 1.5038 0.5827 0.2341, 1.0149 0.5827 0.2341, 0.5074 0.5827 0.2341, -0.0 0.5827 0.2341, -0.5074 0.5827 0.2341, 0.5074 0.5859 0.2316, -0.0 0.5859 0.2316, -0.5074 0.5859 0.2316, -1.0149 0.5859 0.2316, -1.504 0.5859 0.2316, 1.5026 0.5884 0.2283, 1.0149 0.5884 0.2283, 0.5074 0.5884 0.2283, -0.0 0.5884 0.2283, -0.5074 0.5884 0.2283, -1.0149 0.5884 0.2283, -1.5026 0.5884 0.2283, 1.5011 0.59 0.2245, 1.0149 0.59 0.2245, 0.5074 0.59 0.2245, -0.0 0.59 0.2245, -0.5074 0.59 0.2245, -1.0149 0.59 0.2245, -1.5011 0.59 0.2245, 1.4994 0.5906 0.2205, 1.0149 0.5906 0.2205, 0.5074 0.5906 0.2205, -0.0 0.5906 0.2205, -0.5074 0.5906 0.2205, -1.0149 0.5906 0.2205, -1.4994 0.5906 0.2205, -1.4994 0.5906 0.2205
            ]
        }
        coordIndex [
            0,1,2,-1,1,3,4,-1,3,5,6,-1,5,7,8,-1,9,0,10,-1,9,10,11,-1,11,10,12,-1,11,12,13,-1,13,12,14,-1,13,14,15,-1,15,14,16,-1,16,14,17,-1,16,17,18,-1,18,17,19,-1,18,19,20,-1,20,19,21,-1,20,21,22,-1,23,24,25,-1,25,24,26,-1,26,24,27,-1,27,24,28,-1,27,28,29,-1,29,28,30,-1,29,30,31,-1,31,30,8,-1,31,8,32,-1,32,8,7,-1,32,7,33,-1,5,8,6,-1,6,8,30,-1,6,30,34,-1,34,30,28,-1,34,28,35,-1,35,28,24,-1,35,24,36,-1,36,24,23,-1,36,23,37,-1,3,6,4,-1,4,6,34,-1,4,34,38,-1,38,34,35,-1,38,35,39,-1,39,35,36,-1,39,36,40,-1,40,36,37,-1,40,37,41,-1,25,42,23,-1,23,42,43,-1,23,43,37,-1,37,43,44,-1,37,44,41,-1,41,44,45,-1,41,45,46,-1,1,4,2,-1,2,4,38,-1,2,38,47,-1,47,38,39,-1,47,39,48,-1,48,39,40,-1,48,40,49,-1,49,40,41,-1,49,41,50,-1,50,41,46,-1,50,46,51,-1,0,2,10,-1,10,2,47,-1,10,47,12,-1,12,47,48,-1,12,48,14,-1,14,48,49,-1,14,49,17,-1,17,49,50,-1,17,50,19,-1,19,50,51,-1,19,51,21,-1,52,53,54,-1,55,56,57,-1,58,59,60,-1,60,59,61,-1,60,61,62,-1,62,61,63,-1,62,63,64,-1,64,63,65,-1,64,65,66,-1,66,65,67,-1,68,69,70,-1,70,69,71,-1,70,71,67,-1,67,71,72,-1,67,72,66,-1,59,73,61,-1,61,73,74,-1,61,74,63,-1,63,74,75,-1,63,75,65,-1,65,75,76,-1,65,76,67,-1,67,76,77,-1,67,77,70,-1,70,77,57,-1,70,57,68,-1,68,57,56,-1,73,52,74,-1,74,52,54,-1,74,54,75,-1,75,54,78,-1,75,78,76,-1,76,78,79,-1,76,79,77,-1,77,79,80,-1,77,80,57,-1,57,80,81,-1,57,81,55,-1,55,81,82,-1,53,83,54,-1,54,83,84,-1,54,84,78,-1,78,84,85,-1,78,85,79,-1,79,85,86,-1,79,86,80,-1,80,86,87,-1,80,87,81,-1,81,87,88,-1,81,88,82,-1,82,88,89,-1,83,90,84,-1,84,90,91,-1,84,91,85,-1,85,91,92,-1,85,92,86,-1,86,92,93,-1,86,93,87,-1,87,93,94,-1,87,94,88,-1,88,94,95,-1,88,95,89,-1,89,95,96,-1,90,97,91,-1,91,97,98,-1,91,98,92,-1,92,98,99,-1,92,99,93,-1,93,99,100,-1,93,100,94,-1,94,100,101,-1,94,101,95,-1,95,101,102,-1,95,102,96,-1,96,102,103,-1,104,105,106,-1,107,108,109,-1,110,111,112,-1,112,111,113,-1,112,113,114,-1,114,113,115,-1,114,115,116,-1,116,115,117,-1,116,117,118,-1,118,117,119,-1,118,119,120,-1,120,119,121,-1,120,121,122,-1,122,121,123,-1,111,124,113,-1,113,124,125,-1,113,125,115,-1,115,125,126,-1,115,126,117,-1,117,126,127,-1,117,127,119,-1,119,127,128,-1,119,128,121,-1,121,128,129,-1,121,129,123,-1,123,129,130,-1,124,131,125,-1,125,131,132,-1,125,132,126,-1,126,132,133,-1,126,133,127,-1,127,133,134,-1,127,134,128,-1,128,134,135,-1,128,135,129,-1,129,135,109,-1,129,109,130,-1,130,109,108,-1,131,104,132,-1,132,104,106,-1,132,106,133,-1,133,106,136,-1,133,136,134,-1,134,136,137,-1,134,137,135,-1,135,137,138,-1,135,138,109,-1,109,138,139,-1,109,139,107,-1,107,139,140,-1,105,141,106,-1,106,141,142,-1,106,142,136,-1,136,142,143,-1,136,143,137,-1,137,143,144,-1,137,144,138,-1,138,144,145,-1,138,145,139,-1,139,145,146,-1,139,146,140,-1,140,146,147,-1,141,148,142,-1,142,148,149,-1,142,149,143,-1,143,149,150,-1,143,150,144,-1,144,150,151,-1,144,151,145,-1,145,151,152,-1,145,152,146,-1,146,152,153,-1,146,153,147,-1,147,153,154,-1,155,156,157,-1,158,159,160,-1,161,162,163,-1,163,162,164,-1,163,164,165,-1,165,164,166,-1,165,166,167,-1,167,166,168,-1,167,168,169,-1,169,168,170,-1,169,170,171,-1,171,170,172,-1,171,172,173,-1,173,172,174,-1,162,175,164,-1,164,175,176,-1,164,176,166,-1,166,176,177,-1,166,177,168,-1,168,177,178,-1,168,178,170,-1,170,178,179,-1,170,179,172,-1,172,179,160,-1,172,160,174,-1,174,160,159,-1,175,155,176,-1,176,155,157,-1,176,157,177,-1,177,157,180,-1,177,180,178,-1,178,180,181,-1,178,181,179,-1,179,181,182,-1,179,182,160,-1,160,182,183,-1,160,183,158,-1,158,183,184,-1,156,185,157,-1,157,185,186,-1,157,186,180,-1,180,186,187,-1,180,187,181,-1,181,187,188,-1,181,188,182,-1,182,188,189,-1,182,189,183,-1,183,189,190,-1,183,190,184,-1,184,190,191,-1,185,192,186,-1,186,192,193,-1,186,193,187,-1,187,193,194,-1,187,194,188,-1,188,194,195,-1,188,195,189,-1,189,195,196,-1,189,196,190,-1,190,196,197,-1,190,197,191,-1,191,197,198,-1,192,199,193,-1,193,199,200,-1,193,200,194,-1,194,200,201,-1,194,201,195,-1,195,201,202,-1,195,202,196,-1,196,202,203,-1,196,203,197,-1,197,203,204,-1,197,204,198,-1,198,204,205,-1,
        ]
    }
}