#VRML V2.0 utf8
# 3D model generated by easyeda2kicad.py (https://github.com/uPesy/easyeda2kicad.py)

Shape{
    appearance Appearance {
        material  Material 	{
            diffuseColor 0.6666666666666666 0.6980392156862745 0.7686274509803922
            specularColor 0.3333333333333333 0.34901960784313724 0.3843137254901961
            ambientIntensity 0.2
            transparency 0
            shininess 0.5
        }
    }
    geometry IndexedFaceSet {
        ccw TRUE
        solid FALSE
        coord DEF co Coordinate {
            point [
                0.0728 0.1083 -0.0, 0.1483 0.1083 0.0, 0.0728 0.1083 -0.0079, 0.1483 0.1083 -0.0079, 0.2067 -0.1083 0.0512, 0.2067 -0.1083 0.0315, 0.2087 -0.1083 0.0512, 0.2146 -0.1083 0.0315, 0.2146 -0.1083 0.0453, 0.2144 -0.1083 0.0466, 0.214 -0.1083 0.0478, 0.2133 -0.1083 0.049, 0.2123 -0.1083 0.0499, 0.21 -0.1083 0.051, 0.2112 -0.1083 0.0506, 0.0728 -0.1083 -0.0, 0.1804 0.0831 -0.0, 0.1775 0.0886 -0.0, 0.1891 0.0743 -0.0, 0.1843 0.0782 -0.0, 0.1946 -0.0713 -0.0, 0.1891 -0.0743 -0.0, 0.1843 -0.0782 -0.0, 0.1804 -0.0831 -0.0, 0.1775 -0.0886 -0.0, 0.1483 -0.1083 -0.0, 0.1746 -0.0941 -0.0, 0.1746 0.0941 -0.0, 0.1707 0.0989 -0.0, 0.1659 0.1029 -0.0, 0.1604 -0.1058 -0.0, 0.1659 -0.1029 -0.0, 0.1707 -0.0989 -0.0, 0.2067 -0.0689 -0.0, 0.2067 0.0689 -0.0, 0.2005 -0.0695 -0.0, 0.2005 0.0695 -0.0, 0.1946 0.0713 -0.0, 0.1604 0.1058 -0.0, 0.1545 0.1077 -0.0, 0.1545 -0.1077 -0.0, 0.0728 -0.1083 -0.0079, 0.1483 -0.1083 -0.0079, 0.1775 -0.0886 -0.0079, 0.1804 0.0831 -0.0079, 0.1843 0.0782 -0.0079, 0.1545 0.1077 -0.0079, 0.1707 0.0989 -0.0079, 0.1746 0.0941 -0.0079, 0.1775 0.0886 -0.0079, 0.1891 0.0743 -0.0079, 0.1946 -0.0713 -0.0079, 0.1946 0.0713 -0.0079, 0.2005 0.0695 -0.0079, 0.1891 -0.0743 -0.0079, 0.1843 -0.0782 -0.0079, 0.1804 -0.0831 -0.0079, 0.1604 0.1058 -0.0079, 0.1659 0.1029 -0.0079, 0.2087 0.0689 -0.0079, 0.2087 -0.0689 -0.0079, 0.2067 0.0689 -0.0079, 0.2067 -0.0689 -0.0079, 0.2005 -0.0695 -0.0079, 0.1707 -0.0989 -0.0079, 0.1659 -0.1029 -0.0079, 0.1604 -0.1058 -0.0079, 0.1746 -0.0941 -0.0079, 0.1545 -0.1077 -0.0079, 0.2146 0.0689 -0.002, 0.2146 -0.0689 -0.002, 0.2144 -0.0689 -0.0033, 0.2144 0.0689 -0.0033, 0.214 -0.0689 -0.0045, 0.214 0.0689 -0.0045, 0.2133 -0.0689 -0.0057, 0.2133 0.0689 -0.0057, 0.2123 -0.0689 -0.0066, 0.2123 0.0689 -0.0066, 0.2112 -0.0689 -0.0073, 0.2112 0.0689 -0.0073, 0.21 -0.0689 -0.0077, 0.21 0.0689 -0.0077, 0.2146 0.1004 0.0315, 0.2146 0.1083 0.0315, 0.2146 0.1083 0.0453, 0.2146 -0.0829 0.0262, 0.2146 -0.0781 0.0223, 0.2146 -0.0742 0.0175, 0.2146 -0.0713 0.0121, 0.2146 -0.0695 0.0061, 0.2146 0.0781 0.0223, 0.2146 0.0742 0.0175, 0.2146 0.0713 0.0121, 0.2146 -0.1004 0.0315, 0.2146 -0.0942 0.0309, 0.2146 -0.0883 0.0291, 0.2146 -0.0689 -0.0, 0.2146 0.0689 -0.0, 0.2146 0.0695 0.0061, 0.2146 0.0829 0.0262, 0.2146 0.0883 0.0291, 0.2146 0.0942 0.0309, 0.2087 0.1083 0.0512, 0.21 0.1083 0.051, 0.2112 0.1083 0.0506, 0.2123 0.1083 0.0499, 0.2133 0.1083 0.049, 0.214 0.1083 0.0478, 0.2144 0.1083 0.0466, 0.2067 0.1083 0.0512, 0.2067 -0.1004 0.0315, 0.2067 0.1083 0.0315, 0.2067 0.1004 0.0315, 0.2067 -0.0781 0.0223, 0.2067 -0.0829 0.0262, 0.2067 -0.0883 0.0291, 0.2067 -0.0942 0.0309, 0.2067 0.0942 0.0309, 0.2067 0.0883 0.0291, 0.2067 0.0829 0.0262, 0.2067 0.0781 0.0223, 0.2067 0.0695 0.0061, 0.2067 -0.0695 0.0061, 0.2067 0.0742 0.0175, 0.2067 0.0713 0.0121, 0.2067 -0.0742 0.0175, 0.2067 -0.0713 0.0121, -0.1122 0.1083 -0.0079, -0.1483 0.1083 -0.0079, -0.1122 0.1083 0.0, -0.1483 0.1083 0.0, -0.2067 -0.1083 0.0315, -0.2067 -0.1083 0.0512, -0.2087 -0.1083 0.0512, -0.21 -0.1083 0.051, -0.2112 -0.1083 0.0506, -0.2123 -0.1083 0.0499, -0.2146 -0.1083 0.0315, -0.2146 -0.1083 0.0453, -0.2144 -0.1083 0.0466, -0.214 -0.1083 0.0478, -0.2133 -0.1083 0.049, -0.2005 0.0695 -0.0, -0.2067 0.0689 -0.0, -0.2067 -0.0689 -0.0, -0.1946 -0.0713 -0.0, -0.1843 0.0782 -0.0, -0.1891 0.0743 -0.0, -0.1843 -0.0782 -0.0, -0.1804 -0.0831 -0.0, -0.0728 0.0689 -0.0, -0.1775 -0.0886 -0.0, -0.2005 -0.0695 -0.0, -0.1946 0.0713 -0.0, -0.1804 0.0831 -0.0, -0.1775 0.0886 -0.0, -0.1746 0.0941 -0.0, -0.103 0.083 -0.0, -0.1069 0.0886 -0.0, -0.1659 -0.1029 -0.0, -0.1604 -0.1058 -0.0, -0.1545 0.1077 -0.0, -0.1604 0.1058 -0.0, -0.1659 0.1029 -0.0, -0.0797 0.0695 -0.0, -0.0863 0.0713 -0.0, -0.1891 -0.0743 -0.0, -0.0925 0.0742 -0.0, -0.0981 0.0781 -0.0, -0.1098 0.0948 -0.0, -0.1116 0.1014 -0.0, -0.1545 -0.1077 -0.0, -0.1483 -0.1083 -0.0, -0.0728 -0.1083 -0.0, -0.1707 0.0989 -0.0, -0.1746 -0.0941 -0.0, -0.1707 -0.0989 -0.0, -0.0728 -0.1083 -0.0079, -0.0728 0.0689 -0.0079, -0.1804 -0.0831 -0.0079, -0.1843 -0.0782 -0.0079, -0.0797 0.0695 -0.0079, -0.1946 -0.0713 -0.0079, -0.2005 0.0695 -0.0079, -0.1946 0.0713 -0.0079, -0.2067 -0.0689 -0.0079, -0.2087 -0.0689 -0.0079, -0.2087 0.0689 -0.0079, -0.1891 0.0743 -0.0079, -0.1843 0.0782 -0.0079, -0.1116 0.1014 -0.0079, -0.1098 0.0948 -0.0079, -0.1069 0.0886 -0.0079, -0.2005 -0.0695 -0.0079, -0.2067 0.0689 -0.0079, -0.1483 -0.1083 -0.0079, -0.1545 -0.1077 -0.0079, -0.103 0.083 -0.0079, -0.0981 0.0781 -0.0079, -0.1891 -0.0743 -0.0079, -0.0925 0.0742 -0.0079, -0.0863 0.0713 -0.0079, -0.1604 -0.1058 -0.0079, -0.1659 -0.1029 -0.0079, -0.1707 -0.0989 -0.0079, -0.1746 -0.0941 -0.0079, -0.1775 -0.0886 -0.0079, -0.1604 0.1058 -0.0079, -0.1545 0.1077 -0.0079, -0.1659 0.1029 -0.0079, -0.1707 0.0989 -0.0079, -0.1804 0.0831 -0.0079, -0.1775 0.0886 -0.0079, -0.1746 0.0941 -0.0079, -0.21 -0.0689 -0.0077, -0.21 0.0689 -0.0077, -0.2112 -0.0689 -0.0073, -0.2112 0.0689 -0.0073, -0.2123 -0.0689 -0.0066, -0.2123 0.0689 -0.0066, -0.2133 -0.0689 -0.0057, -0.2133 0.0689 -0.0057, -0.214 -0.0689 -0.0045, -0.214 0.0689 -0.0045, -0.2144 -0.0689 -0.0033, -0.2144 0.0689 -0.0033, -0.2146 -0.0689 -0.002, -0.2146 0.0689 -0.002, -0.2146 -0.1004 0.0315, -0.2146 -0.0781 0.0223, -0.2146 0.1083 0.0453, -0.2146 -0.0742 0.0175, -0.2146 -0.0713 0.0121, -0.2146 0.1083 0.0315, -0.2146 0.1004 0.0315, -0.2146 0.0942 0.0309, -0.2146 0.0883 0.0291, -0.2146 0.0829 0.0262, -0.2146 0.0781 0.0223, -0.2146 -0.0829 0.0262, -0.2146 -0.0883 0.0291, -0.2146 -0.0942 0.0309, -0.2146 0.0742 0.0175, -0.2146 0.0713 0.0121, -0.2146 0.0695 0.0061, -0.2146 0.0689 0.0, -0.2146 -0.0689 -0.0, -0.2146 -0.0695 0.0061, -0.2144 0.1083 0.0466, -0.214 0.1083 0.0478, -0.2133 0.1083 0.049, -0.2123 0.1083 0.0499, -0.2112 0.1083 0.0506, -0.21 0.1083 0.051, -0.2087 0.1083 0.0512, -0.2067 0.1083 0.0512, -0.2067 -0.1004 0.0315, -0.2067 -0.0942 0.0309, -0.2067 -0.0883 0.0291, -0.2067 -0.0829 0.0262, -0.2067 -0.0781 0.0223, -0.2067 -0.0742 0.0175, -0.2067 -0.0713 0.0121, -0.2067 -0.0695 0.0061, -0.2067 0.0695 0.0061, -0.2067 0.0713 0.0121, -0.2067 0.0742 0.0175, -0.2067 0.0781 0.0223, -0.2067 0.0829 0.0262, -0.2067 0.0883 0.0291, -0.2067 0.0942 0.0309, -0.2067 0.1004 0.0315, -0.2067 0.1083 0.0315, -0.2067 0.1083 0.0315
            ]
        }
        coordIndex [
            0,1,2,-1,2,1,3,-1,4,5,6,-1,6,5,7,-1,7,8,6,-1,6,8,9,-1,6,9,10,-1,10,11,6,-1,6,11,12,-1,6,12,13,-1,13,12,14,-1,1,0,15,-1,15,16,17,-1,18,19,20,-1,20,19,16,-1,20,16,21,-1,21,16,22,-1,22,16,23,-1,23,16,15,-1,23,15,24,-1,24,15,25,-1,24,25,26,-1,17,27,15,-1,15,27,28,-1,15,28,29,-1,30,31,32,-1,33,34,35,-1,35,34,36,-1,35,36,20,-1,20,36,37,-1,20,37,18,-1,29,38,15,-1,15,38,39,-1,15,39,1,-1,26,25,32,-1,32,25,40,-1,32,40,30,-1,0,2,15,-1,15,2,41,-1,42,41,43,-1,41,44,45,-1,2,3,41,-1,41,3,46,-1,47,48,41,-1,41,48,49,-1,41,49,44,-1,45,50,51,-1,51,50,52,-1,51,52,53,-1,51,54,45,-1,45,54,55,-1,45,55,41,-1,41,55,56,-1,41,56,43,-1,46,57,41,-1,41,57,58,-1,41,58,47,-1,59,60,61,-1,61,60,62,-1,61,62,53,-1,53,62,63,-1,53,63,51,-1,64,65,66,-1,43,67,42,-1,42,67,64,-1,42,64,68,-1,68,64,66,-1,69,70,71,-1,69,71,72,-1,72,71,73,-1,72,73,74,-1,74,73,75,-1,74,75,76,-1,76,75,77,-1,76,77,78,-1,78,77,79,-1,78,79,80,-1,80,79,81,-1,80,81,82,-1,82,81,60,-1,82,60,59,-1,83,84,85,-1,86,87,85,-1,87,88,85,-1,85,88,89,-1,85,89,90,-1,91,90,92,-1,92,90,93,-1,7,94,8,-1,8,94,95,-1,8,95,85,-1,85,95,96,-1,85,96,86,-1,70,69,97,-1,97,69,98,-1,97,98,90,-1,90,98,99,-1,90,99,93,-1,91,100,90,-1,90,100,101,-1,90,101,85,-1,85,101,102,-1,85,102,83,-1,103,6,13,-1,103,13,104,-1,104,13,14,-1,104,14,105,-1,105,14,12,-1,105,12,106,-1,106,12,11,-1,106,11,107,-1,107,11,10,-1,107,10,108,-1,108,10,9,-1,108,9,109,-1,109,9,8,-1,109,8,85,-1,103,110,6,-1,6,110,4,-1,111,5,4,-1,110,112,113,-1,114,115,110,-1,110,115,116,-1,110,116,4,-1,4,116,117,-1,4,117,111,-1,113,118,110,-1,110,118,119,-1,110,119,114,-1,114,119,120,-1,114,120,121,-1,34,33,122,-1,122,33,123,-1,121,124,114,-1,114,124,125,-1,114,125,126,-1,126,125,122,-1,126,122,127,-1,127,122,123,-1,85,84,112,-1,104,105,106,-1,112,110,85,-1,85,110,103,-1,85,103,109,-1,109,103,108,-1,104,106,103,-1,103,106,107,-1,103,107,108,-1,41,42,15,-1,15,42,25,-1,24,43,23,-1,23,43,56,-1,23,56,22,-1,22,56,55,-1,22,55,21,-1,21,55,54,-1,21,54,20,-1,20,54,51,-1,20,51,35,-1,35,51,63,-1,35,63,33,-1,33,63,62,-1,70,97,33,-1,62,60,33,-1,33,60,81,-1,81,79,33,-1,33,79,77,-1,33,77,75,-1,75,73,33,-1,33,73,71,-1,33,71,70,-1,5,111,7,-1,7,111,94,-1,34,61,36,-1,36,61,53,-1,36,53,37,-1,37,53,52,-1,37,52,18,-1,18,52,50,-1,18,50,19,-1,19,50,45,-1,19,45,16,-1,16,45,44,-1,16,44,17,-1,17,44,49,-1,98,69,34,-1,34,69,72,-1,78,80,34,-1,80,82,34,-1,34,82,59,-1,34,59,61,-1,72,74,34,-1,34,74,76,-1,34,76,78,-1,84,83,112,-1,112,83,113,-1,25,42,68,-1,25,68,40,-1,40,68,66,-1,40,66,30,-1,30,66,65,-1,30,65,31,-1,31,65,64,-1,31,64,32,-1,32,64,67,-1,32,67,26,-1,26,67,43,-1,26,43,24,-1,17,49,48,-1,17,48,27,-1,27,48,47,-1,27,47,28,-1,28,47,58,-1,28,58,29,-1,29,58,57,-1,29,57,38,-1,38,57,46,-1,38,46,39,-1,39,46,3,-1,39,3,1,-1,94,111,95,-1,95,111,117,-1,95,117,96,-1,96,117,116,-1,96,116,86,-1,86,116,115,-1,86,115,87,-1,87,115,114,-1,87,114,88,-1,88,114,126,-1,88,126,89,-1,89,126,127,-1,89,127,90,-1,90,127,123,-1,90,123,97,-1,97,123,33,-1,98,34,99,-1,99,34,122,-1,99,122,93,-1,93,122,125,-1,93,125,92,-1,92,125,124,-1,92,124,91,-1,91,124,121,-1,91,121,100,-1,100,121,120,-1,100,120,101,-1,101,120,119,-1,101,119,102,-1,102,119,118,-1,102,118,83,-1,83,118,113,-1,128,129,130,-1,130,129,131,-1,132,133,134,-1,135,136,137,-1,138,132,139,-1,139,132,134,-1,139,134,140,-1,140,134,141,-1,135,137,134,-1,134,137,142,-1,134,142,141,-1,143,144,145,-1,146,147,148,-1,149,150,151,-1,151,150,152,-1,145,153,143,-1,143,153,146,-1,143,146,154,-1,154,146,148,-1,147,146,155,-1,155,146,130,-1,155,130,156,-1,156,130,131,-1,156,131,157,-1,158,159,146,-1,160,161,151,-1,162,163,164,-1,151,165,149,-1,149,165,166,-1,149,166,167,-1,167,166,168,-1,167,168,146,-1,146,168,169,-1,146,169,158,-1,159,170,146,-1,146,170,171,-1,146,171,130,-1,161,172,151,-1,151,172,173,-1,151,173,174,-1,162,164,131,-1,131,164,175,-1,131,175,157,-1,152,176,151,-1,151,176,177,-1,151,177,160,-1,174,178,151,-1,151,178,179,-1,180,181,179,-1,179,181,182,-1,183,184,185,-1,186,187,188,-1,185,189,183,-1,183,189,190,-1,183,190,128,-1,128,191,183,-1,183,191,192,-1,183,192,193,-1,183,194,184,-1,184,194,186,-1,184,186,195,-1,195,186,188,-1,178,196,179,-1,179,196,197,-1,193,198,183,-1,183,198,199,-1,183,199,200,-1,200,199,201,-1,200,201,181,-1,181,201,202,-1,181,202,182,-1,197,203,179,-1,179,203,204,-1,179,204,205,-1,205,206,179,-1,179,206,207,-1,179,207,180,-1,208,209,210,-1,210,209,129,-1,210,129,211,-1,190,212,128,-1,128,212,213,-1,128,213,129,-1,129,213,214,-1,129,214,211,-1,188,187,215,-1,188,215,216,-1,216,215,217,-1,216,217,218,-1,218,217,219,-1,218,219,220,-1,220,219,221,-1,220,221,222,-1,222,221,223,-1,222,223,224,-1,224,223,225,-1,224,225,226,-1,226,225,227,-1,226,227,228,-1,229,138,139,-1,230,231,232,-1,232,231,233,-1,231,234,235,-1,235,236,231,-1,231,236,237,-1,231,237,233,-1,233,237,238,-1,233,238,239,-1,230,240,231,-1,231,240,241,-1,231,241,139,-1,139,241,242,-1,139,242,229,-1,239,243,233,-1,233,243,244,-1,233,244,245,-1,228,227,246,-1,246,227,247,-1,246,247,245,-1,245,247,248,-1,245,248,233,-1,231,139,140,-1,231,140,249,-1,249,140,141,-1,249,141,250,-1,250,141,142,-1,250,142,251,-1,251,142,137,-1,251,137,252,-1,252,137,136,-1,252,136,253,-1,253,136,135,-1,253,135,254,-1,254,135,134,-1,254,134,255,-1,256,255,133,-1,133,255,134,-1,132,257,133,-1,133,257,258,-1,133,258,256,-1,256,258,259,-1,256,259,260,-1,260,261,256,-1,256,261,262,-1,256,262,263,-1,145,144,264,-1,264,144,265,-1,264,265,263,-1,263,265,266,-1,263,266,267,-1,267,268,263,-1,263,268,269,-1,263,269,256,-1,256,269,270,-1,270,271,256,-1,256,271,272,-1,256,272,273,-1,256,273,255,-1,255,273,234,-1,234,231,255,-1,255,231,249,-1,255,249,250,-1,250,251,255,-1,255,251,252,-1,255,252,254,-1,254,252,253,-1,196,178,173,-1,173,178,174,-1,145,186,153,-1,153,186,194,-1,153,194,146,-1,146,194,183,-1,146,183,167,-1,167,183,200,-1,167,200,149,-1,149,200,181,-1,149,181,150,-1,150,181,180,-1,150,180,152,-1,152,180,207,-1,247,227,145,-1,145,227,225,-1,145,219,217,-1,225,223,145,-1,145,223,221,-1,145,221,219,-1,217,215,145,-1,145,215,187,-1,145,187,186,-1,257,132,229,-1,229,132,138,-1,156,213,155,-1,155,213,212,-1,155,212,147,-1,147,212,190,-1,147,190,148,-1,148,190,189,-1,148,189,154,-1,154,189,185,-1,154,185,143,-1,143,185,184,-1,143,184,144,-1,144,184,195,-1,228,246,144,-1,195,188,144,-1,144,188,216,-1,216,218,144,-1,144,218,220,-1,144,220,222,-1,222,224,144,-1,144,224,226,-1,144,226,228,-1,235,234,272,-1,272,234,273,-1,152,207,206,-1,152,206,176,-1,176,206,205,-1,176,205,177,-1,177,205,204,-1,177,204,160,-1,160,204,203,-1,160,203,161,-1,161,203,197,-1,161,197,172,-1,172,197,196,-1,172,196,173,-1,131,129,209,-1,131,209,162,-1,162,209,208,-1,162,208,163,-1,163,208,210,-1,163,210,164,-1,164,210,211,-1,164,211,175,-1,175,211,214,-1,175,214,157,-1,157,214,213,-1,157,213,156,-1,247,145,248,-1,248,145,264,-1,248,264,233,-1,233,264,263,-1,233,263,232,-1,232,263,262,-1,232,262,230,-1,230,262,261,-1,230,261,240,-1,240,261,260,-1,240,260,241,-1,241,260,259,-1,241,259,242,-1,242,259,258,-1,242,258,229,-1,229,258,257,-1,235,272,236,-1,236,272,271,-1,236,271,237,-1,237,271,270,-1,237,270,238,-1,238,270,269,-1,238,269,239,-1,239,269,268,-1,239,268,243,-1,243,268,267,-1,243,267,244,-1,244,267,266,-1,244,266,245,-1,245,266,265,-1,245,265,246,-1,246,265,144,-1,151,179,165,-1,165,179,182,-1,165,182,166,-1,166,182,202,-1,166,202,168,-1,168,202,201,-1,168,201,169,-1,169,201,199,-1,169,199,158,-1,158,199,198,-1,158,198,159,-1,159,198,193,-1,159,193,170,-1,170,193,192,-1,170,192,171,-1,171,192,191,-1,171,191,130,-1,130,191,128,-1,
        ]
    }
}
Shape{
    appearance Appearance {
        material  Material 	{
            diffuseColor 0.2235294117647059 0.2235294117647059 0.2235294117647059
            specularColor 0.11372549019607843 0.11372549019607843 0.11372549019607843
            ambientIntensity 0.2
            transparency 0
            shininess 0.5
        }
    }
    geometry IndexedFaceSet {
        ccw TRUE
        solid FALSE
        coord DEF co Coordinate {
            point [
                -0.0591 -0.128 0.0332, -0.0591 -0.128 0.0226, -0.0334 -0.128 0.0226, -0.0591 -0.128 0.0756, -0.0591 -0.128 0.0677, -0.0334 -0.128 0.0677, -0.0232 -0.128 0.1025, -0.0212 -0.128 0.1027, -0.0318 -0.128 0.1027, -0.0164 -0.128 0.0757, -0.0181 -0.128 0.0756, -0.0092 -0.128 0.0756, -0.0042 -0.128 0.0994, -0.0042 -0.128 0.0909, 0.003 -0.128 0.0909, -0.0092 -0.128 0.0437, -0.0092 -0.128 0.0438, -0.0092 -0.128 0.0367, -0.0027 -0.128 0.0333, -0.0036 -0.128 0.0332, 0.003 -0.128 0.0332, -0.0085 -0.128 0.0333, -0.0092 -0.128 0.0336, -0.0092 -0.128 0.0332, 0.0292 -0.128 0.0455, 0.0292 -0.128 0.0365, 0.0342 -0.128 0.0365, -0.191 -0.128 0.0655, -0.1906 -0.128 0.0677, -0.1989 -0.128 0.0677, -0.0823 -0.128 0.0817, -0.0771 -0.128 0.0773, -0.0591 -0.128 0.1027, -0.0923 -0.128 0.0918, -0.0973 -0.128 0.098, -0.0991 -0.128 0.0998, -0.0888 -0.128 0.0848, -0.0879 -0.128 0.0845, -0.1477 -0.128 0.1022, -0.1469 -0.128 0.1027, -0.1989 -0.128 0.1027, -0.1662 -0.128 0.2083, -0.1989 -0.128 0.2087, -0.1662 -0.128 0.2087, -0.1221 -0.128 0.1095, -0.1139 -0.128 0.108, -0.1247 -0.128 0.2083, -0.1061 -0.128 0.1047, -0.1033 -0.128 0.1027, -0.1407 -0.128 0.1062, -0.133 -0.128 0.1088, -0.1249 -0.128 0.1096, -0.1822 -0.128 0.0852, -0.1806 -0.128 0.0866, -0.1745 -0.128 0.0908, -0.1676 -0.128 0.0934, -0.1604 -0.128 0.0943, -0.1521 -0.128 0.0984, -0.1582 -0.128 0.0941, -0.156 -0.128 0.0939, -0.1989 -0.128 0.0756, -0.1897 -0.128 0.0728, -0.1884 -0.128 0.0756, -0.1867 -0.128 0.0794, -0.168 -0.128 0.0337, -0.171 -0.128 0.0347, -0.1989 -0.128 0.0332, -0.1775 -0.128 0.038, -0.1831 -0.128 0.0428, -0.1838 -0.128 0.0436, -0.1877 -0.128 0.0494, -0.1902 -0.128 0.0563, -0.1911 -0.128 0.0635, -0.1595 -0.128 0.0234, -0.1632 -0.128 0.0262, -0.1989 -0.128 0.0226, -0.1661 -0.128 0.0296, -0.1677 -0.128 0.0332, -0.1421 -0.128 0.0226, -0.1453 -0.128 0.0214, -0.0591 -0.128 0.0, -0.1499 -0.128 0.0208, -0.1989 -0.128 0.0, -0.1507 -0.128 0.0208, -0.1551 -0.128 0.0215, -0.1578 -0.128 0.0226, -0.1322 -0.128 0.0332, -0.1322 -0.128 0.0331, -0.1344 -0.128 0.0289, -0.1373 -0.128 0.0257, -0.1411 -0.128 0.023, -0.0709 -0.128 0.0661, -0.07 -0.128 0.0599, -0.0771 -0.128 0.0419, -0.0822 -0.128 0.0375, -0.1357 -0.128 0.0525, -0.1103 -0.128 0.0658, -0.139 -0.128 0.0555, -0.1431 -0.128 0.0577, -0.1079 -0.128 0.0444, -0.1066 -0.128 0.0449, -0.1044 -0.128 0.0557, -0.0733 -0.128 0.0471, -0.0819 -0.128 0.0614, -0.0828 -0.128 0.0651, -0.0843 -0.128 0.0677, -0.1787 -0.128 0.0677, -0.109 -0.128 0.0436, -0.0709 -0.128 0.0531, -0.1776 -0.128 0.0563, -0.1753 -0.128 0.0525, -0.1657 -0.128 0.0505, -0.1719 -0.128 0.049, -0.1678 -0.128 0.0464, -0.1587 -0.128 0.0568, -0.1625 -0.128 0.0541, -0.1792 -0.128 0.0639, -0.1789 -0.128 0.0609, -0.1052 -0.128 0.0451, -0.105 -0.128 0.0451, -0.1044 -0.128 0.045, -0.1545 -0.128 0.0584, -0.1499 -0.128 0.059, -0.1476 -0.128 0.0588, -0.088 -0.128 0.0347, -0.0943 -0.128 0.0333, -0.1055 -0.128 0.0333, -0.1065 -0.128 0.0335, -0.1077 -0.128 0.0339, -0.109 -0.128 0.0348, -0.1096 -0.128 0.0354, -0.0857 -0.128 0.0497, -0.0836 -0.128 0.0526, -0.0823 -0.128 0.056, -0.0818 -0.128 0.0597, -0.111 -0.128 0.0392, -0.111 -0.128 0.0398, -0.131 -0.128 0.0417, -0.1107 -0.128 0.0412, -0.11 -0.128 0.0426, -0.104 -0.128 0.0449, -0.0955 -0.128 0.0449, -0.092 -0.128 0.0456, -0.1104 -0.128 0.0366, -0.1109 -0.128 0.0379, -0.1311 -0.128 0.0378, -0.131 -0.128 0.0398, -0.0887 -0.128 0.0471, -0.0859 -0.128 0.0494, -0.0981 -0.128 0.0745, -0.177 -0.128 0.0727, -0.1786 -0.128 0.0685, -0.0966 -0.128 0.0745, -0.0846 -0.128 0.0683, -0.0867 -0.128 0.0707, -0.0897 -0.128 0.0728, -0.093 -0.128 0.0741, -0.1022 -0.128 0.086, -0.1065 -0.128 0.0911, -0.1501 -0.128 0.08, -0.107 -0.128 0.0915, -0.1123 -0.128 0.0952, -0.1472 -0.128 0.086, -0.175 -0.128 0.0756, -0.1514 -0.128 0.0807, -0.0984 -0.128 0.0756, -0.0993 -0.128 0.0798, -0.1557 -0.128 0.0823, -0.1602 -0.128 0.0829, -0.1622 -0.128 0.0828, -0.143 -0.128 0.0911, -0.1183 -0.128 0.0975, -0.1379 -0.128 0.0948, -0.1247 -0.128 0.0982, -0.1317 -0.128 0.0973, -0.1669 -0.128 0.0816, -0.1711 -0.128 0.0794, -0.1743 -0.128 0.0765, -0.0759 -0.128 0.0756, -0.0732 -0.128 0.0719, -0.0716 -0.128 0.0677, 0.0401 -0.128 0.0365, 0.0401 -0.128 0.0334, 0.0426 -0.128 0.0332, 0.0342 -0.128 0.0332, 0.0426 -0.128 0.0677, 0.0395 -0.128 0.0601, 0.0395 -0.128 0.0571, 0.0387 -0.128 0.0485, 0.0387 -0.128 0.0455, 0.0342 -0.128 0.0455, 0.0342 -0.128 0.0571, 0.0342 -0.128 0.0485, 0.0292 -0.128 0.0571, 0.0292 -0.128 0.0485, 0.0342 -0.128 0.0334, 0.0257 -0.128 0.0334, 0.0239 -0.128 0.0332, 0.0257 -0.128 0.0601, -0.0301 -0.128 0.0413, -0.0294 -0.128 0.0424, -0.0288 -0.128 0.0479, -0.0284 -0.128 0.0433, -0.0271 -0.128 0.0441, -0.0265 -0.128 0.0494, -0.0243 -0.128 0.0448, -0.0244 -0.128 0.05, -0.0187 -0.128 0.0364, -0.0187 -0.128 0.0364, -0.0187 -0.128 0.0334, -0.0196 -0.128 0.0352, -0.0207 -0.128 0.0342, -0.0305 -0.128 0.0401, -0.0318 -0.128 0.0677, -0.0306 -0.128 0.0385, -0.0318 -0.128 0.0332, -0.0304 -0.128 0.0369, -0.03 -0.128 0.0358, -0.0187 -0.128 0.0456, -0.0187 -0.128 0.0468, -0.0191 -0.128 0.0481, -0.0279 -0.128 0.0337, -0.029 -0.128 0.0345, -0.0293 -0.128 0.0348, -0.0288 -0.128 0.0512, -0.0278 -0.128 0.0517, -0.0252 -0.128 0.0526, -0.0153 -0.128 0.0334, -0.0108 -0.128 0.0341, -0.0153 -0.128 0.0457, -0.0108 -0.128 0.0376, -0.0098 -0.128 0.0443, -0.0195 -0.128 0.0488, -0.0199 -0.128 0.0494, -0.0205 -0.128 0.0498, -0.0213 -0.128 0.0501, -0.0225 -0.128 0.0502, -0.0096 -0.128 0.0368, -0.0102 -0.128 0.0449, -0.0106 -0.128 0.0459, -0.0156 -0.128 0.0485, -0.0108 -0.128 0.0474, -0.0222 -0.128 0.0529, -0.0199 -0.128 0.0527, -0.0186 -0.128 0.0522, -0.0107 -0.128 0.0484, -0.0103 -0.128 0.0495, -0.0162 -0.128 0.0499, -0.0097 -0.128 0.0504, -0.0169 -0.128 0.051, -0.0175 -0.128 0.0516, -0.0077 -0.128 0.0332, -0.0092 -0.128 0.0226, -0.0056 -0.128 0.033, 0.0012 -0.128 0.0521, 0.0012 -0.128 0.0488, 0.0016 -0.128 0.0363, 0.001 -0.128 0.0354, 0.002 -0.128 0.0374, -0.0092 -0.128 0.0509, -0.0092 -0.128 0.0677, -0.0086 -0.128 0.0514, -0.0078 -0.128 0.0519, -0.006 -0.128 0.0526, -0.0033 -0.128 0.0529, 0.003 -0.128 0.0677, -0.001 -0.128 0.0527, -0.0001 -0.128 0.0345, -0.0009 -0.128 0.034, 0.001 -0.128 0.0418, 0.0015 -0.128 0.0409, 0.0019 -0.128 0.04, 0.0021 -0.128 0.0386, -0.0073 -0.128 0.0477, -0.0073 -0.128 0.0472, -0.0037 -0.128 0.0502, -0.0072 -0.128 0.0467, -0.0069 -0.128 0.0462, -0.0066 -0.128 0.0459, -0.0054 -0.128 0.0451, -0.0013 -0.128 0.0499, -0.0033 -0.128 0.0442, 0.0006 -0.128 0.0492, -0.0022 -0.128 0.0438, 0.0 -0.128 0.0426, -0.0048 -0.128 0.0501, -0.0057 -0.128 0.0499, -0.0063 -0.128 0.0495, -0.0068 -0.128 0.0491, -0.0071 -0.128 0.0486, -0.0073 -0.128 0.0482, -0.0075 -0.128 0.036, -0.0057 -0.128 0.0418, -0.0074 -0.128 0.0426, -0.0053 -0.128 0.0357, -0.0048 -0.128 0.0357, -0.0035 -0.128 0.0409, -0.0033 -0.128 0.0359, -0.0013 -0.128 0.0383, -0.0014 -0.128 0.0387, -0.0025 -0.128 0.0363, -0.0023 -0.128 0.0364, -0.0019 -0.128 0.0367, -0.0016 -0.128 0.0372, -0.0014 -0.128 0.0376, -0.0015 -0.128 0.0392, -0.0018 -0.128 0.0396, -0.0022 -0.128 0.0401, 0.0524 -0.128 0.0831, 0.0426 -0.128 0.0831, 0.0551 -0.128 0.0758, 0.0426 -0.128 0.0756, 0.0589 -0.128 0.0758, 0.2067 -0.128 0.0756, 0.2067 -0.128 0.1027, 0.0488 -0.128 0.1025, 0.0426 -0.128 0.1027, 0.0413 -0.128 0.0831, 0.0387 -0.128 0.0758, 0.0342 -0.128 0.0756, 0.0349 -0.128 0.0758, 0.0342 -0.128 0.1027, 0.0426 -0.128 0.096, 0.0451 -0.128 0.1025, 0.0239 -0.128 0.1027, 0.0092 -0.128 0.1027, 0.0193 -0.128 0.1025, 0.0117 -0.128 0.1025, 0.0117 -0.128 0.0758, 0.0092 -0.128 0.0756, 0.019 -0.128 0.0758, 0.0239 -0.128 0.0756, 0.0235 -0.128 0.0763, 0.0306 -0.128 0.0977, 0.0322 -0.128 0.0953, 0.0326 -0.128 0.0844, 0.0313 -0.128 0.0817, 0.0294 -0.128 0.0989, 0.0294 -0.128 0.0795, 0.0266 -0.128 0.0775, 0.0239 -0.128 0.0765, 0.0238 -0.128 0.1019, 0.0239 -0.128 0.1019, 0.027 -0.128 0.1007, 0.0331 -0.128 0.0926, 0.0334 -0.128 0.0895, 0.0333 -0.128 0.0875, 0.003 -0.128 0.1027, 0.0061 -0.128 0.1025, 0.003 -0.128 0.1025, 0.0061 -0.128 0.0994, 0.0067 -0.128 0.0788, 0.0067 -0.128 0.0758, 0.003 -0.128 0.0756, -0.0042 -0.128 0.0788, 0.003 -0.128 0.0788, -0.0042 -0.128 0.0878, 0.003 -0.128 0.0878, 0.0053 -0.128 0.0878, 0.0053 -0.128 0.0909, 0.003 -0.128 0.0994, -0.0077 -0.128 0.1025, -0.0092 -0.128 0.1027, -0.0077 -0.128 0.0758, -0.013 -0.128 0.1018, -0.0156 -0.128 0.1026, -0.0166 -0.128 0.1027, 0.003 -0.128 0.0758, -0.013 -0.128 0.0982, -0.0135 -0.128 0.0767, -0.0185 -0.128 0.0785, -0.0155 -0.128 0.079, -0.013 -0.128 0.0802, -0.013 -0.128 0.0769, -0.0294 -0.128 0.0888, -0.0136 -0.128 0.0985, -0.0163 -0.128 0.0995, -0.0263 -0.128 0.0807, -0.0245 -0.128 0.0795, -0.0294 -0.128 0.0878, -0.0289 -0.128 0.0852, -0.0226 -0.128 0.0787, -0.0199 -0.128 0.0784, -0.0227 -0.128 0.0993, -0.0248 -0.128 0.0984, -0.0266 -0.128 0.0968, -0.0193 -0.128 0.0998, -0.0203 -0.128 0.0998, -0.0291 -0.128 0.092, -0.0283 -0.128 0.0944, -0.0281 -0.128 0.083, -0.0268 -0.128 0.0812, -0.027 -0.128 0.0964, -0.0194 -0.128 0.1029, -0.0318 -0.128 0.2087, -0.0092 -0.128 0.2087, -0.0191 -0.128 0.1029, -0.026 -0.128 0.1014, -0.031 -0.128 0.0967, -0.0292 -0.128 0.099, -0.0286 -0.128 0.0996, -0.0318 -0.128 0.0826, -0.0325 -0.128 0.0843, -0.0334 -0.128 0.0756, -0.033 -0.128 0.0886, -0.0329 -0.128 0.0904, -0.0334 -0.128 0.1027, -0.0323 -0.128 0.0938, -0.0318 -0.128 0.0948, -0.0275 -0.128 0.0772, -0.0296 -0.128 0.079, -0.0318 -0.128 0.0756, -0.0298 -0.128 0.0792, -0.0314 -0.128 0.0815, -0.0204 -0.128 0.0753, -0.0221 -0.128 0.0754, -0.0228 -0.128 0.0756, -0.025 -0.128 0.076, -0.0228 -0.128 0.0332, -0.0246 -0.128 0.033, -0.0318 -0.128 0.0226, -0.0214 -0.128 0.0337, -0.0227 -0.128 0.0332, -0.0251 -0.128 0.033, -0.0265 -0.128 0.0332, -0.0267 -0.128 0.0332, 0.0187 -0.128 0.0525, 0.0221 -0.128 0.0525, 0.0239 -0.128 0.0677, 0.0342 -0.128 0.0601, 0.0342 -0.128 0.0677, 0.0145 -0.128 0.0332, 0.0125 -0.128 0.0382, 0.013 -0.128 0.0366, 0.013 -0.128 0.0366, 0.0092 -0.128 0.0677, 0.0092 -0.128 0.0479, 0.0135 -0.128 0.0381, 0.0132 -0.128 0.0373, 0.0092 -0.128 0.0332, 0.0092 -0.128 0.0389, 0.0038 -0.128 0.0525, 0.0076 -0.128 0.0525, 0.0113 -0.128 0.0335, 0.0112 -0.128 0.0332, 0.0098 -0.128 0.03, 0.003 -0.128 0.0226, 0.0045 -0.128 0.0247, 0.0045 -0.128 0.0277, 0.0064 -0.128 0.0273, 0.0065 -0.128 0.0273, 0.0055 -0.128 0.0274, 0.0085 -0.128 0.0281, 0.0092 -0.128 0.0288, 0.0092 -0.128 0.0288, 0.0092 -0.128 0.0251, 0.0081 -0.128 0.0246, 0.0092 -0.128 0.0226, 0.0067 -0.128 0.0245, 0.0055 -0.128 0.0245, 0.0073 -0.128 0.0274, 0.008 -0.128 0.0277, 0.0239 -0.128 0.0226, 0.0106 -0.128 0.026, 0.0094 -0.128 0.0252, 0.0135 -0.128 0.0306, 0.0119 -0.128 0.0276, -0.2067 -0.128 0.0, -0.2067 -0.128 0.0226, -0.2067 -0.128 0.0332, -0.2067 -0.128 0.0677, -0.2067 -0.128 0.0756, -0.2067 -0.128 0.1027, -0.2067 -0.128 0.2087, -0.0341 -0.128 0.0788, -0.0341 -0.128 0.0758, -0.0482 -0.128 0.0758, -0.0447 -0.128 0.1025, -0.0447 -0.128 0.0788, -0.0482 -0.128 0.1025, -0.0334 -0.128 0.0332, -0.0338 -0.128 0.0334, -0.0482 -0.128 0.0334, -0.0338 -0.128 0.0365, -0.0344 -0.128 0.0571, -0.0447 -0.128 0.0455, -0.0447 -0.128 0.0365, -0.0352 -0.128 0.0455, -0.0352 -0.128 0.0485, -0.0447 -0.128 0.0485, -0.0447 -0.128 0.0571, -0.0482 -0.128 0.0601, -0.0344 -0.128 0.0601, -0.0334 -0.128 0.2087, -0.0591 -0.128 0.2087, -0.1247 -0.128 0.2087, 0.003 -0.128 0.2087, 0.0092 -0.128 0.2087, 0.0239 -0.128 0.2087, 0.0342 -0.128 0.2087, 0.0426 -0.128 0.2087, 0.2067 -0.128 0.2087, 0.0451 -0.128 0.0334, 0.0451 -0.128 0.0601, 0.0525 -0.128 0.0334, 0.0885 -0.128 0.0334, 0.0924 -0.128 0.0334, 0.2067 -0.128 0.0332, 0.0822 -0.128 0.0601, 0.2067 -0.128 0.0677, 0.0858 -0.128 0.0407, 0.0747 -0.128 0.0407, 0.0721 -0.128 0.0334, 0.0683 -0.128 0.0334, 0.0569 -0.128 0.034, 0.0785 -0.128 0.0601, 0.0647 -0.128 0.0394, 0.0628 -0.128 0.0372, 0.06 -0.128 0.0352, 0.0527 -0.128 0.0601, 0.0572 -0.128 0.0596, 0.0604 -0.128 0.0583, 0.0628 -0.128 0.0566, 0.0641 -0.128 0.0554, 0.0656 -0.128 0.0529, 0.0665 -0.128 0.0503, 0.0669 -0.128 0.0471, 0.0667 -0.128 0.0452, 0.0661 -0.128 0.0421, 0.0342 -0.128 0.0226, 0.0426 -0.128 0.0226, 0.2067 -0.128 0.0226, -0.0334 -0.128 0.0, -0.0318 -0.128 0.0, -0.0092 -0.128 0.0, 0.003 -0.128 0.0, 0.0092 -0.128 0.0, 0.0239 -0.128 0.0, 0.0342 -0.128 0.0, 0.0426 -0.128 0.0, 0.2067 -0.128 0.0, 0.2067 0.128 0.2087, -0.1247 0.128 0.2087, 0.2067 0.128 0.0, -0.2067 0.128 0.2087, -0.1662 0.128 0.2087, -0.1662 0.128 0.2083, -0.1247 0.128 0.2083, -0.2067 0.128 0.0, -0.2067 0.128 0.0
            ]
        }
        coordIndex [
            0,1,2,-1,3,4,5,-1,6,7,8,-1,9,10,11,-1,12,13,14,-1,15,16,17,-1,18,19,20,-1,21,22,23,-1,24,25,26,-1,27,28,29,-1,30,31,32,-1,32,31,3,-1,33,32,34,-1,34,32,35,-1,33,36,32,-1,32,36,37,-1,32,37,30,-1,38,39,40,-1,40,39,41,-1,40,41,42,-1,42,41,43,-1,44,45,46,-1,46,45,47,-1,46,47,32,-1,32,47,48,-1,32,48,35,-1,39,49,41,-1,41,49,50,-1,41,50,46,-1,46,50,51,-1,46,51,44,-1,40,52,53,-1,53,54,40,-1,40,54,55,-1,40,55,38,-1,38,55,56,-1,38,56,57,-1,57,56,58,-1,57,58,59,-1,29,28,60,-1,28,61,60,-1,60,61,62,-1,60,62,40,-1,40,62,63,-1,40,63,52,-1,64,65,66,-1,65,67,66,-1,66,67,68,-1,66,68,69,-1,69,70,66,-1,66,70,71,-1,66,71,29,-1,29,71,72,-1,29,72,27,-1,73,74,75,-1,75,74,76,-1,75,76,66,-1,66,76,77,-1,66,77,64,-1,78,79,80,-1,80,79,81,-1,80,81,82,-1,81,83,82,-1,82,83,84,-1,82,84,75,-1,75,84,85,-1,75,85,73,-1,0,86,1,-1,1,86,87,-1,1,87,88,-1,88,89,1,-1,1,89,90,-1,1,90,78,-1,91,92,4,-1,93,94,0,-1,95,96,97,-1,97,96,98,-1,99,100,101,-1,93,0,102,-1,103,104,96,-1,96,104,105,-1,96,105,106,-1,99,101,107,-1,4,92,0,-1,0,92,108,-1,0,108,102,-1,109,110,111,-1,111,110,112,-1,111,112,113,-1,114,106,115,-1,115,106,116,-1,115,116,111,-1,111,116,117,-1,111,117,109,-1,100,118,101,-1,101,118,119,-1,101,119,120,-1,114,121,106,-1,106,121,122,-1,106,122,96,-1,96,122,123,-1,96,123,98,-1,94,124,0,-1,0,124,125,-1,0,125,86,-1,86,125,126,-1,86,126,127,-1,127,128,86,-1,86,128,129,-1,86,129,130,-1,131,132,101,-1,101,132,133,-1,101,133,96,-1,96,133,134,-1,96,134,103,-1,135,136,137,-1,137,136,138,-1,137,138,101,-1,101,138,139,-1,101,139,107,-1,120,140,101,-1,101,140,141,-1,101,141,142,-1,130,143,86,-1,86,143,144,-1,86,144,145,-1,145,144,135,-1,145,135,146,-1,146,135,137,-1,142,147,101,-1,101,147,148,-1,101,148,131,-1,149,150,151,-1,151,106,149,-1,149,106,105,-1,149,105,152,-1,152,105,153,-1,153,154,152,-1,152,154,155,-1,152,155,156,-1,157,158,159,-1,158,160,159,-1,159,160,161,-1,159,161,162,-1,163,159,164,-1,150,149,163,-1,163,149,165,-1,163,165,159,-1,159,165,166,-1,159,166,157,-1,164,167,163,-1,163,167,168,-1,163,168,169,-1,162,161,170,-1,170,161,171,-1,170,171,172,-1,172,171,173,-1,172,173,174,-1,175,176,169,-1,169,176,177,-1,169,177,163,-1,31,178,3,-1,3,178,179,-1,3,179,4,-1,4,179,180,-1,4,180,91,-1,181,182,183,-1,183,182,184,-1,185,186,187,-1,188,189,181,-1,181,189,26,-1,26,189,190,-1,26,190,24,-1,187,191,192,-1,192,191,193,-1,192,193,194,-1,182,195,184,-1,184,195,196,-1,184,196,197,-1,197,196,198,-1,199,200,201,-1,200,202,201,-1,201,202,203,-1,201,203,204,-1,204,203,205,-1,204,205,206,-1,207,208,209,-1,209,208,210,-1,209,210,211,-1,212,213,214,-1,214,213,215,-1,214,215,216,-1,216,215,217,-1,218,219,205,-1,205,219,220,-1,221,222,215,-1,215,222,223,-1,215,223,217,-1,199,201,212,-1,212,201,224,-1,212,224,213,-1,213,224,225,-1,213,225,226,-1,23,22,227,-1,227,22,228,-1,227,228,229,-1,229,228,230,-1,229,230,231,-1,220,232,205,-1,205,232,233,-1,205,233,234,-1,234,235,205,-1,205,235,236,-1,205,236,206,-1,231,230,16,-1,16,230,237,-1,16,237,17,-1,231,238,229,-1,229,238,239,-1,229,239,240,-1,240,239,241,-1,226,242,213,-1,213,242,243,-1,213,243,244,-1,241,245,240,-1,240,245,246,-1,240,246,247,-1,247,246,248,-1,247,248,249,-1,249,248,250,-1,21,23,251,-1,251,23,252,-1,251,252,253,-1,254,255,20,-1,256,257,20,-1,256,20,258,-1,248,259,260,-1,260,259,261,-1,260,261,262,-1,262,263,260,-1,260,263,264,-1,260,264,265,-1,265,264,266,-1,265,266,254,-1,257,267,20,-1,20,267,268,-1,20,268,18,-1,269,270,255,-1,255,270,271,-1,255,271,20,-1,20,271,272,-1,20,272,258,-1,273,274,275,-1,275,274,276,-1,275,276,277,-1,277,278,275,-1,275,278,279,-1,275,279,280,-1,280,279,281,-1,280,281,282,-1,282,281,283,-1,282,283,255,-1,255,283,284,-1,255,284,269,-1,275,285,273,-1,273,285,286,-1,273,286,287,-1,288,289,287,-1,287,289,290,-1,287,290,273,-1,291,292,17,-1,17,292,293,-1,17,293,15,-1,291,294,292,-1,292,294,295,-1,292,295,296,-1,296,295,297,-1,296,298,299,-1,297,300,296,-1,296,300,301,-1,296,301,302,-1,302,303,296,-1,296,303,304,-1,296,304,298,-1,299,305,296,-1,296,305,306,-1,296,306,307,-1,308,309,310,-1,310,309,311,-1,310,311,312,-1,313,314,315,-1,315,314,316,-1,309,317,311,-1,311,317,318,-1,311,318,319,-1,319,318,320,-1,319,320,321,-1,321,320,322,-1,321,322,316,-1,316,322,323,-1,316,323,315,-1,324,325,326,-1,326,325,327,-1,327,325,328,-1,328,325,329,-1,328,329,330,-1,330,329,331,-1,330,331,332,-1,333,334,321,-1,335,336,319,-1,333,321,337,-1,336,338,319,-1,319,338,339,-1,319,339,331,-1,331,339,340,-1,331,340,332,-1,326,341,324,-1,324,341,342,-1,324,342,321,-1,321,342,343,-1,321,343,337,-1,334,344,321,-1,321,344,345,-1,321,345,319,-1,319,345,346,-1,319,346,335,-1,325,347,348,-1,348,347,349,-1,348,350,325,-1,325,350,351,-1,325,351,329,-1,329,351,352,-1,329,352,353,-1,354,355,356,-1,356,355,357,-1,357,355,358,-1,358,355,351,-1,358,351,359,-1,359,351,350,-1,359,350,14,-1,14,350,360,-1,14,360,12,-1,349,347,361,-1,361,347,362,-1,361,362,363,-1,364,362,365,-1,365,362,366,-1,352,367,353,-1,353,367,363,-1,353,363,11,-1,11,363,362,-1,11,362,368,-1,368,362,364,-1,9,11,369,-1,370,371,368,-1,368,371,372,-1,368,372,11,-1,11,372,373,-1,11,373,369,-1,374,375,376,-1,368,377,378,-1,375,374,368,-1,368,374,379,-1,368,379,380,-1,378,381,368,-1,368,381,382,-1,368,382,370,-1,383,384,385,-1,376,386,374,-1,374,386,387,-1,374,387,388,-1,388,387,389,-1,380,390,368,-1,368,390,391,-1,368,391,377,-1,383,385,387,-1,387,385,392,-1,387,392,389,-1,7,393,394,-1,394,393,395,-1,395,393,396,-1,395,396,366,-1,6,8,397,-1,398,399,8,-1,8,399,400,-1,8,400,397,-1,401,402,403,-1,404,405,406,-1,406,405,407,-1,406,407,8,-1,8,407,408,-1,8,408,398,-1,409,410,411,-1,411,410,412,-1,411,412,413,-1,414,415,213,-1,213,415,416,-1,213,416,411,-1,411,416,417,-1,411,417,409,-1,10,414,260,-1,260,414,213,-1,260,213,248,-1,248,213,244,-1,248,244,250,-1,418,419,420,-1,211,421,209,-1,209,421,422,-1,209,422,227,-1,227,422,418,-1,227,418,23,-1,23,418,420,-1,23,420,252,-1,419,423,420,-1,420,423,424,-1,420,424,215,-1,215,424,425,-1,215,425,221,-1,426,427,428,-1,186,185,429,-1,429,185,430,-1,429,430,198,-1,198,430,428,-1,198,428,197,-1,197,428,427,-1,197,427,431,-1,432,433,434,-1,428,435,426,-1,426,435,436,-1,426,436,437,-1,437,436,432,-1,437,432,438,-1,438,432,434,-1,439,440,20,-1,20,440,441,-1,254,20,265,-1,265,20,441,-1,265,441,435,-1,435,441,442,-1,435,442,436,-1,443,440,444,-1,444,440,439,-1,444,439,445,-1,446,447,448,-1,439,449,450,-1,253,252,19,-1,19,252,446,-1,19,446,20,-1,20,446,448,-1,20,448,439,-1,439,448,451,-1,439,451,449,-1,452,453,439,-1,439,453,454,-1,439,454,445,-1,455,456,457,-1,457,456,458,-1,457,458,446,-1,446,458,459,-1,446,459,447,-1,450,460,439,-1,439,460,461,-1,439,461,452,-1,462,463,457,-1,457,463,464,-1,457,464,455,-1,431,465,462,-1,462,465,466,-1,462,466,463,-1,467,82,468,-1,468,82,75,-1,468,75,469,-1,469,75,66,-1,469,66,470,-1,470,66,29,-1,470,29,471,-1,471,29,60,-1,471,60,472,-1,472,60,40,-1,472,40,473,-1,473,40,42,-1,474,475,403,-1,403,475,476,-1,477,406,32,-1,402,404,403,-1,403,404,406,-1,403,406,474,-1,474,406,477,-1,474,477,478,-1,5,403,3,-1,3,403,476,-1,3,476,32,-1,32,476,479,-1,32,479,477,-1,480,481,482,-1,481,480,483,-1,483,480,5,-1,483,5,484,-1,485,486,487,-1,487,486,483,-1,487,483,488,-1,488,483,484,-1,488,484,489,-1,489,484,490,-1,2,480,0,-1,0,480,482,-1,0,482,4,-1,4,482,491,-1,4,491,5,-1,5,491,492,-1,5,492,484,-1,7,394,8,-1,8,394,493,-1,8,493,406,-1,406,493,494,-1,406,494,32,-1,32,494,495,-1,32,495,46,-1,2,420,480,-1,480,420,215,-1,480,215,5,-1,5,215,213,-1,5,213,403,-1,403,213,411,-1,403,411,401,-1,401,411,413,-1,10,260,11,-1,11,260,265,-1,11,265,353,-1,353,265,435,-1,353,435,329,-1,329,435,428,-1,329,428,331,-1,331,428,430,-1,331,430,319,-1,319,430,185,-1,319,185,311,-1,366,362,395,-1,395,362,347,-1,395,347,496,-1,496,347,325,-1,496,325,497,-1,497,325,324,-1,497,324,498,-1,498,324,321,-1,498,321,499,-1,499,321,316,-1,499,316,500,-1,500,316,314,-1,500,314,501,-1,502,503,185,-1,192,188,187,-1,187,188,181,-1,187,181,185,-1,185,181,183,-1,185,183,502,-1,502,183,504,-1,505,183,506,-1,506,183,507,-1,506,507,508,-1,508,507,509,-1,510,511,505,-1,505,511,512,-1,505,512,183,-1,183,512,513,-1,183,513,504,-1,504,513,514,-1,315,312,313,-1,313,312,311,-1,313,311,509,-1,509,311,185,-1,509,185,508,-1,508,185,515,-1,516,517,513,-1,513,517,518,-1,513,518,514,-1,503,519,185,-1,185,519,520,-1,185,520,515,-1,515,520,521,-1,515,521,522,-1,522,523,515,-1,515,523,524,-1,515,524,525,-1,525,526,515,-1,515,526,527,-1,515,527,513,-1,513,527,528,-1,513,528,516,-1,431,462,197,-1,197,462,529,-1,197,529,184,-1,184,529,530,-1,184,530,183,-1,183,530,531,-1,183,531,507,-1,78,80,1,-1,1,80,532,-1,1,532,2,-1,2,532,533,-1,2,533,420,-1,420,533,534,-1,420,534,252,-1,252,534,535,-1,252,535,446,-1,446,535,536,-1,446,536,457,-1,457,536,537,-1,457,537,462,-1,462,537,538,-1,462,538,529,-1,529,538,539,-1,529,539,530,-1,530,539,540,-1,530,540,531,-1,501,541,495,-1,495,541,542,-1,541,501,543,-1,543,501,540,-1,544,545,546,-1,542,541,547,-1,547,541,543,-1,547,543,546,-1,546,543,548,-1,546,548,544,-1,473,544,467,-1,467,544,548,-1,544,473,545,-1,545,473,43,-1,543,540,548,-1,548,540,467,-1,
        ]
    }
}
Shape{
    appearance Appearance {
        material  Material 	{
            diffuseColor 0.6470588235294118 0.6470588235294118 0.6470588235294118
            specularColor 0.3215686274509804 0.3215686274509804 0.3215686274509804
            ambientIntensity 0.2
            transparency 0
            shininess 0.5
        }
    }
    geometry IndexedFaceSet {
        ccw TRUE
        solid FALSE
        coord DEF co Coordinate {
            point [
                -0.1247 0.128 0.2083, -0.1247 -0.128 0.2083, -0.1247 0.128 0.2087, -0.1247 -0.128 0.2087, -0.1662 -0.128 0.2083, -0.1662 0.128 0.2083, -0.1662 -0.128 0.2087, -0.1662 0.128 0.2087, -0.1662 0.128 0.2087
            ]
        }
        coordIndex [
            0,1,2,-1,2,1,3,-1,4,5,6,-1,6,5,7,-1,5,4,0,-1,0,4,1,-1,
        ]
    }
}
Shape{
    appearance Appearance {
        material  Material 	{
            diffuseColor 1.0 1.0 1.0
            specularColor 0.5019607843137255 0.5019607843137255 0.5019607843137255
            ambientIntensity 0.2
            transparency 0
            shininess 0.5
        }
    }
    geometry IndexedFaceSet {
        ccw TRUE
        solid FALSE
        coord DEF co Coordinate {
            point [
                -0.0341 -0.1319 0.0788, -0.0341 -0.1319 0.0758, -0.0341 -0.128 0.0788, -0.0341 -0.128 0.0758, -0.0447 -0.1319 0.0788, -0.0447 -0.128 0.0788, -0.0447 -0.1319 0.1025, -0.0447 -0.128 0.1025, -0.0482 -0.1319 0.1025, -0.0482 -0.128 0.1025, -0.0482 -0.1319 0.0758, -0.0482 -0.128 0.0758, -0.0204 -0.128 0.0753, -0.0181 -0.128 0.0756, -0.0204 -0.1319 0.0753, -0.0164 -0.1319 0.0757, -0.0164 -0.128 0.0757, -0.0135 -0.128 0.0767, -0.0135 -0.1319 0.0767, -0.013 -0.128 0.0769, -0.013 -0.1319 0.0769, -0.013 -0.1319 0.0802, -0.013 -0.128 0.0802, -0.0155 -0.128 0.079, -0.0155 -0.1319 0.079, -0.0185 -0.128 0.0785, -0.0185 -0.1319 0.0785, -0.0199 -0.128 0.0784, -0.0199 -0.1319 0.0784, -0.0226 -0.128 0.0787, -0.0226 -0.1319 0.0787, -0.0245 -0.128 0.0795, -0.0245 -0.1319 0.0795, -0.0263 -0.128 0.0807, -0.0263 -0.1319 0.0807, -0.0268 -0.128 0.0812, -0.0268 -0.1319 0.0812, -0.0281 -0.128 0.083, -0.0281 -0.1319 0.083, -0.0289 -0.128 0.0852, -0.0289 -0.1319 0.0852, -0.0294 -0.128 0.0878, -0.0294 -0.1319 0.0878, -0.0294 -0.128 0.0888, -0.0294 -0.1319 0.0888, -0.0291 -0.128 0.092, -0.0291 -0.1319 0.092, -0.0283 -0.128 0.0944, -0.0283 -0.1319 0.0944, -0.027 -0.128 0.0964, -0.027 -0.1319 0.0964, -0.0266 -0.128 0.0968, -0.0266 -0.1319 0.0968, -0.0248 -0.128 0.0984, -0.0248 -0.1319 0.0984, -0.0227 -0.128 0.0993, -0.0227 -0.1319 0.0993, -0.0203 -0.128 0.0998, -0.0203 -0.1319 0.0998, -0.0193 -0.128 0.0998, -0.0193 -0.1319 0.0998, -0.0163 -0.128 0.0995, -0.0163 -0.1319 0.0995, -0.0136 -0.128 0.0985, -0.0136 -0.1319 0.0985, -0.013 -0.128 0.0982, -0.013 -0.1319 0.0982, -0.013 -0.1319 0.1018, -0.013 -0.128 0.1018, -0.0194 -0.128 0.1029, -0.0194 -0.1319 0.1029, -0.0191 -0.1319 0.1029, -0.0156 -0.128 0.1026, -0.0156 -0.1319 0.1026, -0.0166 -0.128 0.1027, -0.0191 -0.128 0.1029, -0.0212 -0.128 0.1027, -0.0232 -0.1319 0.1025, -0.0232 -0.128 0.1025, -0.026 -0.128 0.1014, -0.026 -0.1319 0.1014, -0.0286 -0.128 0.0996, -0.0286 -0.1319 0.0996, -0.0292 -0.128 0.099, -0.0292 -0.1319 0.099, -0.031 -0.128 0.0967, -0.031 -0.1319 0.0967, -0.0318 -0.128 0.0948, -0.0323 -0.1319 0.0938, -0.0323 -0.128 0.0938, -0.0329 -0.128 0.0904, -0.0329 -0.1319 0.0904, -0.033 -0.128 0.0886, -0.033 -0.1319 0.0886, -0.0325 -0.128 0.0843, -0.0325 -0.1319 0.0843, -0.0318 -0.128 0.0826, -0.0314 -0.1319 0.0815, -0.0314 -0.128 0.0815, -0.0298 -0.128 0.0792, -0.0298 -0.1319 0.0792, -0.0296 -0.128 0.079, -0.0296 -0.1319 0.079, -0.0221 -0.1319 0.0754, -0.0275 -0.128 0.0772, -0.0275 -0.1319 0.0772, -0.025 -0.128 0.076, -0.025 -0.1319 0.076, -0.0228 -0.128 0.0756, -0.0221 -0.128 0.0754, 0.0067 -0.1319 0.0788, 0.0067 -0.1319 0.0758, 0.0067 -0.128 0.0788, 0.0067 -0.128 0.0758, -0.0042 -0.128 0.0788, -0.0042 -0.1319 0.0788, 0.003 -0.128 0.0788, -0.0042 -0.1319 0.0878, -0.0042 -0.128 0.0878, 0.0053 -0.1319 0.0878, 0.003 -0.128 0.0878, 0.0053 -0.128 0.0878, 0.0053 -0.1319 0.0909, 0.0053 -0.128 0.0909, -0.0042 -0.128 0.0909, -0.0042 -0.1319 0.0909, 0.003 -0.128 0.0909, -0.0042 -0.1319 0.0994, -0.0042 -0.128 0.0994, 0.0061 -0.1319 0.0994, 0.003 -0.128 0.0994, 0.0061 -0.128 0.0994, 0.0061 -0.1319 0.1025, 0.0061 -0.128 0.1025, -0.0077 -0.128 0.1025, -0.0077 -0.1319 0.1025, 0.003 -0.128 0.1025, -0.0077 -0.1319 0.0758, -0.0077 -0.128 0.0758, 0.003 -0.128 0.0758, 0.0283 -0.1319 0.0833, 0.027 -0.1319 0.0816, 0.0294 -0.1319 0.0795, 0.0264 -0.1319 0.0811, 0.0266 -0.1319 0.0775, 0.0246 -0.1319 0.0799, 0.0235 -0.1319 0.0763, 0.0222 -0.1319 0.0791, 0.019 -0.1319 0.0758, 0.019 -0.1319 0.0788, 0.0117 -0.1319 0.0758, 0.0151 -0.1319 0.0788, 0.0117 -0.1319 0.1025, 0.0151 -0.1319 0.0994, 0.0193 -0.1319 0.1025, 0.0192 -0.1319 0.0994, 0.0238 -0.1319 0.1019, 0.0226 -0.1319 0.099, 0.027 -0.1319 0.1007, 0.0249 -0.1319 0.0982, 0.0294 -0.1319 0.0989, 0.0269 -0.1319 0.0969, 0.0306 -0.1319 0.0977, 0.0278 -0.1319 0.096, 0.0322 -0.1319 0.0953, 0.0288 -0.1319 0.0944, 0.0331 -0.1319 0.0926, 0.0295 -0.1319 0.0924, 0.0334 -0.1319 0.0895, 0.0298 -0.1319 0.0894, 0.0333 -0.1319 0.0875, 0.0297 -0.1319 0.0877, 0.0326 -0.1319 0.0844, 0.0292 -0.1319 0.0852, 0.0313 -0.1319 0.0817, 0.019 -0.128 0.0758, 0.0117 -0.128 0.0758, 0.0294 -0.128 0.0795, 0.0235 -0.128 0.0763, 0.0239 -0.128 0.0765, 0.0266 -0.128 0.0775, 0.0313 -0.128 0.0817, 0.0326 -0.128 0.0844, 0.0333 -0.128 0.0875, 0.0334 -0.128 0.0895, 0.0331 -0.128 0.0926, 0.0322 -0.128 0.0953, 0.0306 -0.128 0.0977, 0.0294 -0.128 0.0989, 0.0193 -0.128 0.1025, 0.027 -0.128 0.1007, 0.0239 -0.128 0.1019, 0.0238 -0.128 0.1019, 0.0117 -0.128 0.1025, 0.0192 -0.128 0.0994, 0.0151 -0.128 0.0994, 0.0151 -0.128 0.0788, 0.019 -0.128 0.0788, 0.027 -0.128 0.0816, 0.0264 -0.128 0.0811, 0.0246 -0.128 0.0799, 0.0222 -0.128 0.0791, 0.0298 -0.128 0.0894, 0.0297 -0.128 0.0877, 0.0292 -0.128 0.0852, 0.0283 -0.128 0.0833, 0.0269 -0.128 0.0969, 0.0278 -0.128 0.096, 0.0288 -0.128 0.0944, 0.0295 -0.128 0.0924, 0.0226 -0.128 0.099, 0.0249 -0.128 0.0982, 0.0249 -0.128 0.0982
            ]
        }
        coordIndex [
            0,1,2,-1,2,1,3,-1,4,0,5,-1,5,0,2,-1,6,4,7,-1,7,4,5,-1,8,6,9,-1,9,6,7,-1,10,8,11,-1,11,8,9,-1,1,10,3,-1,3,10,11,-1,6,8,4,-1,4,8,10,-1,4,10,0,-1,0,10,1,-1,12,13,14,-1,14,13,15,-1,13,16,15,-1,15,16,17,-1,15,17,18,-1,18,17,19,-1,18,19,20,-1,21,20,22,-1,22,20,19,-1,21,22,23,-1,21,23,24,-1,24,23,25,-1,24,25,26,-1,26,25,27,-1,26,27,28,-1,28,27,29,-1,28,29,30,-1,30,29,31,-1,30,31,32,-1,32,31,33,-1,32,33,34,-1,34,33,35,-1,34,35,36,-1,36,35,37,-1,36,37,38,-1,38,37,39,-1,38,39,40,-1,40,39,41,-1,40,41,42,-1,42,41,43,-1,42,43,44,-1,44,43,45,-1,44,45,46,-1,46,45,47,-1,46,47,48,-1,48,47,49,-1,48,49,50,-1,50,49,51,-1,50,51,52,-1,52,51,53,-1,52,53,54,-1,54,53,55,-1,54,55,56,-1,56,55,57,-1,56,57,58,-1,58,57,59,-1,58,59,60,-1,60,59,61,-1,60,61,62,-1,62,61,63,-1,62,63,64,-1,64,63,65,-1,64,65,66,-1,67,66,68,-1,68,66,65,-1,69,70,71,-1,67,68,72,-1,67,72,73,-1,73,72,74,-1,73,74,71,-1,71,74,75,-1,71,75,69,-1,70,69,76,-1,70,76,77,-1,76,78,77,-1,77,78,79,-1,77,79,80,-1,80,79,81,-1,80,81,82,-1,82,81,83,-1,82,83,84,-1,84,83,85,-1,84,85,86,-1,86,85,87,-1,86,87,88,-1,87,89,88,-1,88,89,90,-1,88,90,91,-1,91,90,92,-1,91,92,93,-1,93,92,94,-1,93,94,95,-1,95,94,96,-1,95,96,97,-1,96,98,97,-1,97,98,99,-1,97,99,100,-1,100,99,101,-1,100,101,102,-1,12,14,103,-1,102,101,104,-1,102,104,105,-1,105,104,106,-1,105,106,107,-1,107,106,108,-1,107,108,103,-1,103,108,109,-1,103,109,12,-1,64,66,67,-1,54,56,77,-1,77,56,70,-1,46,48,86,-1,64,67,62,-1,56,58,70,-1,70,58,60,-1,70,60,71,-1,71,60,62,-1,71,62,73,-1,73,62,67,-1,20,21,18,-1,18,21,24,-1,18,24,15,-1,15,24,26,-1,15,26,14,-1,14,26,28,-1,14,28,103,-1,103,28,30,-1,103,30,107,-1,107,30,32,-1,107,32,105,-1,105,32,34,-1,105,34,102,-1,102,34,36,-1,102,36,100,-1,100,36,38,-1,100,38,97,-1,86,48,84,-1,77,80,54,-1,54,80,82,-1,54,82,52,-1,52,82,84,-1,52,84,50,-1,50,84,48,-1,93,44,91,-1,91,44,46,-1,91,46,88,-1,88,46,86,-1,97,38,95,-1,95,38,40,-1,95,40,93,-1,93,40,42,-1,93,42,44,-1,110,111,112,-1,112,111,113,-1,114,115,116,-1,116,115,110,-1,116,110,112,-1,117,115,118,-1,118,115,114,-1,117,118,119,-1,119,118,120,-1,119,120,121,-1,122,119,123,-1,123,119,121,-1,124,125,126,-1,126,125,122,-1,126,122,123,-1,127,125,128,-1,128,125,124,-1,127,128,129,-1,129,128,130,-1,129,130,131,-1,132,129,133,-1,133,129,131,-1,134,135,136,-1,136,135,132,-1,136,132,133,-1,137,135,138,-1,138,135,134,-1,137,138,111,-1,111,138,139,-1,111,139,113,-1,137,111,110,-1,110,115,137,-1,137,115,117,-1,137,117,135,-1,129,132,127,-1,127,132,135,-1,127,135,125,-1,125,135,117,-1,125,117,122,-1,122,117,119,-1,140,141,142,-1,142,141,143,-1,142,143,144,-1,144,143,145,-1,144,145,146,-1,146,145,147,-1,146,147,148,-1,148,147,149,-1,148,149,150,-1,150,149,151,-1,150,151,152,-1,152,151,153,-1,152,153,154,-1,154,153,155,-1,154,155,156,-1,156,155,157,-1,156,157,158,-1,158,157,159,-1,158,159,160,-1,160,159,161,-1,160,161,162,-1,162,161,163,-1,162,163,164,-1,164,163,165,-1,164,165,166,-1,166,165,167,-1,166,167,168,-1,168,167,169,-1,168,169,170,-1,170,169,171,-1,170,171,172,-1,172,171,173,-1,172,173,174,-1,174,173,140,-1,174,140,142,-1,148,150,175,-1,175,150,176,-1,177,142,144,-1,148,175,178,-1,148,178,146,-1,146,178,179,-1,146,179,144,-1,144,179,180,-1,144,180,177,-1,142,177,181,-1,142,181,174,-1,174,181,182,-1,174,182,172,-1,172,182,183,-1,172,183,170,-1,170,183,184,-1,170,184,168,-1,168,184,185,-1,168,185,166,-1,166,185,186,-1,166,186,164,-1,164,186,187,-1,164,187,162,-1,162,187,188,-1,162,188,160,-1,189,154,156,-1,160,188,190,-1,160,190,158,-1,158,190,191,-1,158,191,156,-1,156,191,192,-1,156,192,189,-1,152,154,193,-1,193,154,189,-1,150,152,176,-1,176,152,193,-1,155,153,194,-1,194,153,195,-1,153,151,195,-1,195,151,196,-1,151,149,196,-1,196,149,197,-1,141,198,199,-1,141,199,143,-1,143,199,200,-1,143,200,145,-1,145,200,201,-1,145,201,147,-1,147,201,197,-1,147,197,149,-1,169,202,203,-1,169,203,171,-1,171,203,204,-1,171,204,173,-1,173,204,205,-1,173,205,140,-1,140,205,198,-1,140,198,141,-1,161,206,207,-1,161,207,163,-1,163,207,208,-1,163,208,165,-1,165,208,209,-1,165,209,167,-1,167,209,202,-1,167,202,169,-1,155,194,210,-1,155,210,157,-1,157,210,211,-1,157,211,159,-1,159,211,206,-1,159,206,161,-1,
        ]
    }
}
Shape{
    appearance Appearance {
        material  Material 	{
            diffuseColor 0.2235294117647059 0.2235294117647059 0.2235294117647059
            specularColor 0.11372549019607843 0.11372549019607843 0.11372549019607843
            ambientIntensity 0.2
            transparency 0
            shininess 0.5
        }
    }
    geometry IndexedFaceSet {
        ccw TRUE
        solid FALSE
        coord DEF co Coordinate {
            point [
                0.0151 -0.128 0.0994, 0.0151 -0.128 0.0788, 0.0192 -0.128 0.0994, 0.019 -0.128 0.0788, 0.0222 -0.128 0.0791, 0.027 -0.128 0.0816, 0.0283 -0.128 0.0833, 0.0292 -0.128 0.0852, 0.0297 -0.128 0.0877, 0.0246 -0.128 0.0799, 0.0264 -0.128 0.0811, 0.0298 -0.128 0.0894, 0.0295 -0.128 0.0924, 0.0288 -0.128 0.0944, 0.0278 -0.128 0.096, 0.0269 -0.128 0.0969, 0.0226 -0.128 0.099, 0.0249 -0.128 0.0982, 0.0249 -0.128 0.0982
            ]
        }
        coordIndex [
            0,1,2,-1,2,1,3,-1,2,3,4,-1,5,6,2,-1,2,6,7,-1,2,7,8,-1,4,9,2,-1,2,9,10,-1,2,10,5,-1,8,11,2,-1,2,11,12,-1,2,12,13,-1,13,14,2,-1,2,14,15,-1,2,15,16,-1,16,15,17,-1,
        ]
    }
}
Shape{
    appearance Appearance {
        material  Material 	{
            diffuseColor 1.0 1.0 1.0
            specularColor 0.5019607843137255 0.5019607843137255 0.5019607843137255
            ambientIntensity 0.2
            transparency 0
            shininess 0.5
        }
    }
    geometry IndexedFaceSet {
        ccw TRUE
        solid FALSE
        coord DEF co Coordinate {
            point [
                0.0424 -0.1319 0.0861, 0.0413 -0.1319 0.0831, 0.0513 -0.1319 0.0861, 0.0524 -0.1319 0.0831, 0.0464 -0.1319 0.0972, 0.0451 -0.1319 0.1025, 0.0349 -0.1319 0.0758, 0.0387 -0.1319 0.0758, 0.0466 -0.1319 0.098, 0.0468 -0.1319 0.0991, 0.0488 -0.1319 0.1025, 0.0469 -0.1319 0.0991, 0.0471 -0.1319 0.0979, 0.0473 -0.1319 0.0972, 0.0589 -0.1319 0.0758, 0.0551 -0.1319 0.0758, 0.0488 -0.128 0.1025, 0.0589 -0.128 0.0758, 0.0451 -0.128 0.1025, 0.0349 -0.128 0.0758, 0.0426 -0.128 0.096, 0.0387 -0.128 0.0758, 0.0413 -0.128 0.0831, 0.0524 -0.128 0.0831, 0.0426 -0.128 0.0831, 0.0551 -0.128 0.0758, 0.0424 -0.128 0.0861, 0.0513 -0.128 0.0861, 0.0473 -0.128 0.0972, 0.0469 -0.128 0.0991, 0.0471 -0.128 0.0979, 0.0468 -0.128 0.0991, 0.0464 -0.128 0.0972, 0.0466 -0.128 0.098, 0.0466 -0.128 0.098
            ]
        }
        coordIndex [
            0,1,2,-1,2,1,3,-1,4,5,0,-1,0,5,6,-1,0,6,1,-1,1,6,7,-1,4,8,5,-1,5,8,9,-1,5,9,10,-1,10,9,11,-1,10,11,12,-1,12,13,10,-1,10,13,2,-1,10,2,14,-1,14,2,3,-1,14,3,15,-1,10,14,16,-1,16,14,17,-1,5,10,18,-1,18,10,16,-1,19,6,20,-1,20,6,5,-1,20,5,18,-1,7,6,21,-1,21,6,19,-1,1,7,22,-1,22,7,21,-1,23,3,24,-1,24,3,1,-1,24,1,22,-1,15,3,25,-1,25,3,23,-1,14,15,17,-1,17,15,25,-1,0,2,26,-1,26,2,27,-1,2,13,27,-1,27,13,28,-1,11,29,30,-1,11,30,12,-1,12,30,28,-1,12,28,13,-1,11,9,29,-1,29,9,31,-1,4,32,33,-1,4,33,8,-1,8,33,31,-1,8,31,9,-1,4,0,32,-1,32,0,26,-1,
        ]
    }
}
Shape{
    appearance Appearance {
        material  Material 	{
            diffuseColor 0.2235294117647059 0.2235294117647059 0.2235294117647059
            specularColor 0.11372549019607843 0.11372549019607843 0.11372549019607843
            ambientIntensity 0.2
            transparency 0
            shininess 0.5
        }
    }
    geometry IndexedFaceSet {
        ccw TRUE
        solid FALSE
        coord DEF co Coordinate {
            point [
                0.0469 -0.128 0.0991, 0.0468 -0.128 0.0991, 0.0471 -0.128 0.0979, 0.0466 -0.128 0.098, 0.0473 -0.128 0.0972, 0.0464 -0.128 0.0972, 0.0513 -0.128 0.0861, 0.0424 -0.128 0.0861, 0.0424 -0.128 0.0861
            ]
        }
        coordIndex [
            0,1,2,-1,2,1,3,-1,2,3,4,-1,4,3,5,-1,4,5,6,-1,6,5,7,-1,
        ]
    }
}
Shape{
    appearance Appearance {
        material  Material 	{
            diffuseColor 1.0 1.0 1.0
            specularColor 0.5019607843137255 0.5019607843137255 0.5019607843137255
            ambientIntensity 0.2
            transparency 0
            shininess 0.5
        }
    }
    geometry IndexedFaceSet {
        ccw TRUE
        solid FALSE
        coord DEF co Coordinate {
            point [
                -0.0338 -0.1319 0.0365, -0.0338 -0.1319 0.0334, -0.0338 -0.128 0.0365, -0.0338 -0.128 0.0334, -0.0447 -0.1319 0.0365, -0.0447 -0.128 0.0365, -0.0447 -0.1319 0.0455, -0.0447 -0.128 0.0455, -0.0352 -0.1319 0.0455, -0.0352 -0.128 0.0455, -0.0352 -0.1319 0.0485, -0.0352 -0.128 0.0485, -0.0447 -0.1319 0.0485, -0.0447 -0.128 0.0485, -0.0447 -0.1319 0.0571, -0.0447 -0.128 0.0571, -0.0344 -0.1319 0.0571, -0.0344 -0.128 0.0571, -0.0344 -0.1319 0.0601, -0.0344 -0.128 0.0601, -0.0482 -0.1319 0.0601, -0.0482 -0.128 0.0601, -0.0482 -0.1319 0.0334, -0.0482 -0.128 0.0334, -0.0153 -0.1319 0.0457, -0.0187 -0.1319 0.043, -0.0187 -0.1319 0.0412, -0.0187 -0.1319 0.0364, -0.0187 -0.1319 0.0364, -0.0189 -0.1319 0.0395, -0.0271 -0.1319 0.0441, -0.0259 -0.1319 0.0416, -0.0251 -0.1319 0.0419, -0.0187 -0.1319 0.0334, -0.0153 -0.1319 0.0334, -0.0243 -0.1319 0.0448, -0.0231 -0.1319 0.0424, -0.0187 -0.1319 0.0456, -0.0266 -0.1319 0.0369, -0.029 -0.1319 0.0345, -0.0263 -0.1319 0.0366, -0.0279 -0.1319 0.0337, -0.0257 -0.1319 0.0362, -0.0267 -0.1319 0.0332, -0.025 -0.1319 0.0359, -0.0251 -0.1319 0.033, -0.0241 -0.1319 0.0357, -0.0246 -0.1319 0.033, -0.0237 -0.1319 0.0357, -0.0227 -0.1319 0.0332, -0.0224 -0.1319 0.0359, -0.0214 -0.1319 0.0337, -0.0214 -0.1319 0.0363, -0.0207 -0.1319 0.0342, -0.0204 -0.1319 0.0369, -0.0196 -0.1319 0.0352, -0.0201 -0.1319 0.0373, -0.0193 -0.1319 0.0383, -0.0288 -0.1319 0.0512, -0.0288 -0.1319 0.0479, -0.0278 -0.1319 0.0517, -0.0265 -0.1319 0.0494, -0.0252 -0.1319 0.0526, -0.0244 -0.1319 0.05, -0.0222 -0.1319 0.0529, -0.0225 -0.1319 0.0502, -0.0199 -0.1319 0.0527, -0.0213 -0.1319 0.0501, -0.0186 -0.1319 0.0522, -0.0205 -0.1319 0.0498, -0.0175 -0.1319 0.0516, -0.0199 -0.1319 0.0494, -0.0169 -0.1319 0.051, -0.0195 -0.1319 0.0488, -0.0162 -0.1319 0.0499, -0.0191 -0.1319 0.0481, -0.0156 -0.1319 0.0485, -0.0187 -0.1319 0.0468, -0.0264 -0.1319 0.0412, -0.0284 -0.1319 0.0433, -0.0268 -0.1319 0.0407, -0.0294 -0.1319 0.0424, -0.0271 -0.1319 0.0401, -0.0301 -0.1319 0.0413, -0.0272 -0.1319 0.0393, -0.0305 -0.1319 0.0401, -0.0272 -0.1319 0.0388, -0.0306 -0.1319 0.0385, -0.0272 -0.1319 0.0381, -0.0304 -0.1319 0.0369, -0.0269 -0.1319 0.0375, -0.03 -0.1319 0.0358, -0.0293 -0.1319 0.0348, -0.0222 -0.128 0.0529, -0.0252 -0.128 0.0526, -0.0278 -0.128 0.0517, -0.0288 -0.128 0.0512, -0.0288 -0.128 0.0479, -0.0265 -0.128 0.0494, -0.0244 -0.128 0.05, -0.0225 -0.128 0.0502, -0.0213 -0.128 0.0501, -0.0205 -0.128 0.0498, -0.0199 -0.128 0.0494, -0.0195 -0.128 0.0488, -0.0191 -0.128 0.0481, -0.0187 -0.128 0.0468, -0.0187 -0.128 0.0456, -0.0243 -0.128 0.0448, -0.0271 -0.128 0.0441, -0.0284 -0.128 0.0433, -0.0294 -0.128 0.0424, -0.0301 -0.128 0.0413, -0.0305 -0.128 0.0401, -0.0306 -0.128 0.0385, -0.0304 -0.128 0.0369, -0.03 -0.128 0.0358, -0.0293 -0.128 0.0348, -0.029 -0.128 0.0345, -0.0246 -0.128 0.033, -0.0279 -0.128 0.0337, -0.0267 -0.128 0.0332, -0.0265 -0.128 0.0332, -0.0251 -0.128 0.033, -0.0228 -0.128 0.0332, -0.0227 -0.128 0.0332, -0.0214 -0.128 0.0337, -0.0207 -0.128 0.0342, -0.0196 -0.128 0.0352, -0.0187 -0.128 0.0364, -0.0187 -0.128 0.0364, -0.0187 -0.128 0.0334, -0.0153 -0.128 0.0334, -0.0153 -0.128 0.0457, -0.0156 -0.128 0.0485, -0.0162 -0.128 0.0499, -0.0169 -0.128 0.051, -0.0175 -0.128 0.0516, -0.0186 -0.128 0.0522, -0.0199 -0.128 0.0527, -0.0264 -0.128 0.0412, -0.0259 -0.128 0.0416, -0.0251 -0.128 0.0419, -0.0231 -0.128 0.0424, -0.0272 -0.128 0.0388, -0.0272 -0.128 0.0393, -0.0271 -0.128 0.0401, -0.0268 -0.128 0.0407, -0.0263 -0.128 0.0366, -0.0266 -0.128 0.0369, -0.0269 -0.128 0.0375, -0.0272 -0.128 0.0381, -0.0237 -0.128 0.0357, -0.0241 -0.128 0.0357, -0.025 -0.128 0.0359, -0.0257 -0.128 0.0362, -0.0201 -0.128 0.0373, -0.0204 -0.128 0.0369, -0.0214 -0.128 0.0363, -0.0224 -0.128 0.0359, -0.0187 -0.128 0.0412, -0.0189 -0.128 0.0395, -0.0193 -0.128 0.0383, -0.0187 -0.128 0.043, -0.0187 -0.128 0.043
            ]
        }
        coordIndex [
            0,1,2,-1,2,1,3,-1,4,0,5,-1,5,0,2,-1,6,4,7,-1,7,4,5,-1,8,6,9,-1,9,6,7,-1,10,8,11,-1,11,8,9,-1,12,10,13,-1,13,10,11,-1,14,12,15,-1,15,12,13,-1,16,14,17,-1,17,14,15,-1,18,16,19,-1,19,16,17,-1,20,18,21,-1,21,18,19,-1,22,20,23,-1,23,20,21,-1,1,22,3,-1,3,22,23,-1,22,1,0,-1,0,4,22,-1,22,4,6,-1,22,6,20,-1,16,18,14,-1,14,18,20,-1,14,20,12,-1,12,20,6,-1,12,6,10,-1,10,6,8,-1,24,25,26,-1,27,28,29,-1,30,31,32,-1,33,34,28,-1,28,34,24,-1,28,24,29,-1,29,24,26,-1,30,32,35,-1,35,32,36,-1,35,36,37,-1,38,39,40,-1,40,39,41,-1,40,41,42,-1,42,41,43,-1,42,43,44,-1,44,43,45,-1,44,45,46,-1,46,45,47,-1,46,47,48,-1,48,47,49,-1,48,49,50,-1,50,49,51,-1,50,51,52,-1,52,51,53,-1,52,53,54,-1,54,53,55,-1,54,55,56,-1,56,55,27,-1,56,27,57,-1,57,27,29,-1,58,59,60,-1,60,59,61,-1,60,61,62,-1,62,61,63,-1,62,63,64,-1,64,63,65,-1,64,65,66,-1,66,65,67,-1,66,67,68,-1,68,67,69,-1,68,69,70,-1,70,69,71,-1,70,71,72,-1,72,71,73,-1,72,73,74,-1,74,73,75,-1,74,75,76,-1,76,75,77,-1,76,77,24,-1,24,77,37,-1,24,37,25,-1,25,37,36,-1,31,30,78,-1,78,30,79,-1,78,79,80,-1,80,79,81,-1,80,81,82,-1,82,81,83,-1,82,83,84,-1,84,83,85,-1,84,85,86,-1,86,85,87,-1,86,87,88,-1,88,87,89,-1,88,89,90,-1,90,89,91,-1,90,91,38,-1,38,91,92,-1,38,92,39,-1,64,93,94,-1,64,94,62,-1,62,94,95,-1,62,95,60,-1,60,95,96,-1,60,96,58,-1,59,58,97,-1,97,58,96,-1,59,97,98,-1,59,98,61,-1,61,98,99,-1,61,99,63,-1,63,99,100,-1,63,100,65,-1,65,100,101,-1,65,101,67,-1,67,101,102,-1,67,102,69,-1,69,102,103,-1,69,103,71,-1,71,103,104,-1,71,104,73,-1,73,104,105,-1,73,105,75,-1,75,105,106,-1,75,106,77,-1,77,106,107,-1,77,107,37,-1,35,37,108,-1,108,37,107,-1,35,108,109,-1,35,109,30,-1,30,109,110,-1,30,110,79,-1,79,110,111,-1,79,111,81,-1,81,111,112,-1,81,112,83,-1,83,112,113,-1,83,113,85,-1,85,113,114,-1,85,114,87,-1,87,114,115,-1,87,115,89,-1,89,115,116,-1,89,116,91,-1,91,116,117,-1,91,117,92,-1,92,117,118,-1,92,118,39,-1,119,47,45,-1,39,118,120,-1,39,120,41,-1,41,120,121,-1,41,121,43,-1,43,121,122,-1,43,122,45,-1,45,122,123,-1,45,123,119,-1,119,124,47,-1,47,124,49,-1,124,125,49,-1,49,125,126,-1,49,126,51,-1,51,126,127,-1,51,127,53,-1,53,127,128,-1,53,128,55,-1,55,128,129,-1,55,129,27,-1,28,27,130,-1,130,27,129,-1,33,28,131,-1,131,28,130,-1,34,33,132,-1,132,33,131,-1,24,34,133,-1,133,34,132,-1,24,133,134,-1,24,134,76,-1,76,134,135,-1,76,135,74,-1,74,135,136,-1,74,136,72,-1,72,136,137,-1,72,137,70,-1,70,137,138,-1,70,138,68,-1,68,138,139,-1,68,139,66,-1,66,139,93,-1,66,93,64,-1,78,140,141,-1,78,141,31,-1,31,141,142,-1,31,142,32,-1,32,142,143,-1,32,143,36,-1,86,144,145,-1,86,145,84,-1,84,145,146,-1,84,146,82,-1,82,146,147,-1,82,147,80,-1,80,147,140,-1,80,140,78,-1,40,148,149,-1,40,149,38,-1,38,149,150,-1,38,150,90,-1,90,150,151,-1,90,151,88,-1,88,151,144,-1,88,144,86,-1,48,152,153,-1,48,153,46,-1,46,153,154,-1,46,154,44,-1,44,154,155,-1,44,155,42,-1,42,155,148,-1,42,148,40,-1,56,156,157,-1,56,157,54,-1,54,157,158,-1,54,158,52,-1,52,158,159,-1,52,159,50,-1,50,159,152,-1,50,152,48,-1,26,160,161,-1,26,161,29,-1,29,161,162,-1,29,162,57,-1,57,162,156,-1,57,156,56,-1,26,25,160,-1,160,25,163,-1,25,36,163,-1,163,36,143,-1,
        ]
    }
}
Shape{
    appearance Appearance {
        material  Material 	{
            diffuseColor 0.2235294117647059 0.2235294117647059 0.2235294117647059
            specularColor 0.11372549019607843 0.11372549019607843 0.11372549019607843
            ambientIntensity 0.2
            transparency 0
            shininess 0.5
        }
    }
    geometry IndexedFaceSet {
        ccw TRUE
        solid FALSE
        coord DEF co Coordinate {
            point [
                -0.0237 -0.128 0.0357, -0.0224 -0.128 0.0359, -0.0231 -0.128 0.0424, -0.0201 -0.128 0.0373, -0.0193 -0.128 0.0383, -0.0214 -0.128 0.0363, -0.0204 -0.128 0.0369, -0.0189 -0.128 0.0395, -0.0187 -0.128 0.0412, -0.0187 -0.128 0.043, -0.0241 -0.128 0.0357, -0.0251 -0.128 0.0419, -0.0259 -0.128 0.0416, -0.0272 -0.128 0.0381, -0.0269 -0.128 0.0375, -0.0266 -0.128 0.0369, -0.0271 -0.128 0.0401, -0.0272 -0.128 0.0393, -0.0272 -0.128 0.0388, -0.025 -0.128 0.0359, -0.0257 -0.128 0.0362, -0.0263 -0.128 0.0366, -0.0264 -0.128 0.0412, -0.0268 -0.128 0.0407, -0.0268 -0.128 0.0407
            ]
        }
        coordIndex [
            0,1,2,-1,2,3,4,-1,1,5,2,-1,2,5,6,-1,2,6,3,-1,4,7,2,-1,2,7,8,-1,2,8,9,-1,0,2,10,-1,10,2,11,-1,10,11,12,-1,13,14,15,-1,16,17,10,-1,10,17,18,-1,10,18,19,-1,19,18,20,-1,13,15,18,-1,18,15,21,-1,18,21,20,-1,12,22,10,-1,10,22,23,-1,10,23,16,-1,
        ]
    }
}
Shape{
    appearance Appearance {
        material  Material 	{
            diffuseColor 1.0 1.0 1.0
            specularColor 0.5019607843137255 0.5019607843137255 0.5019607843137255
            ambientIntensity 0.2
            transparency 0
            shininess 0.5
        }
    }
    geometry IndexedFaceSet {
        ccw TRUE
        solid FALSE
        coord DEF co Coordinate {
            point [
                -0.0108 -0.128 0.0376, -0.0108 -0.1319 0.0376, -0.0096 -0.1319 0.0368, -0.0053 -0.1319 0.0357, -0.0053 -0.128 0.0357, -0.0075 -0.128 0.036, -0.0075 -0.1319 0.036, -0.0092 -0.128 0.0367, -0.0096 -0.128 0.0368, -0.0108 -0.1319 0.0341, -0.0108 -0.128 0.0341, -0.0092 -0.128 0.0336, -0.0085 -0.1319 0.0333, -0.0056 -0.128 0.033, -0.0056 -0.1319 0.033, -0.0077 -0.128 0.0332, -0.0085 -0.128 0.0333, -0.0036 -0.128 0.0332, -0.0027 -0.1319 0.0333, -0.0027 -0.128 0.0333, -0.0009 -0.128 0.034, -0.0009 -0.1319 0.034, -0.0001 -0.128 0.0345, -0.0001 -0.1319 0.0345, 0.001 -0.128 0.0354, 0.001 -0.1319 0.0354, 0.0016 -0.128 0.0363, 0.0016 -0.1319 0.0363, 0.002 -0.128 0.0374, 0.002 -0.1319 0.0374, 0.0021 -0.128 0.0386, 0.0021 -0.1319 0.0386, 0.0019 -0.128 0.04, 0.0019 -0.1319 0.04, 0.0015 -0.128 0.0409, 0.0015 -0.1319 0.0409, 0.001 -0.128 0.0418, 0.001 -0.1319 0.0418, 0.0 -0.128 0.0426, 0.0 -0.1319 0.0426, -0.0022 -0.128 0.0438, -0.0022 -0.1319 0.0438, -0.0033 -0.128 0.0442, -0.0033 -0.1319 0.0442, -0.0054 -0.128 0.0451, -0.0054 -0.1319 0.0451, -0.0066 -0.128 0.0459, -0.0066 -0.1319 0.0459, -0.0069 -0.128 0.0462, -0.0069 -0.1319 0.0462, -0.0072 -0.128 0.0467, -0.0072 -0.1319 0.0467, -0.0073 -0.128 0.0472, -0.0073 -0.1319 0.0472, -0.0073 -0.128 0.0477, -0.0073 -0.1319 0.0477, -0.0073 -0.128 0.0482, -0.0073 -0.1319 0.0482, -0.0071 -0.128 0.0486, -0.0071 -0.1319 0.0486, -0.0068 -0.128 0.0491, -0.0068 -0.1319 0.0491, -0.0063 -0.128 0.0495, -0.0063 -0.1319 0.0495, -0.0057 -0.128 0.0499, -0.0057 -0.1319 0.0499, -0.0048 -0.128 0.0501, -0.0048 -0.1319 0.0501, -0.0037 -0.128 0.0502, -0.0037 -0.1319 0.0502, -0.0013 -0.128 0.0499, -0.0013 -0.1319 0.0499, 0.0006 -0.128 0.0492, 0.0006 -0.1319 0.0492, 0.0012 -0.128 0.0488, 0.0012 -0.1319 0.0488, 0.0012 -0.1319 0.0521, 0.0012 -0.128 0.0521, -0.001 -0.128 0.0527, -0.001 -0.1319 0.0527, -0.0033 -0.128 0.0529, -0.0033 -0.1319 0.0529, -0.006 -0.128 0.0526, -0.006 -0.1319 0.0526, -0.0078 -0.128 0.0519, -0.0078 -0.1319 0.0519, -0.0086 -0.128 0.0514, -0.0086 -0.1319 0.0514, -0.0092 -0.128 0.0509, -0.0097 -0.1319 0.0504, -0.0097 -0.128 0.0504, -0.0103 -0.128 0.0495, -0.0103 -0.1319 0.0495, -0.0107 -0.128 0.0484, -0.0107 -0.1319 0.0484, -0.0108 -0.128 0.0474, -0.0108 -0.1319 0.0474, -0.0106 -0.128 0.0459, -0.0106 -0.1319 0.0459, -0.0102 -0.128 0.0449, -0.0102 -0.1319 0.0449, -0.0098 -0.128 0.0443, -0.0098 -0.1319 0.0443, -0.0092 -0.128 0.0438, -0.0092 -0.1319 0.0437, -0.0092 -0.128 0.0437, -0.0074 -0.128 0.0426, -0.0074 -0.1319 0.0426, -0.0057 -0.128 0.0418, -0.0057 -0.1319 0.0418, -0.0035 -0.128 0.0409, -0.0035 -0.1319 0.0409, -0.0022 -0.128 0.0401, -0.0022 -0.1319 0.0401, -0.0018 -0.128 0.0396, -0.0018 -0.1319 0.0396, -0.0015 -0.128 0.0392, -0.0015 -0.1319 0.0392, -0.0014 -0.128 0.0387, -0.0014 -0.1319 0.0387, -0.0013 -0.128 0.0383, -0.0013 -0.1319 0.0383, -0.0014 -0.128 0.0376, -0.0014 -0.1319 0.0376, -0.0016 -0.128 0.0372, -0.0016 -0.1319 0.0372, -0.0019 -0.128 0.0367, -0.0019 -0.1319 0.0367, -0.0023 -0.128 0.0364, -0.0023 -0.1319 0.0364, -0.0025 -0.128 0.0363, -0.0025 -0.1319 0.0363, -0.0033 -0.128 0.0359, -0.0033 -0.1319 0.0359, -0.0048 -0.128 0.0357, -0.0048 -0.1319 0.0357, 0.0187 -0.1319 0.0525, 0.0221 -0.1319 0.0525, 0.0187 -0.128 0.0525, 0.0221 -0.128 0.0525, 0.0135 -0.1319 0.0381, 0.0135 -0.128 0.0381, 0.0132 -0.128 0.0373, 0.0132 -0.1319 0.0373, 0.013 -0.128 0.0366, 0.013 -0.1319 0.0366, 0.013 -0.1319 0.0366, 0.013 -0.128 0.0366, 0.0125 -0.1319 0.0382, 0.0125 -0.128 0.0382, 0.0076 -0.1319 0.0525, 0.0092 -0.128 0.0479, 0.0076 -0.128 0.0525, 0.0038 -0.1319 0.0525, 0.0038 -0.128 0.0525, 0.0113 -0.1319 0.0335, 0.0092 -0.128 0.0389, 0.0113 -0.128 0.0335, 0.0098 -0.128 0.03, 0.0098 -0.1319 0.03, 0.0112 -0.128 0.0332, 0.0092 -0.128 0.0288, 0.0092 -0.1319 0.0288, 0.0092 -0.128 0.0288, 0.0085 -0.128 0.0281, 0.0085 -0.1319 0.0281, 0.008 -0.128 0.0277, 0.008 -0.1319 0.0277, 0.0073 -0.128 0.0274, 0.0073 -0.1319 0.0274, 0.0065 -0.128 0.0273, 0.0065 -0.1319 0.0273, 0.0064 -0.128 0.0273, 0.0064 -0.1319 0.0273, 0.0055 -0.128 0.0274, 0.0055 -0.1319 0.0274, 0.0045 -0.128 0.0277, 0.0045 -0.1319 0.0277, 0.0045 -0.1319 0.0247, 0.0045 -0.128 0.0247, 0.0055 -0.128 0.0245, 0.0055 -0.1319 0.0245, 0.0067 -0.128 0.0245, 0.0067 -0.1319 0.0245, 0.0081 -0.128 0.0246, 0.0081 -0.1319 0.0246, 0.0092 -0.128 0.0251, 0.0094 -0.1319 0.0252, 0.0094 -0.128 0.0252, 0.0106 -0.128 0.026, 0.0106 -0.1319 0.026, 0.0119 -0.128 0.0276, 0.0119 -0.1319 0.0276, 0.0135 -0.128 0.0306, 0.0135 -0.1319 0.0306, 0.0145 -0.128 0.0332, 0.0401 -0.1319 0.0365, 0.0401 -0.1319 0.0334, 0.0401 -0.128 0.0365, 0.0401 -0.128 0.0334, 0.0292 -0.1319 0.0365, 0.0342 -0.128 0.0365, 0.0292 -0.128 0.0365, 0.0292 -0.1319 0.0455, 0.0292 -0.128 0.0455, 0.0387 -0.1319 0.0455, 0.0342 -0.128 0.0455, 0.0387 -0.128 0.0455, 0.0387 -0.1319 0.0485, 0.0387 -0.128 0.0485, 0.0292 -0.128 0.0485, 0.0292 -0.1319 0.0485, 0.0342 -0.128 0.0485, 0.0292 -0.1319 0.0571, 0.0292 -0.128 0.0571, 0.0395 -0.128 0.0571, 0.0395 -0.1319 0.0571, 0.0342 -0.128 0.0571, 0.0395 -0.1319 0.0601, 0.0395 -0.128 0.0601, 0.0257 -0.128 0.0601, 0.0257 -0.1319 0.0601, 0.0342 -0.128 0.0601, 0.0257 -0.1319 0.0334, 0.0257 -0.128 0.0334, 0.0342 -0.128 0.0334, 0.0617 -0.1319 0.0409, 0.0604 -0.1319 0.0393, 0.0628 -0.1319 0.0372, 0.0598 -0.1319 0.0387, 0.06 -0.1319 0.0352, 0.058 -0.1319 0.0376, 0.0569 -0.1319 0.034, 0.0557 -0.1319 0.0368, 0.0525 -0.1319 0.0334, 0.0524 -0.1319 0.0365, 0.0451 -0.1319 0.0334, 0.0486 -0.1319 0.0365, 0.0451 -0.1319 0.0601, 0.0486 -0.1319 0.0571, 0.0527 -0.1319 0.0601, 0.0526 -0.1319 0.0571, 0.0572 -0.1319 0.0596, 0.0561 -0.1319 0.0567, 0.0604 -0.1319 0.0583, 0.0584 -0.1319 0.0558, 0.0628 -0.1319 0.0566, 0.0603 -0.1319 0.0545, 0.0641 -0.1319 0.0554, 0.0612 -0.1319 0.0536, 0.0656 -0.1319 0.0529, 0.0622 -0.1319 0.0521, 0.0665 -0.1319 0.0503, 0.0629 -0.1319 0.0501, 0.0669 -0.1319 0.0471, 0.0632 -0.1319 0.047, 0.0667 -0.1319 0.0452, 0.0631 -0.1319 0.0453, 0.0661 -0.1319 0.0421, 0.0626 -0.1319 0.0429, 0.0647 -0.1319 0.0394, 0.0525 -0.128 0.0334, 0.0451 -0.128 0.0334, 0.0569 -0.128 0.034, 0.06 -0.128 0.0352, 0.0628 -0.128 0.0372, 0.0647 -0.128 0.0394, 0.0661 -0.128 0.0421, 0.0667 -0.128 0.0452, 0.0669 -0.128 0.0471, 0.0665 -0.128 0.0503, 0.0656 -0.128 0.0529, 0.0641 -0.128 0.0554, 0.0628 -0.128 0.0566, 0.0604 -0.128 0.0583, 0.0572 -0.128 0.0596, 0.0527 -0.128 0.0601, 0.0451 -0.128 0.0601, 0.0526 -0.128 0.0571, 0.0486 -0.128 0.0571, 0.0486 -0.128 0.0365, 0.0524 -0.128 0.0365, 0.0604 -0.128 0.0393, 0.0598 -0.128 0.0387, 0.058 -0.128 0.0376, 0.0557 -0.128 0.0368, 0.0632 -0.128 0.047, 0.0631 -0.128 0.0453, 0.0626 -0.128 0.0429, 0.0617 -0.128 0.0409, 0.0603 -0.128 0.0545, 0.0612 -0.128 0.0536, 0.0622 -0.128 0.0521, 0.0629 -0.128 0.0501, 0.0561 -0.128 0.0567, 0.0584 -0.128 0.0558, 0.0584 -0.128 0.0558
            ]
        }
        coordIndex [
            0,1,2,-1,3,4,5,-1,3,5,6,-1,6,5,7,-1,6,7,2,-1,2,7,8,-1,2,8,0,-1,9,1,10,-1,10,1,0,-1,10,11,9,-1,9,11,12,-1,13,14,15,-1,15,14,12,-1,15,12,16,-1,16,12,11,-1,13,17,14,-1,14,17,18,-1,17,19,18,-1,18,19,20,-1,18,20,21,-1,21,20,22,-1,21,22,23,-1,23,22,24,-1,23,24,25,-1,25,24,26,-1,25,26,27,-1,27,26,28,-1,27,28,29,-1,29,28,30,-1,29,30,31,-1,31,30,32,-1,31,32,33,-1,33,32,34,-1,33,34,35,-1,35,34,36,-1,35,36,37,-1,37,36,38,-1,37,38,39,-1,39,38,40,-1,39,40,41,-1,41,40,42,-1,41,42,43,-1,43,42,44,-1,43,44,45,-1,45,44,46,-1,45,46,47,-1,47,46,48,-1,47,48,49,-1,49,48,50,-1,49,50,51,-1,51,50,52,-1,51,52,53,-1,53,52,54,-1,53,54,55,-1,55,54,56,-1,55,56,57,-1,57,56,58,-1,57,58,59,-1,59,58,60,-1,59,60,61,-1,61,60,62,-1,61,62,63,-1,63,62,64,-1,63,64,65,-1,65,64,66,-1,65,66,67,-1,67,66,68,-1,67,68,69,-1,69,68,70,-1,69,70,71,-1,71,70,72,-1,71,72,73,-1,73,72,74,-1,73,74,75,-1,76,75,77,-1,77,75,74,-1,76,77,78,-1,76,78,79,-1,79,78,80,-1,79,80,81,-1,81,80,82,-1,81,82,83,-1,83,82,84,-1,83,84,85,-1,85,84,86,-1,85,86,87,-1,86,88,87,-1,87,88,89,-1,88,90,89,-1,89,90,91,-1,89,91,92,-1,92,91,93,-1,92,93,94,-1,94,93,95,-1,94,95,96,-1,96,95,97,-1,96,97,98,-1,98,97,99,-1,98,99,100,-1,100,99,101,-1,100,101,102,-1,101,103,102,-1,102,103,104,-1,103,105,104,-1,104,105,106,-1,104,106,107,-1,107,106,108,-1,107,108,109,-1,109,108,110,-1,109,110,111,-1,111,110,112,-1,111,112,113,-1,113,112,114,-1,113,114,115,-1,115,114,116,-1,115,116,117,-1,117,116,118,-1,117,118,119,-1,119,118,120,-1,119,120,121,-1,121,120,122,-1,121,122,123,-1,123,122,124,-1,123,124,125,-1,125,124,126,-1,125,126,127,-1,127,126,128,-1,127,128,129,-1,129,128,130,-1,129,130,131,-1,131,130,132,-1,131,132,133,-1,133,132,134,-1,133,134,135,-1,135,134,4,-1,135,4,3,-1,59,61,87,-1,87,61,85,-1,85,61,63,-1,85,63,83,-1,125,127,23,-1,111,43,109,-1,109,43,45,-1,23,127,21,-1,14,3,12,-1,12,3,6,-1,12,6,9,-1,9,6,2,-1,9,2,1,-1,63,65,83,-1,83,65,67,-1,83,67,81,-1,81,67,69,-1,81,69,79,-1,79,69,71,-1,79,71,76,-1,76,71,73,-1,76,73,75,-1,23,25,125,-1,125,25,27,-1,125,27,123,-1,123,27,29,-1,123,29,121,-1,121,29,31,-1,121,31,119,-1,119,31,33,-1,119,33,117,-1,117,33,35,-1,117,35,115,-1,115,35,37,-1,115,37,113,-1,113,37,39,-1,113,39,111,-1,111,39,41,-1,111,41,43,-1,127,129,21,-1,21,129,131,-1,21,131,18,-1,18,131,133,-1,18,133,14,-1,14,133,135,-1,14,135,3,-1,87,89,59,-1,59,89,92,-1,59,92,57,-1,57,92,94,-1,57,94,55,-1,55,94,96,-1,55,96,53,-1,53,96,98,-1,53,98,51,-1,51,98,100,-1,51,100,49,-1,49,100,102,-1,49,102,47,-1,47,102,104,-1,47,104,45,-1,45,104,107,-1,45,107,109,-1,136,137,138,-1,138,137,139,-1,140,136,141,-1,141,136,138,-1,140,141,142,-1,140,142,143,-1,143,142,144,-1,143,144,145,-1,146,145,147,-1,147,145,144,-1,148,146,149,-1,149,146,147,-1,148,149,150,-1,150,149,151,-1,150,151,152,-1,153,150,154,-1,154,150,152,-1,153,154,155,-1,155,154,156,-1,155,156,157,-1,158,159,160,-1,160,159,155,-1,160,155,157,-1,158,161,159,-1,159,161,162,-1,161,163,162,-1,162,163,164,-1,162,164,165,-1,165,164,166,-1,165,166,167,-1,167,166,168,-1,167,168,169,-1,169,168,170,-1,169,170,171,-1,171,170,172,-1,171,172,173,-1,173,172,174,-1,173,174,175,-1,175,174,176,-1,175,176,177,-1,178,177,179,-1,179,177,176,-1,178,179,180,-1,178,180,181,-1,181,180,182,-1,181,182,183,-1,183,182,184,-1,183,184,185,-1,185,184,186,-1,185,186,187,-1,186,188,187,-1,187,188,189,-1,187,189,190,-1,190,189,191,-1,190,191,192,-1,192,191,193,-1,192,193,194,-1,139,137,195,-1,195,137,194,-1,195,194,193,-1,143,145,194,-1,137,136,194,-1,194,136,140,-1,194,140,143,-1,150,153,148,-1,148,153,155,-1,148,155,146,-1,145,146,194,-1,194,146,155,-1,194,155,192,-1,155,159,192,-1,192,159,162,-1,192,162,190,-1,190,162,165,-1,190,165,187,-1,187,165,167,-1,187,167,185,-1,185,167,169,-1,185,169,183,-1,169,171,183,-1,183,171,173,-1,183,173,181,-1,181,173,175,-1,181,175,178,-1,178,175,177,-1,196,197,198,-1,198,197,199,-1,196,198,200,-1,200,198,201,-1,200,201,202,-1,203,200,204,-1,204,200,202,-1,203,204,205,-1,205,204,206,-1,205,206,207,-1,208,205,209,-1,209,205,207,-1,210,211,212,-1,212,211,208,-1,212,208,209,-1,213,211,214,-1,214,211,210,-1,215,216,217,-1,217,216,213,-1,217,213,214,-1,218,216,219,-1,219,216,215,-1,220,221,222,-1,222,221,218,-1,222,218,219,-1,223,221,224,-1,224,221,220,-1,223,224,197,-1,197,224,225,-1,197,225,199,-1,223,197,196,-1,196,200,223,-1,223,200,203,-1,223,203,221,-1,216,218,213,-1,213,218,221,-1,213,221,211,-1,211,221,203,-1,211,203,208,-1,208,203,205,-1,226,227,228,-1,228,227,229,-1,228,229,230,-1,230,229,231,-1,230,231,232,-1,232,231,233,-1,232,233,234,-1,234,233,235,-1,234,235,236,-1,236,235,237,-1,236,237,238,-1,238,237,239,-1,238,239,240,-1,240,239,241,-1,240,241,242,-1,242,241,243,-1,242,243,244,-1,244,243,245,-1,244,245,246,-1,246,245,247,-1,246,247,248,-1,248,247,249,-1,248,249,250,-1,250,249,251,-1,250,251,252,-1,252,251,253,-1,252,253,254,-1,254,253,255,-1,254,255,256,-1,256,255,257,-1,256,257,258,-1,258,257,259,-1,258,259,260,-1,260,259,226,-1,260,226,228,-1,234,236,261,-1,261,236,262,-1,234,261,263,-1,234,263,232,-1,232,263,264,-1,232,264,230,-1,230,264,265,-1,230,265,228,-1,228,265,266,-1,228,266,260,-1,260,266,267,-1,260,267,258,-1,258,267,268,-1,258,268,256,-1,256,268,269,-1,256,269,254,-1,254,269,270,-1,254,270,252,-1,252,270,271,-1,252,271,250,-1,250,271,272,-1,250,272,248,-1,248,272,273,-1,248,273,246,-1,246,273,274,-1,246,274,244,-1,244,274,275,-1,244,275,242,-1,242,275,276,-1,242,276,240,-1,238,240,277,-1,277,240,276,-1,236,238,262,-1,262,238,277,-1,241,239,278,-1,278,239,279,-1,239,237,279,-1,279,237,280,-1,237,235,280,-1,280,235,281,-1,227,282,283,-1,227,283,229,-1,229,283,284,-1,229,284,231,-1,231,284,285,-1,231,285,233,-1,233,285,281,-1,233,281,235,-1,255,286,287,-1,255,287,257,-1,257,287,288,-1,257,288,259,-1,259,288,289,-1,259,289,226,-1,226,289,282,-1,226,282,227,-1,247,290,291,-1,247,291,249,-1,249,291,292,-1,249,292,251,-1,251,292,293,-1,251,293,253,-1,253,293,286,-1,253,286,255,-1,241,278,294,-1,241,294,243,-1,243,294,295,-1,243,295,245,-1,245,295,290,-1,245,290,247,-1,
        ]
    }
}
Shape{
    appearance Appearance {
        material  Material 	{
            diffuseColor 0.2235294117647059 0.2235294117647059 0.2235294117647059
            specularColor 0.11372549019607843 0.11372549019607843 0.11372549019607843
            ambientIntensity 0.2
            transparency 0
            shininess 0.5
        }
    }
    geometry IndexedFaceSet {
        ccw TRUE
        solid FALSE
        coord DEF co Coordinate {
            point [
                0.0486 -0.128 0.0571, 0.0486 -0.128 0.0365, 0.0526 -0.128 0.0571, 0.0524 -0.128 0.0365, 0.0557 -0.128 0.0368, 0.0604 -0.128 0.0393, 0.0617 -0.128 0.0409, 0.0626 -0.128 0.0429, 0.0631 -0.128 0.0453, 0.058 -0.128 0.0376, 0.0598 -0.128 0.0387, 0.0632 -0.128 0.047, 0.0629 -0.128 0.0501, 0.0622 -0.128 0.0521, 0.0612 -0.128 0.0536, 0.0603 -0.128 0.0545, 0.0561 -0.128 0.0567, 0.0584 -0.128 0.0558, 0.0584 -0.128 0.0558
            ]
        }
        coordIndex [
            0,1,2,-1,2,1,3,-1,2,3,4,-1,5,6,2,-1,2,6,7,-1,2,7,8,-1,4,9,2,-1,2,9,10,-1,2,10,5,-1,8,11,2,-1,2,11,12,-1,2,12,13,-1,13,14,2,-1,2,14,15,-1,2,15,16,-1,16,15,17,-1,
        ]
    }
}
Shape{
    appearance Appearance {
        material  Material 	{
            diffuseColor 1.0 1.0 1.0
            specularColor 0.5019607843137255 0.5019607843137255 0.5019607843137255
            ambientIntensity 0.2
            transparency 0
            shininess 0.5
        }
    }
    geometry IndexedFaceSet {
        ccw TRUE
        solid FALSE
        coord DEF co Coordinate {
            point [
                0.0758 -0.1319 0.0438, 0.0747 -0.1319 0.0407, 0.0848 -0.1319 0.0438, 0.0858 -0.1319 0.0407, 0.0798 -0.1319 0.0548, 0.0785 -0.1319 0.0601, 0.0683 -0.1319 0.0334, 0.0721 -0.1319 0.0334, 0.08 -0.1319 0.0556, 0.0802 -0.1319 0.0567, 0.0822 -0.1319 0.0601, 0.0803 -0.1319 0.0567, 0.0805 -0.1319 0.0556, 0.0807 -0.1319 0.0548, 0.0924 -0.1319 0.0334, 0.0885 -0.1319 0.0334, 0.0822 -0.128 0.0601, 0.0924 -0.128 0.0334, 0.0785 -0.128 0.0601, 0.0683 -0.128 0.0334, 0.0721 -0.128 0.0334, 0.0747 -0.128 0.0407, 0.0858 -0.128 0.0407, 0.0885 -0.128 0.0334, 0.0758 -0.128 0.0438, 0.0848 -0.128 0.0438, 0.0807 -0.128 0.0548, 0.0803 -0.128 0.0567, 0.0805 -0.128 0.0556, 0.0802 -0.128 0.0567, 0.0798 -0.128 0.0548, 0.08 -0.128 0.0556, 0.08 -0.128 0.0556
            ]
        }
        coordIndex [
            0,1,2,-1,2,1,3,-1,4,5,0,-1,0,5,6,-1,0,6,1,-1,1,6,7,-1,4,8,5,-1,5,8,9,-1,5,9,10,-1,10,9,11,-1,10,11,12,-1,12,13,10,-1,10,13,2,-1,10,2,14,-1,14,2,3,-1,14,3,15,-1,10,14,16,-1,16,14,17,-1,5,10,18,-1,18,10,16,-1,6,5,19,-1,19,5,18,-1,7,6,20,-1,20,6,19,-1,1,7,21,-1,21,7,20,-1,3,1,22,-1,22,1,21,-1,15,3,23,-1,23,3,22,-1,14,15,17,-1,17,15,23,-1,0,2,24,-1,24,2,25,-1,2,13,25,-1,25,13,26,-1,11,27,28,-1,11,28,12,-1,12,28,26,-1,12,26,13,-1,11,9,27,-1,27,9,29,-1,4,30,31,-1,4,31,8,-1,8,31,29,-1,8,29,9,-1,4,0,30,-1,30,0,24,-1,
        ]
    }
}
Shape{
    appearance Appearance {
        material  Material 	{
            diffuseColor 0.2235294117647059 0.2235294117647059 0.2235294117647059
            specularColor 0.11372549019607843 0.11372549019607843 0.11372549019607843
            ambientIntensity 0.2
            transparency 0
            shininess 0.5
        }
    }
    geometry IndexedFaceSet {
        ccw TRUE
        solid FALSE
        coord DEF co Coordinate {
            point [
                0.0803 -0.128 0.0567, 0.0802 -0.128 0.0567, 0.0805 -0.128 0.0556, 0.08 -0.128 0.0556, 0.0807 -0.128 0.0548, 0.0798 -0.128 0.0548, 0.0848 -0.128 0.0438, 0.0758 -0.128 0.0438, 0.0758 -0.128 0.0438
            ]
        }
        coordIndex [
            0,1,2,-1,2,1,3,-1,2,3,4,-1,4,3,5,-1,4,5,6,-1,6,5,7,-1,
        ]
    }
}
Shape{
    appearance Appearance {
        material  Material 	{
            diffuseColor 1.0 1.0 1.0
            specularColor 0.5019607843137255 0.5019607843137255 0.5019607843137255
            ambientIntensity 0.2
            transparency 0
            shininess 0.5
        }
    }
    geometry IndexedFaceSet {
        ccw TRUE
        solid FALSE
        coord DEF co Coordinate {
            point [
                -0.1661 -0.1319 0.0296, -0.1632 -0.1319 0.0262, -0.1678 -0.1319 0.0464, -0.1344 -0.1319 0.0289, -0.1322 -0.1319 0.0331, -0.1311 -0.1319 0.0378, -0.156 -0.1319 0.0939, -0.1501 -0.1319 0.08, -0.1472 -0.1319 0.086, -0.1719 -0.1319 0.049, -0.171 -0.1319 0.0347, -0.168 -0.1319 0.0337, -0.1044 -0.1319 0.0557, -0.1103 -0.1319 0.0658, -0.131 -0.1319 0.0417, -0.1357 -0.1319 0.0525, -0.131 -0.1319 0.0398, -0.1411 -0.1319 0.023, -0.1373 -0.1319 0.0257, -0.1551 -0.1319 0.0341, -0.1536 -0.1319 0.0331, -0.1595 -0.1319 0.0234, -0.1518 -0.1319 0.0324, -0.1433 -0.1319 0.0425, -0.1428 -0.1319 0.0408, -0.1428 -0.1319 0.039, -0.1432 -0.1319 0.0371, -0.144 -0.1319 0.0355, -0.0771 -0.1319 0.0773, -0.0823 -0.1319 0.0817, -0.0897 -0.1319 0.0728, -0.0879 -0.1319 0.0845, -0.093 -0.1319 0.0741, -0.0888 -0.1319 0.0848, -0.0966 -0.1319 0.0745, -0.1521 -0.1319 0.0984, -0.143 -0.1319 0.0911, -0.1477 -0.1319 0.1022, -0.1379 -0.1319 0.0948, -0.1407 -0.1319 0.1062, -0.133 -0.1319 0.1088, -0.1317 -0.1319 0.0973, -0.1249 -0.1319 0.1096, -0.1247 -0.1319 0.0982, -0.1221 -0.1319 0.1095, -0.1183 -0.1319 0.0975, -0.1139 -0.1319 0.108, -0.1022 -0.1319 0.086, -0.0993 -0.1319 0.0798, -0.0981 -0.1319 0.0745, -0.1669 -0.1319 0.0816, -0.1622 -0.1319 0.0828, -0.1604 -0.1319 0.0943, -0.1602 -0.1319 0.0829, -0.1582 -0.1319 0.0941, -0.1557 -0.1319 0.0823, -0.1514 -0.1319 0.0807, -0.1575 -0.1319 0.0388, -0.1571 -0.1319 0.0371, -0.1563 -0.1319 0.0355, -0.1551 -0.1319 0.0215, -0.1507 -0.1319 0.0208, -0.1501 -0.1319 0.0322, -0.1499 -0.1319 0.0208, -0.1483 -0.1319 0.0324, -0.1453 -0.1319 0.0214, -0.1467 -0.1319 0.0331, -0.1452 -0.1319 0.0341, -0.0771 -0.1319 0.0419, -0.0859 -0.1319 0.0494, -0.0822 -0.1319 0.0375, -0.0887 -0.1319 0.0471, -0.088 -0.1319 0.0347, -0.092 -0.1319 0.0456, -0.0943 -0.1319 0.0333, -0.0955 -0.1319 0.0449, -0.1055 -0.1319 0.0333, -0.104 -0.1319 0.0449, -0.1065 -0.1319 0.0335, -0.1753 -0.1319 0.0525, -0.1831 -0.1319 0.0428, -0.1775 -0.1319 0.038, -0.0867 -0.1319 0.0707, -0.0846 -0.1319 0.0683, -0.0732 -0.1319 0.0719, -0.0828 -0.1319 0.0651, -0.0709 -0.1319 0.0661, -0.0819 -0.1319 0.0614, -0.07 -0.1319 0.0599, -0.0818 -0.1319 0.0597, -0.0709 -0.1319 0.0531, -0.0823 -0.1319 0.056, -0.0733 -0.1319 0.0471, -0.0836 -0.1319 0.0526, -0.0857 -0.1319 0.0497, -0.0991 -0.1319 0.0998, -0.1065 -0.1319 0.0911, -0.0973 -0.1319 0.098, -0.0923 -0.1319 0.0918, -0.1786 -0.1319 0.0685, -0.191 -0.1319 0.0655, -0.1792 -0.1319 0.0639, -0.1911 -0.1319 0.0635, -0.1789 -0.1319 0.0609, -0.1902 -0.1319 0.0563, -0.1776 -0.1319 0.0563, -0.1877 -0.1319 0.0494, -0.1838 -0.1319 0.0436, -0.1574 -0.1319 0.0407, -0.1569 -0.1319 0.0425, -0.1657 -0.1319 0.0505, -0.156 -0.1319 0.0441, -0.1625 -0.1319 0.0541, -0.1551 -0.1319 0.0451, -0.1587 -0.1319 0.0568, -0.1536 -0.1319 0.0462, -0.1545 -0.1319 0.0584, -0.1519 -0.1319 0.0468, -0.1499 -0.1319 0.059, -0.1501 -0.1319 0.047, -0.1476 -0.1319 0.0588, -0.1488 -0.1319 0.0469, -0.1431 -0.1319 0.0577, -0.147 -0.1319 0.0463, -0.139 -0.1319 0.0555, -0.1455 -0.1319 0.0454, -0.1442 -0.1319 0.044, -0.1061 -0.1319 0.1047, -0.1123 -0.1319 0.0952, -0.107 -0.1319 0.0915, -0.1676 -0.1319 0.0934, -0.1745 -0.1319 0.0908, -0.1711 -0.1319 0.0794, -0.1806 -0.1319 0.0866, -0.1743 -0.1319 0.0765, -0.1822 -0.1319 0.0852, -0.177 -0.1319 0.0727, -0.1867 -0.1319 0.0794, -0.1897 -0.1319 0.0728, -0.105 -0.1319 0.0451, -0.1096 -0.1319 0.0354, -0.109 -0.1319 0.0348, -0.111 -0.1319 0.0392, -0.1109 -0.1319 0.0379, -0.1104 -0.1319 0.0366, -0.1044 -0.1319 0.045, -0.1077 -0.1319 0.0339, -0.1066 -0.1319 0.0449, -0.1079 -0.1319 0.0444, -0.111 -0.1319 0.0398, -0.109 -0.1319 0.0436, -0.11 -0.1319 0.0426, -0.1107 -0.1319 0.0412, -0.1052 -0.1319 0.0451, -0.07 -0.128 0.0599, -0.0709 -0.128 0.0661, -0.0716 -0.128 0.0677, -0.0732 -0.128 0.0719, -0.0759 -0.128 0.0756, -0.0771 -0.128 0.0773, -0.0823 -0.128 0.0817, -0.0879 -0.128 0.0845, -0.0888 -0.128 0.0848, -0.0923 -0.128 0.0918, -0.0973 -0.128 0.098, -0.0991 -0.128 0.0998, -0.1033 -0.128 0.1027, -0.1061 -0.128 0.1047, -0.1139 -0.128 0.108, -0.1221 -0.128 0.1095, -0.1249 -0.128 0.1096, -0.1477 -0.128 0.1022, -0.1469 -0.128 0.1027, -0.1407 -0.128 0.1062, -0.133 -0.128 0.1088, -0.1521 -0.128 0.0984, -0.156 -0.128 0.0939, -0.1582 -0.128 0.0941, -0.1604 -0.128 0.0943, -0.1676 -0.128 0.0934, -0.1745 -0.128 0.0908, -0.1806 -0.128 0.0866, -0.1822 -0.128 0.0852, -0.1911 -0.128 0.0635, -0.1867 -0.128 0.0794, -0.1884 -0.128 0.0756, -0.1897 -0.128 0.0728, -0.1906 -0.128 0.0677, -0.191 -0.128 0.0655, -0.1902 -0.128 0.0563, -0.1877 -0.128 0.0494, -0.1838 -0.128 0.0436, -0.1831 -0.128 0.0428, -0.1775 -0.128 0.038, -0.171 -0.128 0.0347, -0.168 -0.128 0.0337, -0.1677 -0.128 0.0332, -0.1661 -0.128 0.0296, -0.1632 -0.128 0.0262, -0.1595 -0.128 0.0234, -0.1578 -0.128 0.0226, -0.1551 -0.128 0.0215, -0.1507 -0.128 0.0208, -0.1499 -0.128 0.0208, -0.131 -0.128 0.0398, -0.1453 -0.128 0.0214, -0.1421 -0.128 0.0226, -0.1411 -0.128 0.023, -0.1373 -0.128 0.0257, -0.1344 -0.128 0.0289, -0.1322 -0.128 0.0331, -0.1322 -0.128 0.0332, -0.1311 -0.128 0.0378, -0.131 -0.128 0.0417, -0.1044 -0.128 0.0557, -0.1103 -0.128 0.0658, -0.1357 -0.128 0.0525, -0.139 -0.128 0.0555, -0.1431 -0.128 0.0577, -0.1476 -0.128 0.0588, -0.1499 -0.128 0.059, -0.1545 -0.128 0.0584, -0.1587 -0.128 0.0568, -0.1625 -0.128 0.0541, -0.1657 -0.128 0.0505, -0.1678 -0.128 0.0464, -0.1719 -0.128 0.049, -0.1753 -0.128 0.0525, -0.1776 -0.128 0.0563, -0.1789 -0.128 0.0609, -0.1792 -0.128 0.0639, -0.1787 -0.128 0.0677, -0.1786 -0.128 0.0685, -0.177 -0.128 0.0727, -0.175 -0.128 0.0756, -0.1743 -0.128 0.0765, -0.1711 -0.128 0.0794, -0.1669 -0.128 0.0816, -0.1622 -0.128 0.0828, -0.1602 -0.128 0.0829, -0.1557 -0.128 0.0823, -0.1514 -0.128 0.0807, -0.1501 -0.128 0.08, -0.1472 -0.128 0.086, -0.143 -0.128 0.0911, -0.1379 -0.128 0.0948, -0.1317 -0.128 0.0973, -0.1247 -0.128 0.0982, -0.0981 -0.128 0.0745, -0.0984 -0.128 0.0756, -0.0993 -0.128 0.0798, -0.1022 -0.128 0.086, -0.1065 -0.128 0.0911, -0.107 -0.128 0.0915, -0.1123 -0.128 0.0952, -0.1183 -0.128 0.0975, -0.0966 -0.128 0.0745, -0.093 -0.128 0.0741, -0.0897 -0.128 0.0728, -0.0867 -0.128 0.0707, -0.0846 -0.128 0.0683, -0.0843 -0.128 0.0677, -0.0828 -0.128 0.0651, -0.0819 -0.128 0.0614, -0.0818 -0.128 0.0597, -0.0823 -0.128 0.056, -0.0836 -0.128 0.0526, -0.0857 -0.128 0.0497, -0.0859 -0.128 0.0494, -0.0887 -0.128 0.0471, -0.092 -0.128 0.0456, -0.0955 -0.128 0.0449, -0.104 -0.128 0.0449, -0.1044 -0.128 0.045, -0.105 -0.128 0.0451, -0.1052 -0.128 0.0451, -0.1066 -0.128 0.0449, -0.1079 -0.128 0.0444, -0.109 -0.128 0.0436, -0.11 -0.128 0.0426, -0.1107 -0.128 0.0412, -0.111 -0.128 0.0398, -0.111 -0.128 0.0392, -0.1109 -0.128 0.0379, -0.1104 -0.128 0.0366, -0.1096 -0.128 0.0354, -0.109 -0.128 0.0348, -0.1077 -0.128 0.0339, -0.1065 -0.128 0.0335, -0.1055 -0.128 0.0333, -0.0943 -0.128 0.0333, -0.088 -0.128 0.0347, -0.0822 -0.128 0.0375, -0.0771 -0.128 0.0419, -0.0733 -0.128 0.0471, -0.0709 -0.128 0.0531, -0.1501 -0.128 0.047, -0.1488 -0.128 0.0469, -0.147 -0.128 0.0463, -0.1455 -0.128 0.0454, -0.1442 -0.128 0.044, -0.1433 -0.128 0.0425, -0.1428 -0.128 0.0408, -0.1428 -0.128 0.039, -0.1432 -0.128 0.0371, -0.144 -0.128 0.0355, -0.1452 -0.128 0.0341, -0.1467 -0.128 0.0331, -0.1483 -0.128 0.0324, -0.1501 -0.128 0.0322, -0.1518 -0.128 0.0324, -0.1536 -0.128 0.0331, -0.1551 -0.128 0.0341, -0.1563 -0.128 0.0355, -0.1571 -0.128 0.0371, -0.1575 -0.128 0.0388, -0.1574 -0.128 0.0407, -0.1569 -0.128 0.0425, -0.156 -0.128 0.0441, -0.1551 -0.128 0.0451, -0.1536 -0.128 0.0462, -0.1519 -0.128 0.0468, -0.1519 -0.128 0.0468
            ]
        }
        coordIndex [
            0,1,2,-1,3,4,5,-1,6,7,8,-1,9,10,2,-1,2,10,11,-1,2,11,0,-1,12,13,14,-1,14,13,15,-1,14,15,16,-1,16,15,17,-1,16,17,5,-1,5,17,18,-1,5,18,3,-1,19,1,20,-1,20,1,21,-1,20,21,22,-1,23,24,15,-1,15,24,25,-1,15,25,17,-1,17,25,26,-1,17,26,27,-1,28,29,30,-1,30,29,31,-1,30,31,32,-1,32,31,33,-1,32,33,34,-1,6,8,35,-1,35,8,36,-1,35,36,37,-1,37,36,38,-1,37,38,39,-1,39,38,40,-1,40,38,41,-1,40,41,42,-1,42,41,43,-1,42,43,44,-1,44,43,45,-1,44,45,46,-1,47,48,33,-1,33,48,49,-1,33,49,34,-1,50,51,52,-1,52,51,53,-1,52,53,54,-1,54,53,55,-1,54,55,6,-1,6,55,56,-1,6,56,7,-1,57,2,58,-1,58,2,1,-1,58,1,59,-1,59,1,19,-1,21,60,22,-1,22,60,61,-1,22,61,62,-1,62,61,63,-1,62,63,64,-1,64,63,65,-1,64,65,66,-1,66,65,17,-1,66,17,67,-1,67,17,27,-1,68,69,70,-1,70,69,71,-1,70,71,72,-1,72,71,73,-1,72,73,74,-1,74,73,75,-1,74,75,76,-1,76,75,77,-1,76,77,78,-1,79,80,9,-1,9,80,81,-1,9,81,10,-1,30,82,28,-1,28,82,83,-1,28,83,84,-1,84,83,85,-1,84,85,86,-1,86,85,87,-1,86,87,88,-1,88,87,89,-1,88,89,90,-1,90,89,91,-1,90,91,92,-1,92,91,93,-1,92,93,68,-1,68,93,94,-1,68,94,69,-1,95,96,97,-1,97,96,47,-1,97,47,98,-1,98,47,33,-1,99,100,101,-1,101,100,102,-1,101,102,103,-1,103,102,104,-1,103,104,105,-1,105,104,106,-1,105,106,79,-1,79,106,107,-1,79,107,80,-1,57,108,2,-1,2,108,109,-1,2,109,110,-1,110,109,111,-1,110,111,112,-1,112,111,113,-1,112,113,114,-1,114,113,115,-1,114,115,116,-1,116,115,117,-1,116,117,118,-1,118,117,119,-1,118,119,120,-1,120,119,121,-1,120,121,122,-1,122,121,123,-1,122,123,124,-1,124,123,125,-1,124,125,15,-1,15,125,126,-1,15,126,23,-1,46,45,127,-1,127,45,128,-1,127,128,95,-1,95,128,129,-1,95,129,96,-1,52,130,50,-1,50,130,131,-1,50,131,132,-1,132,131,133,-1,132,133,134,-1,134,133,135,-1,134,135,136,-1,136,135,137,-1,136,137,99,-1,99,137,138,-1,99,138,100,-1,139,140,141,-1,142,143,139,-1,139,143,144,-1,139,144,140,-1,77,145,78,-1,78,145,139,-1,78,139,146,-1,146,139,141,-1,147,148,149,-1,148,150,149,-1,149,150,151,-1,149,151,152,-1,142,139,149,-1,149,139,153,-1,149,153,147,-1,88,154,155,-1,88,155,86,-1,86,155,156,-1,86,156,84,-1,156,157,84,-1,84,157,158,-1,84,158,28,-1,158,159,28,-1,28,159,160,-1,28,160,29,-1,29,160,161,-1,29,161,31,-1,31,161,162,-1,31,162,33,-1,33,162,163,-1,33,163,98,-1,98,163,164,-1,98,164,97,-1,97,164,165,-1,97,165,95,-1,95,165,127,-1,127,165,166,-1,166,167,127,-1,127,167,168,-1,127,168,46,-1,46,168,169,-1,46,169,44,-1,44,169,170,-1,44,170,42,-1,171,37,172,-1,172,37,39,-1,172,39,173,-1,173,39,40,-1,173,40,174,-1,174,40,42,-1,174,42,170,-1,37,171,175,-1,37,175,35,-1,35,175,176,-1,35,176,6,-1,6,176,177,-1,6,177,54,-1,54,177,178,-1,54,178,52,-1,52,178,179,-1,52,179,130,-1,130,179,180,-1,130,180,131,-1,131,180,181,-1,131,181,133,-1,133,181,182,-1,133,182,135,-1,183,102,100,-1,135,182,184,-1,185,138,184,-1,184,138,137,-1,184,137,135,-1,185,186,138,-1,138,186,187,-1,138,187,100,-1,100,187,188,-1,100,188,183,-1,102,183,189,-1,102,189,104,-1,104,189,190,-1,104,190,106,-1,106,190,191,-1,106,191,107,-1,107,191,192,-1,107,192,80,-1,80,192,193,-1,80,193,81,-1,81,193,194,-1,81,194,10,-1,10,194,195,-1,10,195,11,-1,11,195,196,-1,11,196,0,-1,196,197,0,-1,0,197,198,-1,0,198,1,-1,1,198,199,-1,1,199,21,-1,21,199,200,-1,21,200,60,-1,200,201,60,-1,60,201,202,-1,60,202,61,-1,61,202,203,-1,61,203,63,-1,204,16,5,-1,63,203,205,-1,63,205,65,-1,65,205,206,-1,65,206,17,-1,206,207,17,-1,17,207,208,-1,17,208,18,-1,18,208,209,-1,18,209,3,-1,3,209,210,-1,3,210,4,-1,4,210,211,-1,4,211,5,-1,5,211,212,-1,5,212,204,-1,14,16,213,-1,213,16,204,-1,12,14,214,-1,214,14,213,-1,13,12,215,-1,215,12,214,-1,15,13,216,-1,216,13,215,-1,15,216,217,-1,15,217,124,-1,124,217,218,-1,124,218,122,-1,122,218,219,-1,122,219,120,-1,120,219,220,-1,120,220,118,-1,118,220,221,-1,118,221,116,-1,116,221,222,-1,116,222,114,-1,114,222,223,-1,114,223,112,-1,112,223,224,-1,112,224,110,-1,110,224,225,-1,110,225,2,-1,2,225,226,-1,2,226,9,-1,9,226,227,-1,9,227,79,-1,79,227,228,-1,79,228,105,-1,105,228,229,-1,105,229,103,-1,103,229,230,-1,103,230,101,-1,230,231,101,-1,101,231,99,-1,231,232,99,-1,99,232,233,-1,99,233,136,-1,136,233,234,-1,136,234,134,-1,234,235,134,-1,134,235,236,-1,134,236,132,-1,132,236,237,-1,132,237,50,-1,50,237,238,-1,50,238,51,-1,51,238,239,-1,51,239,53,-1,53,239,240,-1,53,240,55,-1,55,240,241,-1,55,241,56,-1,56,241,242,-1,56,242,7,-1,7,242,243,-1,7,243,8,-1,8,243,244,-1,8,244,36,-1,36,244,245,-1,36,245,38,-1,38,245,246,-1,38,246,41,-1,41,246,247,-1,41,247,43,-1,248,49,249,-1,249,49,48,-1,249,48,250,-1,250,48,47,-1,250,47,251,-1,251,47,96,-1,251,96,252,-1,252,96,129,-1,252,129,253,-1,253,129,128,-1,253,128,254,-1,254,128,45,-1,254,45,255,-1,255,45,43,-1,255,43,247,-1,34,49,256,-1,256,49,248,-1,34,256,257,-1,34,257,32,-1,32,257,258,-1,32,258,30,-1,30,258,259,-1,30,259,82,-1,82,259,260,-1,82,260,83,-1,83,260,261,-1,83,261,85,-1,261,262,85,-1,85,262,263,-1,85,263,87,-1,87,263,264,-1,87,264,89,-1,89,264,265,-1,89,265,91,-1,91,265,266,-1,91,266,93,-1,93,266,267,-1,93,267,94,-1,94,267,268,-1,94,268,69,-1,69,268,269,-1,69,269,71,-1,71,269,270,-1,71,270,73,-1,73,270,271,-1,73,271,75,-1,77,75,272,-1,272,75,271,-1,77,272,273,-1,77,273,145,-1,145,273,274,-1,145,274,139,-1,139,274,275,-1,139,275,153,-1,153,275,276,-1,153,276,147,-1,147,276,277,-1,147,277,148,-1,148,277,278,-1,148,278,150,-1,150,278,279,-1,150,279,151,-1,151,279,280,-1,151,280,152,-1,152,280,281,-1,152,281,149,-1,149,281,282,-1,149,282,142,-1,142,282,283,-1,142,283,143,-1,143,283,284,-1,143,284,144,-1,144,284,285,-1,144,285,140,-1,140,285,286,-1,140,286,141,-1,141,286,287,-1,141,287,146,-1,146,287,288,-1,146,288,78,-1,78,288,289,-1,78,289,76,-1,74,76,290,-1,290,76,289,-1,74,290,291,-1,74,291,72,-1,72,291,292,-1,72,292,70,-1,70,292,293,-1,70,293,68,-1,68,293,294,-1,68,294,92,-1,92,294,295,-1,92,295,90,-1,90,295,154,-1,90,154,88,-1,119,296,297,-1,119,297,121,-1,121,297,298,-1,121,298,123,-1,123,298,299,-1,123,299,125,-1,125,299,300,-1,125,300,126,-1,126,300,301,-1,126,301,23,-1,23,301,302,-1,23,302,24,-1,24,302,303,-1,24,303,25,-1,25,303,304,-1,25,304,26,-1,26,304,305,-1,26,305,27,-1,27,305,306,-1,27,306,67,-1,67,306,307,-1,67,307,66,-1,66,307,308,-1,66,308,64,-1,64,308,309,-1,64,309,62,-1,62,309,310,-1,62,310,22,-1,22,310,311,-1,22,311,20,-1,20,311,312,-1,20,312,19,-1,19,312,313,-1,19,313,59,-1,59,313,314,-1,59,314,58,-1,58,314,315,-1,58,315,57,-1,57,315,316,-1,57,316,108,-1,108,316,317,-1,108,317,109,-1,109,317,318,-1,109,318,111,-1,111,318,319,-1,111,319,113,-1,113,319,320,-1,113,320,115,-1,115,320,321,-1,115,321,117,-1,117,321,296,-1,117,296,119,-1,
        ]
    }
}
Shape{
    appearance Appearance {
        material  Material 	{
            diffuseColor 0.2235294117647059 0.2235294117647059 0.2235294117647059
            specularColor 0.11372549019607843 0.11372549019607843 0.11372549019607843
            ambientIntensity 0.2
            transparency 0
            shininess 0.5
        }
    }
    geometry IndexedFaceSet {
        ccw TRUE
        solid FALSE
        coord DEF co Coordinate {
            point [
                -0.1501 -0.128 0.0322, -0.1551 -0.128 0.0451, -0.156 -0.128 0.0441, -0.1501 -0.128 0.047, -0.1488 -0.128 0.0469, -0.1483 -0.128 0.0324, -0.1519 -0.128 0.0468, -0.1536 -0.128 0.0462, -0.1452 -0.128 0.0341, -0.1442 -0.128 0.044, -0.1455 -0.128 0.0454, -0.1571 -0.128 0.0371, -0.1563 -0.128 0.0355, -0.1551 -0.128 0.0341, -0.1467 -0.128 0.0331, -0.147 -0.128 0.0463, -0.1536 -0.128 0.0331, -0.1518 -0.128 0.0324, -0.1569 -0.128 0.0425, -0.1574 -0.128 0.0407, -0.1575 -0.128 0.0388, -0.1432 -0.128 0.0371, -0.1428 -0.128 0.039, -0.144 -0.128 0.0355, -0.1428 -0.128 0.0408, -0.1433 -0.128 0.0425, -0.1433 -0.128 0.0425
            ]
        }
        coordIndex [
            0,1,2,-1,3,0,4,-1,4,0,5,-1,3,6,0,-1,0,6,7,-1,0,7,1,-1,8,9,10,-1,11,12,2,-1,2,12,13,-1,5,14,4,-1,4,14,8,-1,4,8,15,-1,15,8,10,-1,13,16,2,-1,2,16,17,-1,2,17,0,-1,18,19,2,-1,2,19,20,-1,2,20,11,-1,21,22,23,-1,23,22,24,-1,23,24,8,-1,8,24,25,-1,8,25,9,-1,
        ]
    }
}