#VRML V2.0 utf8
# 3D model generated by easyeda2kicad.py (https://github.com/uPesy/easyeda2kicad.py)

Shape{
    appearance Appearance {
        material  Material 	{
            diffuseColor 0.9686274509803922 0.8784313725490196 0.6
            specularColor 0.6784313725490196 0.615686274509804 0.4196078431372549
            ambientIntensity 0.2
            transparency 0
            shininess 0.5
        }
    }
    geometry IndexedFaceSet {
        ccw TRUE
        solid FALSE
        coord DEF co Coordinate {
            point [
                -0.0896 0.6235 0.0, -0.0068 0.6275 0.0, -0.0068 0.4324 0.0, 0.03 0.6292 0.0, 0.0652 0.6241 0.0, 0.0652 0.4324 0.0, 0.3654 -0.5131 0.0, 0.1522 -0.1784 0.0, 0.167 -0.167 0.0, 0.2282 -0.0611 0.0, 0.5848 -0.2341 0.0, 0.2046 -0.1181 0.0, 0.5299 -0.3406 0.0, 0.4559 -0.4347 0.0, 0.167 0.167 0.0, 0.559 0.2842 0.0, 0.2046 0.1181 0.0, 0.5848 0.2341 0.0, 0.2282 0.0611 0.0, 0.6185 0.1192 0.0, 0.2362 -0.0 0.0, 0.6299 0.0 0.0, 0.6185 -0.1192 0.0, 0.1564 0.3442 0.0, 0.1564 0.3334 0.0, 0.1522 0.3328 0.0, 0.2068 0.3334 0.0, 0.2068 0.4318 0.0, 0.1936 0.4318 0.0, 0.1522 0.4324 0.0, 0.1522 0.2842 0.0, 0.5339 0.3328 0.0, 0.5299 0.3406 0.0, 0.4577 0.4324 0.0, 0.4559 0.4347 0.0, 0.3654 0.5131 0.0, 0.1485 0.6122 0.0, 0.1522 0.6109 0.0, 0.2617 0.573 0.0, -0.4125 0.4761 0.0, -0.315 0.5455 0.0, -0.214 0.4324 0.0, -0.214 0.5917 0.0, -0.206 0.5953 0.0, -0.5599 0.2886 0.0, -0.5315 0.3328 0.0, -0.214 0.3328 0.0, -0.4952 0.3894 0.0, -0.4541 0.4324 0.0, -0.2282 -0.0611 0.0, -0.6271 -0.0599 0.0, -0.2362 0.0 0.0, -0.6271 0.0599 0.0, -0.2282 0.0611 0.0, -0.6044 0.1775 0.0, -0.214 0.0955 0.0, -0.4125 -0.4761 0.0, -0.4952 -0.3894 0.0, -0.214 -0.0955 0.0, -0.5599 -0.2886 0.0, -0.6044 -0.1775 0.0, -0.2046 -0.1181 0.0, -0.214 -0.5917 0.0, -0.315 -0.5455 0.0, -0.167 -0.167 0.0, -0.1181 -0.2046 0.0, -0.206 -0.5953 0.0, -0.0993 -0.2124 0.0, -0.0993 -0.6212 0.0, -0.0611 -0.2282 0.0, -0.0896 -0.6235 0.0, -0.0068 -0.2353 0.0, -0.0068 -0.6275 0.0, -0.0 -0.2362 0.0, 0.03 -0.6292 0.0, 0.0611 -0.2282 0.0, 0.0652 -0.6241 0.0, 0.0652 -0.2265 0.0, 0.1485 -0.6122 0.0, 0.1181 -0.2046 0.0, 0.1522 -0.6109 0.0, 0.2617 -0.573 0.0, -0.0993 0.2842 0.0, -0.0993 0.2124 0.0, -0.214 0.2842 0.0, -0.1181 0.2046 0.0, -0.167 0.167 0.0, -0.5617 0.2842 0.0, -0.2046 0.1181 0.0, -0.0068 0.2842 0.0, 0.0652 0.2842 0.0, 0.0611 0.2282 0.0, 0.0 0.2362 0.0, -0.0068 0.2353 0.0, -0.0611 0.2282 0.0, 0.1522 0.1784 0.0, 0.1181 0.2046 0.0, 0.0652 0.2265 0.0, 0.0748 0.3493 0.0, 0.0652 0.3328 0.0, 0.0748 0.3385 0.0, 0.0853 0.3342 0.0, 0.1053 0.4324 0.0, 0.0979 0.433 0.0, 0.0893 0.4324 0.0, 0.0862 0.4322 0.0, 0.0748 0.4291 0.0, 0.0748 0.4159 0.0, 0.0859 0.4207 0.0, 0.0766 0.3483 0.0, 0.0978 0.4222 0.0, 0.1075 0.4211 0.0, 0.1149 0.4185 0.0, 0.1217 0.4139 0.0, 0.1277 0.4074 0.0, 0.1348 0.3816 0.0, 0.1338 0.3709 0.0, 0.1311 0.3624 0.0, 0.1092 0.344 0.0, 0.1001 0.343 0.0, 0.1164 0.3467 0.0, 0.1224 0.3507 0.0, 0.1271 0.3556 0.0, 0.087 0.3444 0.0, 0.1317 0.3998 0.0, 0.1343 0.3892 0.0, 0.1235 0.3367 0.0, 0.1315 0.3418 0.0, 0.137 0.4151 0.0, 0.1282 0.4236 0.0, 0.1188 0.429 0.0, 0.148 0.3808 0.0, 0.1466 0.3947 0.0, 0.1428 0.4059 0.0, 0.1078 0.4322 0.0, 0.1388 0.3496 0.0, 0.1441 0.3589 0.0, 0.1471 0.3694 0.0, 0.1936 0.3442 0.0, 0.0952 0.3328 0.0, 0.0992 0.3322 0.0, 0.1019 0.3322 0.0, 0.1077 0.3328 0.0, 0.114 0.3335 0.0, -0.0993 0.3328 0.0, -0.0068 0.3328 0.0, 0.0052 0.4318 0.0, 0.0052 0.421 0.0, 0.0028 0.3442 0.0, 0.0028 0.3334 0.0, 0.0556 0.3334 0.0, 0.0556 0.4318 0.0, 0.0424 0.3778 0.0, 0.0424 0.3442 0.0, 0.0076 0.3778 0.0, 0.0076 0.3886 0.0, 0.0424 0.3886 0.0, 0.0424 0.421 0.0, -0.0907 0.3604 0.0, -0.0851 0.3516 0.0, -0.077 0.3438 0.0, -0.0667 0.3378 0.0, -0.0993 0.6212 0.0, -0.0993 0.4324 0.0, -0.0442 0.4318 0.0, -0.0584 0.4303 0.0, -0.0699 0.4263 0.0, -0.0807 0.4191 0.0, -0.0808 0.419 0.0, -0.0877 0.4113 0.0, -0.0923 0.4028 0.0, -0.0554 0.3345 0.0, -0.0432 0.3334 0.0, -0.0164 0.3334 0.0, -0.0164 0.4318 0.0, -0.0949 0.3931 0.0, -0.0957 0.3838 0.0, -0.0943 0.3707 0.0, -0.1673 0.361 0.0, -0.1267 0.361 0.0, -0.1773 0.3334 0.0, -0.1173 0.3334 0.0, -0.1917 0.3334 0.0, -0.1029 0.3334 0.0, -0.1401 0.4318 0.0, -0.1533 0.4318 0.0, 0.6243 -0.084 2.1654, 0.5841 -0.2339 2.1654, 0.6075 -0.1664 2.1654, 0.6172 -0.1189 2.1654, 0.5799 -0.2459 2.1654, 0.542 -0.321 2.1654, 0.455 -0.4339 2.1654, 0.4944 -0.3904 2.1654, 0.529 -0.3399 2.1654, 0.4379 -0.4528 2.1654, 0.3737 -0.5071 2.1654, 0.3651 -0.5126 2.1654, 0.3027 -0.5524 2.1654, 0.2611 -0.5717 2.1654, 0.2264 -0.5878 2.1654, 0.1485 -0.612 2.1654, 0.146 -0.6128 2.1654, 0.0631 -0.6268 2.1654, 0.0299 -0.6279 2.1654, -0.021 -0.6296 2.1654, -0.0896 -0.6227 2.1654, -0.3144 -0.5444 2.1654, -0.2652 -0.5714 2.1654, -0.2057 -0.5943 2.1654, -0.1866 -0.6016 2.1654, -0.1048 -0.6211 2.1654, -0.3389 -0.531 2.1654, -0.4067 -0.481 2.1654, -0.4122 -0.4757 2.1654, -0.4672 -0.4225 2.1654, -0.494 -0.3885 2.1654, -0.5193 -0.3565 2.1654, -0.5596 -0.2885 2.1654, -0.5622 -0.2841 2.1654, -0.5951 -0.2066 2.1654, -0.6261 -0.0598 2.1654, -0.6173 -0.1255 2.1654, -0.6031 -0.1771 2.1654, -0.6285 -0.0421 2.1654, -0.6285 0.0421 2.1654, -0.6261 0.0598 2.1654, -0.6173 0.1255 2.1654, -0.6031 0.1771 2.1654, -0.5951 0.2066 2.1654, -0.5622 0.2841 2.1654, -0.5596 0.2885 2.1654, -0.5193 0.3565 2.1654, -0.494 0.3885 2.1654, -0.4672 0.4225 2.1654, -0.4122 0.4757 2.1654, -0.4067 0.481 2.1654, -0.3389 0.531 2.1654, -0.3144 0.5444 2.1654, -0.2652 0.5714 2.1654, -0.2057 0.5943 2.1654, -0.1866 0.6016 2.1654, -0.1048 0.6211 2.1654, -0.0896 0.6227 2.1654, -0.021 0.6296 2.1654, 0.0299 0.6279 2.1654, 0.0631 0.6268 2.1654, 0.146 0.6128 2.1654, 0.1485 0.612 2.1654, 0.2264 0.5878 2.1654, 0.2611 0.5717 2.1654, 0.3027 0.5524 2.1654, 0.3651 0.5126 2.1654, 0.3737 0.5071 2.1654, 0.4379 0.4528 2.1654, 0.455 0.4339 2.1654, 0.4944 0.3904 2.1654, 0.529 0.3399 2.1654, 0.542 0.321 2.1654, 0.5799 0.2459 2.1654, 0.5841 0.2339 2.1654, 0.6075 0.1664 2.1654, 0.6172 0.1189 2.1654, 0.6243 0.084 2.1654, 0.6299 0.0 2.1654, 0.6028 0.1651 2.2092, 0.5754 0.244 2.2092, 0.4905 0.3873 2.2092, 0.4345 0.4493 2.2092, 0.3004 0.5481 2.2092, 0.1449 0.608 2.2092, -0.0209 0.6246 2.2092, -0.104 0.6163 2.2092, -0.2631 0.5669 2.2092, -0.4635 0.4192 2.2092, -0.5578 0.2819 2.2092, -0.6125 0.1245 2.2092, -0.6236 0.0417 2.2092, -0.6125 -0.1245 2.2092, -0.5153 -0.3537 2.2092, -0.4635 -0.4192 2.2092, -0.4035 -0.4773 2.2092, -0.2631 -0.5669 2.2092, -0.1852 -0.5969 2.2092, -0.0209 -0.6246 2.2092, 0.2246 -0.5832 2.2092, 0.3004 -0.5481 2.2092, 0.3707 -0.5032 2.2092, 0.4905 -0.3873 2.2092, 0.5377 -0.3185 2.2092, 0.6028 -0.1651 2.2092, 0.4214 0.0962 2.3622, 0.4292 0.0577 2.3622, 0.4726 0.0636 2.3573, 0.3894 0.1875 2.3622, 0.3987 0.1691 2.3622, 0.439 0.1862 2.3573, 0.3385 0.2699 2.3622, 0.3399 0.2684 2.3622, 0.3743 0.2955 2.3573, 0.2695 0.338 2.3622, 0.3011 0.3113 2.3622, 0.3315 0.3428 2.3573, 0.1875 0.3893 2.3622, 0.2081 0.3798 2.3622, 0.2292 0.4182 2.3573, 0.0963 0.422 2.3622, 0.1004 0.4213 2.3622, 0.1105 0.4639 2.3573, -0.0 0.4323 2.3622, 0.0433 0.4309 2.3622, 0.0477 0.4745 2.3573, -0.0961 0.4213 2.3622, -0.072 0.427 2.3622, -0.0793 0.4702 2.3573, -0.2696 0.3381 2.3622, -0.233 0.365 2.3622, -0.2566 0.402 2.3573, -0.3378 0.2694 2.3622, -0.3212 0.2905 2.3622, -0.3537 0.3199 2.3573, -0.3897 0.1877 2.3622, -0.3865 0.1953 2.3622, -0.4256 0.2151 2.3573, -0.4217 0.0962 2.3622, -0.4091 0.1421 2.3622, -0.4505 0.1564 2.3573, -0.4321 0.0 2.3622, -0.4321 0.0289 2.3622, -0.4758 0.0319 2.3573, -0.4217 -0.0962 2.3622, -0.4244 -0.0863 2.3622, -0.4673 -0.095 2.3573, -0.3897 -0.1877 2.3622, -0.4091 -0.1421 2.3622, -0.4505 -0.1564 2.3573, -0.3378 -0.2694 2.3622, -0.357 -0.2451 2.3622, -0.3932 -0.2699 2.3573, -0.2696 -0.3381 2.3622, -0.2796 -0.3307 2.3622, -0.3079 -0.3642 2.3573, -0.1877 -0.3899 2.3622, -0.233 -0.365 2.3622, -0.2566 -0.402 2.3573, -0.0961 -0.4213 2.3622, -0.1283 -0.4136 2.3622, -0.1413 -0.4555 2.3573, -0.0 -0.4323 2.3622, -0.0145 -0.4328 2.3622, -0.0159 -0.4766 2.3573, 0.0963 -0.422 2.3622, 0.0433 -0.4309 2.3622, 0.0477 -0.4745 2.3573, 0.1875 -0.3893 2.3622, 0.1556 -0.4041 2.3622, 0.1714 -0.445 2.3573, 0.2695 -0.338 2.3622, 0.2569 -0.3487 2.3622, 0.2829 -0.3839 2.3573, 0.3385 -0.2699 2.3622, 0.3011 -0.3113 2.3622, 0.3315 -0.3428 2.3573, 0.3894 -0.1875 2.3622, 0.3726 -0.2207 2.3622, 0.4103 -0.243 2.3573, 0.4214 -0.0962 2.3622, 0.4177 -0.1144 2.3622, 0.4599 -0.126 2.3573, -0.357 0.2451 2.3622, -0.1283 0.4136 2.3622, 0.1556 0.4041 2.3622, 0.4292 -0.0577 2.3622, 0.4726 -0.0636 2.3573, 0.5139 -0.0691 2.3427, 0.5001 -0.137 2.3427, 0.5508 -0.0741 2.3193, 0.5361 -0.1468 2.3193, 0.5817 -0.0782 2.2881, 0.5661 -0.1551 2.2881, 0.605 -0.0814 2.2508, 0.5887 -0.1613 2.2508, 0.6194 -0.0833 2.2092, 0.0519 -0.5159 2.3427, -0.0173 -0.5182 2.3427, 0.0556 -0.553 2.3193, -0.0186 -0.5555 2.3193, 0.0588 -0.584 2.2881, -0.0196 -0.5866 2.2881, 0.0611 -0.6074 2.2508, -0.0204 -0.6101 2.2508, 0.0626 -0.6218 2.2092, -0.4898 -0.1701 2.3427, -0.5081 -0.1033 2.3427, -0.5251 -0.1823 2.3193, -0.5447 -0.1107 2.3193, -0.5545 -0.1925 2.2881, -0.5752 -0.1169 2.2881, -0.5767 -0.2002 2.2508, -0.5982 -0.1216 2.2508, -0.5904 -0.205 2.2092, -0.5153 0.3537 2.2092, -0.4527 0.4095 2.2508, -0.5033 0.3455 2.2508, -0.4353 0.3937 2.2881, -0.4839 0.3322 2.2881, -0.4122 0.3728 2.3193, -0.4582 0.3146 2.3193, -0.3845 0.3478 2.3427, -0.4275 0.2934 2.3427, -0.3932 0.2699 2.3573, -0.1877 0.3899 2.3622, -0.2007 0.4326 2.3573, -0.279 0.437 2.3427, -0.2182 0.4703 2.3427, -0.2991 0.4685 2.3193, -0.234 0.5042 2.3193, -0.3158 0.4948 2.2881, -0.2471 0.5324 2.2881, -0.3285 0.5145 2.2508, -0.257 0.5537 2.2508, -0.3363 0.5268 2.2092, 0.2246 0.5832 2.2092, 0.2934 0.5353 2.2508, 0.2194 0.5696 2.2508, 0.2821 0.5147 2.2881, 0.211 0.5478 2.2881, 0.2671 0.4874 2.3193, 0.1998 0.5187 2.3193, 0.2492 0.4547 2.3427, 0.1863 0.4838 2.3427, 0.1714 0.445 2.3573, 0.4331 0.0 2.3622, 0.4769 0.0 2.3573, 0.5185 0.0 2.3427, 0.5558 0.0 2.3193, 0.587 0.0 2.2881, 0.6104 0.0 2.2508, 0.625 0.0 2.2092, 0.5754 -0.244 2.2092, 0.562 -0.2383 2.2508, 0.5404 -0.2291 2.2881, 0.5117 -0.217 2.3193, 0.4773 -0.2024 2.3427, 0.439 -0.1862 2.3573, 0.3987 -0.1691 2.3622, 0.4461 -0.2642 2.3427, 0.4782 -0.2832 2.3193, 0.505 -0.2991 2.2881, 0.5252 -0.3111 2.2508, 0.4791 -0.3783 2.2508, 0.4607 -0.3638 2.2881, 0.4362 -0.3445 2.3193, 0.4069 -0.3213 2.3427, 0.3743 -0.2955 2.3573, 0.3399 -0.2684 2.3622, 0.4345 -0.4493 2.2092, 0.4244 -0.4388 2.2508, 0.4081 -0.4219 2.2881, 0.3864 -0.3995 2.3193, 0.3604 -0.3727 2.3427, 0.3076 -0.4174 2.3427, 0.3297 -0.4475 2.3193, 0.3482 -0.4726 2.2881, 0.3621 -0.4914 2.2508, 0.2934 -0.5353 2.2508, 0.2821 -0.5147 2.2881, 0.2671 -0.4874 2.3193, 0.2492 -0.4547 2.3427, 0.2292 -0.4182 2.3573, 0.2081 -0.3798 2.3622, 0.2194 -0.5696 2.2508, 0.211 -0.5478 2.2881, 0.1998 -0.5187 2.3193, 0.1863 -0.4838 2.3427, 0.1449 -0.608 2.2092, 0.1415 -0.5938 2.2508, 0.1361 -0.571 2.2881, 0.1288 -0.5407 2.3193, 0.1202 -0.5044 2.3427, 0.1105 -0.4639 2.3573, 0.1004 -0.4213 2.3622, -0.104 -0.6163 2.2092, -0.1015 -0.6019 2.2508, -0.0976 -0.5788 2.2881, -0.0924 -0.5481 2.3193, -0.0862 -0.5113 2.3427, -0.0793 -0.4702 2.3573, -0.072 -0.427 2.3622, -0.1536 -0.4952 2.3427, -0.1647 -0.5309 2.3193, -0.1739 -0.5606 2.2881, -0.1809 -0.583 2.2508, -0.257 -0.5537 2.2508, -0.2471 -0.5324 2.2881, -0.234 -0.5042 2.3193, -0.2182 -0.4703 2.3427, -0.2007 -0.4326 2.3573, -0.1823 -0.3928 2.3622, -0.3363 -0.5268 2.2092, -0.3285 -0.5145 2.2508, -0.3158 -0.4948 2.2881, -0.2991 -0.4685 2.3193, -0.279 -0.437 2.3427, -0.3347 -0.3959 2.3427, -0.3588 -0.4244 2.3193, -0.379 -0.4482 2.2881, -0.3941 -0.4662 2.2508, -0.4527 -0.4095 2.2508, -0.4353 -0.3937 2.2881, -0.4122 -0.3728 2.3193, -0.3845 -0.3478 2.3427, -0.3537 -0.3199 2.3573, -0.3212 -0.2905 2.3622, -0.5033 -0.3455 2.2508, -0.4839 -0.3322 2.2881, -0.4582 -0.3146 2.3193, -0.4275 -0.2934 2.3427, -0.5578 -0.2819 2.2092, -0.5448 -0.2753 2.2508, -0.5239 -0.2647 2.2881, -0.4961 -0.2507 2.3193, -0.4628 -0.2338 2.3427, -0.4256 -0.2151 2.3573, -0.3865 -0.1953 2.3622, -0.6236 -0.0417 2.2092, -0.6091 -0.0408 2.2508, -0.5857 -0.0392 2.2881, -0.5546 -0.0371 2.3193, -0.5173 -0.0346 2.3427, -0.4758 -0.0319 2.3573, -0.4321 -0.0289 2.3622, -0.5173 0.0346 2.3427, -0.5546 0.0371 2.3193, -0.5857 0.0392 2.2881, -0.6091 0.0408 2.2508, -0.5982 0.1216 2.2508, -0.5752 0.1169 2.2881, -0.5447 0.1107 2.3193, -0.5081 0.1033 2.3427, -0.4673 0.095 2.3573, -0.4244 0.0863 2.3622, -0.5904 0.205 2.2092, -0.5767 0.2002 2.2508, -0.5545 0.1925 2.2881, -0.5251 0.1823 2.3193, -0.4898 0.1701 2.3427, -0.4628 0.2338 2.3427, -0.4961 0.2507 2.3193, -0.5239 0.2647 2.2881, -0.5448 0.2753 2.2508, -0.4035 0.4773 2.2092, -0.3941 0.4662 2.2508, -0.379 0.4482 2.2881, -0.3588 0.4244 2.3193, -0.3347 0.3959 2.3427, -0.3079 0.3642 2.3573, -0.2796 0.3307 2.3622, -0.1852 0.5969 2.2092, -0.1809 0.583 2.2508, -0.1739 0.5606 2.2881, -0.1647 0.5309 2.3193, -0.1536 0.4952 2.3427, -0.1413 0.4555 2.3573, -0.1823 0.3928 2.3622, -0.0862 0.5113 2.3427, -0.0924 0.5481 2.3193, -0.0976 0.5788 2.2881, -0.1015 0.6019 2.2508, -0.0204 0.6101 2.2508, -0.0196 0.5866 2.2881, -0.0186 0.5555 2.3193, -0.0173 0.5182 2.3427, -0.0159 0.4766 2.3573, -0.0145 0.4328 2.3622, 0.0626 0.6218 2.2092, 0.0611 0.6074 2.2508, 0.0588 0.584 2.2881, 0.0556 0.553 2.3193, 0.0519 0.5159 2.3427, 0.1202 0.5044 2.3427, 0.1288 0.5407 2.3193, 0.1361 0.571 2.2881, 0.1415 0.5938 2.2508, 0.3707 0.5032 2.2092, 0.3621 0.4914 2.2508, 0.3482 0.4726 2.2881, 0.3297 0.4475 2.3193, 0.3076 0.4174 2.3427, 0.2829 0.3839 2.3573, 0.2569 0.3487 2.3622, 0.3604 0.3727 2.3427, 0.3864 0.3995 2.3193, 0.4081 0.4219 2.2881, 0.4244 0.4388 2.2508, 0.4791 0.3783 2.2508, 0.4607 0.3638 2.2881, 0.4362 0.3445 2.3193, 0.4069 0.3213 2.3427, 0.5377 0.3185 2.2092, 0.5252 0.3111 2.2508, 0.505 0.2991 2.2881, 0.4782 0.2832 2.3193, 0.4461 0.2642 2.3427, 0.4103 0.243 2.3573, 0.3726 0.2207 2.3622, 0.4773 0.2024 2.3427, 0.5117 0.217 2.3193, 0.5404 0.2291 2.2881, 0.562 0.2383 2.2508, 0.5887 0.1613 2.2508, 0.5661 0.1551 2.2881, 0.5361 0.1468 2.3193, 0.5001 0.137 2.3427, 0.4599 0.126 2.3573, 0.4177 0.1144 2.3622, 0.6194 0.0833 2.2092, 0.605 0.0814 2.2508, 0.5817 0.0782 2.2881, 0.5508 0.0741 2.3193, 0.5139 0.0691 2.3427, 0.3376 -0.2693 3.1102, 0.366 -0.2315 3.1102, 0.3892 -0.1874 3.1102, 0.3242 -0.2872 3.1102, 0.2739 -0.3355 3.1102, 0.2698 -0.3383 3.1102, 0.2165 -0.3751 3.1102, -0.0522 -0.4299 3.1102, 0.0 -0.432 3.1102, 0.0174 -0.4327 3.1102, 0.0866 -0.4243 3.1102, 0.0962 -0.4216 3.1102, 0.1536 -0.4049 3.1102, 0.1873 -0.3889 3.1102, -0.338 -0.2695 3.1102, -0.3 -0.3123 3.1102, -0.2691 -0.3375 3.1102, -0.246 -0.3564 3.1102, -0.1878 -0.39 3.1102, -0.1857 -0.3913 3.1102, -0.1205 -0.416 3.1102, -0.0961 -0.4209 3.1102, -0.4331 0.0 3.1102, -0.4275 -0.0695 3.1102, -0.4209 -0.096 3.1102, -0.4108 -0.1371 3.1102, -0.3893 -0.1875 3.1102, -0.3835 -0.2013 3.1102, -0.3462 -0.2602 3.1102, -0.4209 0.096 3.1102, -0.4275 0.0695 3.1102, -0.2691 0.3375 3.1102, -0.3 0.3123 3.1102, -0.338 0.2695 3.1102, -0.3462 0.2602 3.1102, -0.3835 0.2013 3.1102, -0.3893 0.1875 3.1102, -0.4108 0.1371 3.1102, 0.0 0.432 3.1102, -0.0522 0.4299 3.1102, -0.0961 0.4209 3.1102, -0.1205 0.416 3.1102, -0.1857 0.3913 3.1102, -0.1878 0.39 3.1102, -0.246 0.3564 3.1102, 0.0174 0.4327 3.1102, 0.0866 0.4243 3.1102, 0.0962 0.4216 3.1102, 0.1536 0.4049 3.1102, 0.366 0.2315 3.1102, 0.3376 0.2693 3.1102, 0.3242 0.2872 3.1102, 0.2739 0.3355 3.1102, 0.2698 0.3383 3.1102, 0.2165 0.3751 3.1102, 0.1873 0.3889 3.1102, 0.3984 -0.1697 3.1102, 0.4205 -0.1036 3.1102, 0.4217 -0.0963 3.1102, 0.4317 -0.0348 3.1102, 0.4331 0.0 3.1102, 0.4317 0.0348 3.1102, 0.4217 0.0963 3.1102, 0.4205 0.1036 3.1102, 0.3984 0.1697 3.1102, 0.3892 0.1874 3.1102, -0.4057 -0.1355 3.178, -0.3787 -0.1988 3.178, -0.2963 -0.3085 3.178, -0.243 -0.352 3.178, -0.1834 -0.3864 3.178, -0.0516 -0.4246 3.178, 0.0172 -0.4274 3.178, 0.1517 -0.3999 3.178, 0.2139 -0.3704 3.178, 0.2705 -0.3313 3.178, 0.3615 -0.2286 3.178, 0.3935 -0.1677 3.178, 0.4264 -0.0344 3.178, 0.4264 0.0344 3.178, 0.4153 0.1024 3.178, 0.3615 0.2286 3.178, 0.3202 0.2836 3.178, 0.2139 0.3704 3.178, 0.1517 0.3999 3.178, 0.0856 0.4191 3.178, -0.0516 0.4246 3.178, -0.119 0.4109 3.178, -0.243 0.352 3.178, -0.2963 0.3085 3.178, -0.342 0.257 3.178, -0.0574 0.1209 3.5221, -0.029 0.0612 3.538, -0.0188 0.0651 3.538, 0.0 0.0 3.5433, -0.0385 0.0558 3.538, -0.076 0.1101 3.5221, -0.1117 0.1618 3.4961, -0.0469 0.0489 3.538, -0.0927 0.0965 3.5221, -0.1362 0.1418 3.4961, -0.1763 0.1836 3.4606, -0.0542 0.0407 3.538, -0.107 0.0804 3.5221, -0.1572 0.1181 3.4961, -0.2035 0.1529 3.4606, -0.2448 0.184 3.4165, -0.06 0.0315 3.538, -0.1185 0.0622 3.5221, -0.1741 0.0914 3.4961, -0.2254 0.1183 3.4606, -0.2712 0.1423 3.4165, -0.3102 0.1628 3.3648, -0.0643 0.0215 3.538, -0.1269 0.0424 3.5221, -0.1865 0.0623 3.4961, -0.2415 0.0806 3.4606, -0.2905 0.097 3.4165, -0.3323 0.1109 3.3648, -0.366 0.1222 3.3068, -0.0669 0.0109 3.538, -0.1321 0.0215 3.5221, -0.1941 0.0315 3.4961, -0.2513 0.0408 3.4606, -0.3023 0.0491 3.4165, -0.3458 0.0562 3.3648, -0.3809 0.0619 3.3068, -0.4065 0.0661 3.2441, -0.0677 0.0 3.538, -0.1338 0.0 3.5221, -0.1966 0.0 3.4961, -0.2546 0.0 3.4606, -0.3062 0.0 3.4165, -0.3504 0.0 3.3648, -0.3859 0.0 3.3068, -0.4119 0.0 3.2441, -0.4277 0.0 3.178, -0.3907 0.1304 3.2441, -0.4057 0.1355 3.178, -0.4222 0.0686 3.178, -0.3787 0.1988 3.178, -0.3647 0.1914 3.2441, -0.3417 0.1793 3.3068, -0.3293 0.2474 3.2441, -0.3085 0.2318 3.3068, -0.2801 0.2105 3.3648, -0.2853 0.297 3.2441, -0.2673 0.2783 3.3068, -0.2427 0.2527 3.3648, -0.2121 0.2209 3.4165, -0.234 0.339 3.2441, -0.2192 0.3176 3.3068, -0.199 0.2883 3.3648, -0.174 0.252 3.4165, -0.1446 0.2095 3.4606, -0.1834 0.3864 3.178, -0.1766 0.3721 3.2441, -0.1654 0.3486 3.3068, -0.1502 0.3165 3.3648, -0.1313 0.2767 3.4165, -0.1091 0.23 3.4606, -0.0843 0.1776 3.4961, -0.1146 0.3956 3.2441, -0.1074 0.3706 3.3068, -0.0975 0.3365 3.3648, -0.0852 0.2941 3.4165, -0.0708 0.2445 3.4606, -0.0547 0.1888 3.4961, -0.0372 0.1285 3.5221, -0.0496 0.4089 3.2441, -0.0465 0.3831 3.3068, -0.0422 0.3478 3.3648, -0.0369 0.304 3.4165, -0.0307 0.2527 3.4606, -0.0237 0.1952 3.4961, -0.0161 0.1329 3.5221, -0.0082 0.0673 3.538, 0.0172 0.4274 3.178, 0.0166 0.4115 3.2441, 0.0155 0.3856 3.3068, 0.0141 0.3501 3.3648, 0.0123 0.306 3.4165, 0.0102 0.2543 3.4606, 0.0079 0.1965 3.4961, 0.0054 0.1337 3.5221, 0.0027 0.0677 3.538, 0.0824 0.4036 3.2441, 0.0772 0.3781 3.3068, 0.0701 0.3433 3.3648, 0.0613 0.3 3.4165, 0.0509 0.2494 3.4606, 0.0393 0.1926 3.4961, 0.0268 0.1311 3.5221, 0.0136 0.0664 3.538, 0.1461 0.3851 3.2441, 0.1368 0.3608 3.3068, 0.1242 0.3276 3.3648, 0.1086 0.2863 3.4165, 0.0903 0.238 3.4606, 0.0697 0.1838 3.4961, 0.0475 0.1251 3.5221, 0.024 0.0633 3.538, 0.2059 0.3567 3.2441, 0.1929 0.3342 3.3068, 0.1752 0.3034 3.3648, 0.1531 0.2652 3.4165, 0.1273 0.2204 3.4606, 0.0983 0.1703 3.4961, 0.0669 0.1159 3.5221, 0.0339 0.0587 3.538, 0.2705 0.3313 3.178, 0.2605 0.319 3.2441, 0.244 0.2989 3.3068, 0.2216 0.2714 3.3648, 0.1937 0.2372 3.4165, 0.161 0.1972 3.4606, 0.1243 0.1523 3.4961, 0.0846 0.1037 3.5221, 0.0428 0.0525 3.538, 0.3083 0.2731 3.2441, 0.2888 0.2559 3.3068, 0.2622 0.2323 3.3648, 0.2292 0.2031 3.4165, 0.1905 0.1688 3.4606, 0.1472 0.1304 3.4961, 0.1002 0.0887 3.5221, 0.0507 0.0449 3.538, 0.3481 0.2201 3.2441, 0.3261 0.2062 3.3068, 0.2961 0.1873 3.3648, 0.2588 0.1637 3.4165, 0.2151 0.136 3.4606, 0.1662 0.1051 3.4961, 0.1131 0.0715 3.5221, 0.0573 0.0362 3.538, 0.3935 0.1677 3.178, 0.3789 0.1614 3.2441, 0.355 0.1512 3.3068, 0.3223 0.1373 3.3648, 0.2817 0.12 3.4165, 0.2342 0.0998 3.4606, 0.1809 0.0771 3.4961, 0.1231 0.0525 3.5221, 0.0623 0.0266 3.538, 0.3999 0.0986 3.2441, 0.3747 0.0923 3.3068, 0.3402 0.0838 3.3648, 0.2973 0.0733 3.4165, 0.2472 0.0609 3.4606, 0.1909 0.0471 3.4961, 0.1299 0.032 3.5221, 0.0658 0.0162 3.538, 0.4105 0.0331 3.2441, 0.3846 0.031 3.3068, 0.3492 0.0282 3.3648, 0.3052 0.0246 3.4165, 0.2537 0.0205 3.4606, 0.196 0.0158 3.4961, 0.1334 0.0108 3.5221, 0.0675 0.0055 3.538, 0.4105 -0.0331 3.2441, 0.3846 -0.031 3.3068, 0.3492 -0.0282 3.3648, 0.3052 -0.0246 3.4165, 0.2537 -0.0205 3.4606, 0.196 -0.0158 3.4961, 0.1334 -0.0108 3.5221, 0.0675 -0.0055 3.538, 0.4153 -0.1024 3.178, 0.3999 -0.0986 3.2441, 0.3747 -0.0923 3.3068, 0.3402 -0.0838 3.3648, 0.2973 -0.0733 3.4165, 0.2472 -0.0609 3.4606, 0.1909 -0.0471 3.4961, 0.1299 -0.032 3.5221, 0.0658 -0.0162 3.538, 0.3789 -0.1614 3.2441, 0.355 -0.1512 3.3068, 0.3223 -0.1373 3.3648, 0.2817 -0.12 3.4165, 0.2342 -0.0998 3.4606, 0.1809 -0.0771 3.4961, 0.1231 -0.0525 3.5221, 0.0623 -0.0266 3.538, 0.3481 -0.2201 3.2441, 0.3261 -0.2062 3.3068, 0.2961 -0.1873 3.3648, 0.2588 -0.1637 3.4165, 0.2151 -0.136 3.4606, 0.1662 -0.1051 3.4961, 0.1131 -0.0715 3.5221, 0.0573 -0.0362 3.538, 0.3202 -0.2836 3.178, 0.3083 -0.2731 3.2441, 0.2888 -0.2559 3.3068, 0.2622 -0.2323 3.3648, 0.2292 -0.2031 3.4165, 0.1905 -0.1688 3.4606, 0.1472 -0.1304 3.4961, 0.1002 -0.0887 3.5221, 0.0507 -0.0449 3.538, 0.2605 -0.319 3.2441, 0.244 -0.2989 3.3068, 0.2216 -0.2714 3.3648, 0.1937 -0.2372 3.4165, 0.161 -0.1972 3.4606, 0.1243 -0.1523 3.4961, 0.0846 -0.1037 3.5221, 0.0428 -0.0525 3.538, 0.2059 -0.3567 3.2441, 0.1929 -0.3342 3.3068, 0.1752 -0.3034 3.3648, 0.1531 -0.2652 3.4165, 0.1273 -0.2204 3.4606, 0.0983 -0.1703 3.4961, 0.0669 -0.1159 3.5221, 0.0339 -0.0587 3.538, 0.1461 -0.3851 3.2441, 0.1368 -0.3608 3.3068, 0.1242 -0.3276 3.3648, 0.1086 -0.2863 3.4165, 0.0903 -0.238 3.4606, 0.0697 -0.1838 3.4961, 0.0475 -0.1251 3.5221, 0.024 -0.0633 3.538, 0.0856 -0.4191 3.178, 0.0824 -0.4036 3.2441, 0.0772 -0.3781 3.3068, 0.0701 -0.3433 3.3648, 0.0613 -0.3 3.4165, 0.0509 -0.2494 3.4606, 0.0393 -0.1926 3.4961, 0.0268 -0.1311 3.5221, 0.0136 -0.0664 3.538, 0.0166 -0.4115 3.2441, 0.0155 -0.3856 3.3068, 0.0141 -0.3501 3.3648, 0.0123 -0.306 3.4165, 0.0102 -0.2543 3.4606, 0.0079 -0.1965 3.4961, 0.0054 -0.1337 3.5221, 0.0027 -0.0677 3.538, -0.0496 -0.4089 3.2441, -0.0465 -0.3831 3.3068, -0.0422 -0.3478 3.3648, -0.0369 -0.304 3.4165, -0.0307 -0.2527 3.4606, -0.0237 -0.1952 3.4961, -0.0161 -0.1329 3.5221, -0.0082 -0.0673 3.538, -0.119 -0.4109 3.178, -0.1146 -0.3956 3.2441, -0.1074 -0.3706 3.3068, -0.0975 -0.3365 3.3648, -0.0852 -0.2941 3.4165, -0.0708 -0.2445 3.4606, -0.0547 -0.1888 3.4961, -0.0372 -0.1285 3.5221, -0.0188 -0.0651 3.538, -0.1766 -0.3721 3.2441, -0.1654 -0.3486 3.3068, -0.1502 -0.3165 3.3648, -0.1313 -0.2767 3.4165, -0.1091 -0.23 3.4606, -0.0843 -0.1776 3.4961, -0.0574 -0.1209 3.5221, -0.029 -0.0612 3.538, -0.234 -0.339 3.2441, -0.2192 -0.3176 3.3068, -0.199 -0.2883 3.3648, -0.174 -0.252 3.4165, -0.1446 -0.2095 3.4606, -0.1117 -0.1618 3.4961, -0.076 -0.1101 3.5221, -0.0385 -0.0558 3.538, -0.2853 -0.297 3.2441, -0.2673 -0.2783 3.3068, -0.2427 -0.2527 3.3648, -0.2121 -0.2209 3.4165, -0.1763 -0.1836 3.4606, -0.1362 -0.1418 3.4961, -0.0927 -0.0965 3.5221, -0.0469 -0.0489 3.538, -0.342 -0.257 3.178, -0.3293 -0.2474 3.2441, -0.3085 -0.2318 3.3068, -0.2801 -0.2105 3.3648, -0.2448 -0.184 3.4165, -0.2035 -0.1529 3.4606, -0.1572 -0.1181 3.4961, -0.107 -0.0804 3.5221, -0.0542 -0.0407 3.538, -0.3647 -0.1914 3.2441, -0.3417 -0.1793 3.3068, -0.3102 -0.1628 3.3648, -0.2712 -0.1423 3.4165, -0.2254 -0.1183 3.4606, -0.1741 -0.0914 3.4961, -0.1185 -0.0622 3.5221, -0.06 -0.0315 3.538, -0.3907 -0.1304 3.2441, -0.366 -0.1222 3.3068, -0.3323 -0.1109 3.3648, -0.2905 -0.097 3.4165, -0.2415 -0.0806 3.4606, -0.1865 -0.0623 3.4961, -0.1269 -0.0424 3.5221, -0.0643 -0.0215 3.538, -0.4222 -0.0686 3.178, -0.4065 -0.0661 3.2441, -0.3809 -0.0619 3.3068, -0.3458 -0.0562 3.3648, -0.3023 -0.0491 3.4165, -0.2513 -0.0408 3.4606, -0.1941 -0.0315 3.4961, -0.1321 -0.0215 3.5221, -0.0669 -0.0109 3.538, 0.2046 0.1181 -0.7874, 0.2282 0.0611 -0.7874, 0.0 0.0 -0.7874, 0.2362 0.0 -0.7874, 0.2282 -0.0611 -0.7874, 0.0611 0.2282 -0.7874, 0.1181 0.2046 -0.7874, 0.167 0.167 -0.7874, -0.1181 0.2046 -0.7874, -0.0611 0.2282 -0.7874, 0.0 0.2362 -0.7874, -0.2282 0.0611 -0.7874, -0.2046 0.1181 -0.7874, -0.167 0.167 -0.7874, -0.2046 -0.1181 -0.7874, -0.2282 -0.0611 -0.7874, -0.2362 0.0 -0.7874, -0.0611 -0.2282 -0.7874, -0.1181 -0.2046 -0.7874, -0.167 -0.167 -0.7874, 0.1181 -0.2046 -0.7874, 0.0611 -0.2282 -0.7874, -0.0 -0.2362 -0.7874, 0.2046 -0.1181 -0.7874, 0.167 -0.167 -0.7874, 0.167 -0.167 -0.7874
            ]
        }
        coordIndex [
            0,1,2,-1,3,4,5,-1,6,7,8,-1,9,10,11,-1,11,10,12,-1,11,12,8,-1,8,12,13,-1,8,13,6,-1,14,15,16,-1,16,15,17,-1,16,17,18,-1,18,17,19,-1,18,19,20,-1,20,19,21,-1,20,21,9,-1,9,21,22,-1,9,22,10,-1,23,24,25,-1,25,24,26,-1,27,28,29,-1,14,30,15,-1,15,30,25,-1,15,25,31,-1,31,25,26,-1,31,26,32,-1,32,26,33,-1,26,27,33,-1,33,27,29,-1,33,29,34,-1,34,29,35,-1,36,37,29,-1,29,37,38,-1,29,38,35,-1,39,40,41,-1,41,40,42,-1,41,42,43,-1,44,45,46,-1,46,45,47,-1,46,47,41,-1,41,47,48,-1,41,48,39,-1,49,50,51,-1,51,50,52,-1,51,52,53,-1,53,52,54,-1,53,54,55,-1,56,57,58,-1,58,57,59,-1,58,59,49,-1,49,59,60,-1,49,60,50,-1,61,62,58,-1,58,62,63,-1,58,63,56,-1,61,64,62,-1,62,64,65,-1,62,65,66,-1,66,65,67,-1,66,67,68,-1,68,67,69,-1,68,69,70,-1,70,69,71,-1,70,71,72,-1,72,71,73,-1,72,73,74,-1,74,73,75,-1,74,75,76,-1,76,75,77,-1,76,77,78,-1,78,77,79,-1,78,79,80,-1,80,79,7,-1,80,7,81,-1,81,7,6,-1,82,83,84,-1,84,83,85,-1,84,85,86,-1,54,87,55,-1,55,87,84,-1,55,84,88,-1,88,84,86,-1,89,90,91,-1,91,92,89,-1,89,92,93,-1,89,93,82,-1,82,93,94,-1,82,94,83,-1,14,95,30,-1,30,95,96,-1,30,96,90,-1,90,96,97,-1,90,97,91,-1,5,98,99,-1,99,98,100,-1,99,100,101,-1,102,103,4,-1,4,103,104,-1,4,104,5,-1,5,104,105,-1,105,106,5,-1,5,106,107,-1,5,107,98,-1,98,107,108,-1,98,108,109,-1,109,108,110,-1,109,110,111,-1,111,112,109,-1,109,112,113,-1,109,113,114,-1,115,116,109,-1,109,116,117,-1,118,119,120,-1,120,119,121,-1,117,122,109,-1,109,122,121,-1,109,121,123,-1,123,121,119,-1,114,124,109,-1,109,124,125,-1,109,125,115,-1,126,127,25,-1,128,129,29,-1,29,129,130,-1,131,132,29,-1,29,132,133,-1,29,133,128,-1,4,36,102,-1,102,36,29,-1,102,29,134,-1,134,29,130,-1,127,135,25,-1,25,135,136,-1,25,136,137,-1,137,131,25,-1,25,131,29,-1,25,29,23,-1,23,29,28,-1,23,28,138,-1,139,140,90,-1,90,140,141,-1,90,141,30,-1,30,141,142,-1,30,142,25,-1,25,142,143,-1,25,143,126,-1,87,44,84,-1,84,44,46,-1,84,46,82,-1,82,46,144,-1,82,144,89,-1,89,144,145,-1,89,145,90,-1,90,145,99,-1,90,99,139,-1,139,99,101,-1,1,3,2,-1,2,3,5,-1,2,5,146,-1,146,147,2,-1,2,147,148,-1,2,148,145,-1,145,148,149,-1,145,149,99,-1,99,149,150,-1,99,150,5,-1,5,150,151,-1,5,151,146,-1,152,153,154,-1,154,153,148,-1,154,148,155,-1,155,148,147,-1,155,147,156,-1,156,147,157,-1,158,159,144,-1,144,159,160,-1,144,160,161,-1,162,0,163,-1,163,0,2,-1,163,2,164,-1,164,165,163,-1,163,165,166,-1,163,166,167,-1,167,168,163,-1,163,168,169,-1,163,169,170,-1,161,171,144,-1,144,171,172,-1,144,172,145,-1,145,172,173,-1,145,173,2,-1,2,173,174,-1,2,174,164,-1,170,175,163,-1,163,175,176,-1,163,176,144,-1,144,176,177,-1,144,177,158,-1,178,179,180,-1,180,179,181,-1,182,180,46,-1,46,180,181,-1,46,181,144,-1,144,181,183,-1,144,183,163,-1,163,183,184,-1,163,184,185,-1,182,46,185,-1,185,46,41,-1,185,41,163,-1,163,41,43,-1,163,43,162,-1,186,22,21,-1,187,10,188,-1,188,10,22,-1,188,22,189,-1,189,22,186,-1,187,190,10,-1,10,190,191,-1,10,191,12,-1,192,13,193,-1,193,13,12,-1,193,12,194,-1,194,12,191,-1,192,195,13,-1,13,195,196,-1,13,196,6,-1,196,197,6,-1,6,197,198,-1,6,198,81,-1,81,198,199,-1,81,199,80,-1,80,199,200,-1,80,200,78,-1,78,200,201,-1,78,201,76,-1,201,202,76,-1,76,202,203,-1,76,203,74,-1,74,203,204,-1,74,204,72,-1,72,204,205,-1,72,205,70,-1,70,205,206,-1,70,206,68,-1,207,63,208,-1,208,63,62,-1,208,62,209,-1,209,62,66,-1,209,66,210,-1,210,66,68,-1,210,68,211,-1,211,68,206,-1,207,212,63,-1,63,212,213,-1,63,213,56,-1,213,214,56,-1,56,214,215,-1,56,215,57,-1,215,216,57,-1,57,216,217,-1,57,217,59,-1,59,217,218,-1,59,218,60,-1,60,218,219,-1,60,219,220,-1,221,50,222,-1,222,50,60,-1,222,60,223,-1,223,60,220,-1,221,224,50,-1,50,224,225,-1,50,225,52,-1,225,226,52,-1,52,226,227,-1,52,227,54,-1,227,228,54,-1,54,228,229,-1,54,229,87,-1,87,229,230,-1,87,230,44,-1,44,230,231,-1,44,231,45,-1,45,231,232,-1,45,232,47,-1,47,232,233,-1,47,233,48,-1,48,233,234,-1,48,234,39,-1,39,234,235,-1,39,235,40,-1,40,235,236,-1,236,237,40,-1,40,237,238,-1,40,238,42,-1,42,238,239,-1,42,239,43,-1,239,240,43,-1,43,240,241,-1,43,241,162,-1,162,241,242,-1,162,242,0,-1,0,242,243,-1,0,243,1,-1,1,243,244,-1,1,244,3,-1,3,244,245,-1,3,245,4,-1,245,246,4,-1,4,246,247,-1,4,247,36,-1,36,247,248,-1,36,248,37,-1,37,248,249,-1,37,249,38,-1,249,250,38,-1,38,250,251,-1,38,251,35,-1,35,251,252,-1,35,252,34,-1,34,252,253,-1,253,254,34,-1,34,254,255,-1,34,255,33,-1,33,255,256,-1,33,256,32,-1,32,256,257,-1,32,257,31,-1,31,257,258,-1,31,258,15,-1,15,258,259,-1,15,259,17,-1,259,260,17,-1,17,260,261,-1,17,261,19,-1,261,262,19,-1,19,262,263,-1,19,263,21,-1,21,263,264,-1,21,264,186,-1,262,261,265,-1,260,259,266,-1,257,256,267,-1,255,254,268,-1,252,251,269,-1,248,247,270,-1,245,244,271,-1,243,242,272,-1,240,239,273,-1,235,234,274,-1,231,230,275,-1,228,227,276,-1,226,225,277,-1,221,222,278,-1,218,217,279,-1,216,215,280,-1,214,213,281,-1,207,208,282,-1,209,210,283,-1,206,205,284,-1,201,200,285,-1,199,198,286,-1,197,196,287,-1,192,193,288,-1,194,191,289,-1,187,188,290,-1,291,292,293,-1,294,295,296,-1,297,298,299,-1,300,301,302,-1,303,304,305,-1,306,307,308,-1,309,310,311,-1,312,313,314,-1,315,316,317,-1,318,319,320,-1,321,322,323,-1,324,325,326,-1,327,328,329,-1,330,331,332,-1,333,334,335,-1,336,337,338,-1,339,340,341,-1,342,343,344,-1,345,346,347,-1,348,349,350,-1,351,352,353,-1,354,355,356,-1,357,358,359,-1,360,361,362,-1,363,364,365,-1,366,367,368,-1,318,320,369,-1,312,314,370,-1,303,305,371,-1,372,366,373,-1,373,366,368,-1,373,368,374,-1,374,368,375,-1,374,375,376,-1,376,375,377,-1,376,377,378,-1,378,377,379,-1,378,379,380,-1,380,379,381,-1,380,381,382,-1,382,381,290,-1,352,348,353,-1,353,348,350,-1,353,350,383,-1,383,350,384,-1,383,384,385,-1,385,384,386,-1,385,386,387,-1,387,386,388,-1,387,388,389,-1,389,388,390,-1,389,390,391,-1,391,390,284,-1,334,330,335,-1,335,330,332,-1,335,332,392,-1,392,332,393,-1,392,393,394,-1,394,393,395,-1,394,395,396,-1,396,395,397,-1,396,397,398,-1,398,397,399,-1,398,399,400,-1,400,399,278,-1,274,401,402,-1,402,401,403,-1,402,403,404,-1,404,403,405,-1,404,405,406,-1,406,405,407,-1,406,407,408,-1,408,407,409,-1,408,409,320,-1,320,409,410,-1,320,410,369,-1,316,411,317,-1,317,411,412,-1,317,412,413,-1,413,412,414,-1,413,414,415,-1,415,414,416,-1,415,416,417,-1,417,416,418,-1,417,418,419,-1,419,418,420,-1,419,420,421,-1,421,420,273,-1,269,422,423,-1,423,422,424,-1,423,424,425,-1,425,424,426,-1,425,426,427,-1,427,426,428,-1,427,428,429,-1,429,428,430,-1,429,430,305,-1,305,430,431,-1,305,431,371,-1,432,372,433,-1,433,372,373,-1,433,373,434,-1,434,373,374,-1,434,374,435,-1,435,374,376,-1,435,376,436,-1,436,376,378,-1,436,378,437,-1,437,378,380,-1,437,380,438,-1,438,380,382,-1,438,382,264,-1,264,382,186,-1,290,188,382,-1,382,188,189,-1,382,189,186,-1,190,187,439,-1,439,187,290,-1,439,290,440,-1,440,290,381,-1,440,381,441,-1,441,381,379,-1,441,379,442,-1,442,379,377,-1,442,377,443,-1,443,377,375,-1,443,375,444,-1,444,375,368,-1,444,368,445,-1,445,368,367,-1,445,363,444,-1,444,363,365,-1,444,365,443,-1,443,365,446,-1,443,446,442,-1,442,446,447,-1,442,447,441,-1,441,447,448,-1,441,448,440,-1,440,448,449,-1,440,449,439,-1,439,449,289,-1,439,289,190,-1,190,289,191,-1,193,194,288,-1,288,194,289,-1,288,289,450,-1,450,289,449,-1,450,449,451,-1,451,449,448,-1,451,448,452,-1,452,448,447,-1,452,447,453,-1,453,447,446,-1,453,446,454,-1,454,446,365,-1,454,365,455,-1,455,365,364,-1,195,192,456,-1,456,192,288,-1,456,288,457,-1,457,288,450,-1,457,450,458,-1,458,450,451,-1,458,451,459,-1,459,451,452,-1,459,452,460,-1,460,452,453,-1,460,453,362,-1,362,453,454,-1,362,454,360,-1,360,454,455,-1,361,357,362,-1,362,357,359,-1,362,359,460,-1,460,359,461,-1,460,461,459,-1,459,461,462,-1,459,462,458,-1,458,462,463,-1,458,463,457,-1,457,463,464,-1,457,464,456,-1,456,464,287,-1,456,287,195,-1,195,287,196,-1,198,197,286,-1,286,197,287,-1,286,287,465,-1,465,287,464,-1,465,464,466,-1,466,464,463,-1,466,463,467,-1,467,463,462,-1,467,462,468,-1,468,462,461,-1,468,461,469,-1,469,461,359,-1,469,359,470,-1,470,359,358,-1,200,199,285,-1,285,199,286,-1,285,286,471,-1,471,286,465,-1,471,465,472,-1,472,465,466,-1,472,466,473,-1,473,466,467,-1,473,467,474,-1,474,467,468,-1,474,468,356,-1,356,468,469,-1,356,469,354,-1,354,469,470,-1,202,201,475,-1,475,201,285,-1,475,285,476,-1,476,285,471,-1,476,471,477,-1,477,471,472,-1,477,472,478,-1,478,472,473,-1,478,473,479,-1,479,473,474,-1,479,474,480,-1,480,474,356,-1,480,356,481,-1,481,356,355,-1,481,351,480,-1,480,351,353,-1,480,353,479,-1,479,353,383,-1,479,383,478,-1,478,383,385,-1,478,385,477,-1,477,385,387,-1,477,387,476,-1,476,387,389,-1,476,389,475,-1,475,389,391,-1,475,391,202,-1,202,391,203,-1,284,205,391,-1,391,205,204,-1,391,204,203,-1,211,206,482,-1,482,206,284,-1,482,284,483,-1,483,284,390,-1,483,390,484,-1,484,390,388,-1,484,388,485,-1,485,388,386,-1,485,386,486,-1,486,386,384,-1,486,384,487,-1,487,384,350,-1,487,350,488,-1,488,350,349,-1,488,345,487,-1,487,345,347,-1,487,347,486,-1,486,347,489,-1,486,489,485,-1,485,489,490,-1,485,490,484,-1,484,490,491,-1,484,491,483,-1,483,491,492,-1,483,492,482,-1,482,492,283,-1,482,283,211,-1,211,283,210,-1,208,209,282,-1,282,209,283,-1,282,283,493,-1,493,283,492,-1,493,492,494,-1,494,492,491,-1,494,491,495,-1,495,491,490,-1,495,490,496,-1,496,490,489,-1,496,489,497,-1,497,489,347,-1,497,347,498,-1,498,347,346,-1,212,207,499,-1,499,207,282,-1,499,282,500,-1,500,282,493,-1,500,493,501,-1,501,493,494,-1,501,494,502,-1,502,494,495,-1,502,495,503,-1,503,495,496,-1,503,496,344,-1,344,496,497,-1,344,497,342,-1,342,497,498,-1,343,339,344,-1,344,339,341,-1,344,341,503,-1,503,341,504,-1,503,504,502,-1,502,504,505,-1,502,505,501,-1,501,505,506,-1,501,506,500,-1,500,506,507,-1,500,507,499,-1,499,507,281,-1,499,281,212,-1,212,281,213,-1,215,214,280,-1,280,214,281,-1,280,281,508,-1,508,281,507,-1,508,507,509,-1,509,507,506,-1,509,506,510,-1,510,506,505,-1,510,505,511,-1,511,505,504,-1,511,504,512,-1,512,504,341,-1,512,341,513,-1,513,341,340,-1,217,216,279,-1,279,216,280,-1,279,280,514,-1,514,280,508,-1,514,508,515,-1,515,508,509,-1,515,509,516,-1,516,509,510,-1,516,510,517,-1,517,510,511,-1,517,511,338,-1,338,511,512,-1,338,512,336,-1,336,512,513,-1,219,218,518,-1,518,218,279,-1,518,279,519,-1,519,279,514,-1,519,514,520,-1,520,514,515,-1,520,515,521,-1,521,515,516,-1,521,516,522,-1,522,516,517,-1,522,517,523,-1,523,517,338,-1,523,338,524,-1,524,338,337,-1,524,333,523,-1,523,333,335,-1,523,335,522,-1,522,335,392,-1,522,392,521,-1,521,392,394,-1,521,394,520,-1,520,394,396,-1,520,396,519,-1,519,396,398,-1,519,398,518,-1,518,398,400,-1,518,400,219,-1,219,400,220,-1,278,222,400,-1,400,222,223,-1,400,223,220,-1,224,221,525,-1,525,221,278,-1,525,278,526,-1,526,278,399,-1,526,399,527,-1,527,399,397,-1,527,397,528,-1,528,397,395,-1,528,395,529,-1,529,395,393,-1,529,393,530,-1,530,393,332,-1,530,332,531,-1,531,332,331,-1,531,327,530,-1,530,327,329,-1,530,329,529,-1,529,329,532,-1,529,532,528,-1,528,532,533,-1,528,533,527,-1,527,533,534,-1,527,534,526,-1,526,534,535,-1,526,535,525,-1,525,535,277,-1,525,277,224,-1,224,277,225,-1,227,226,276,-1,276,226,277,-1,276,277,536,-1,536,277,535,-1,536,535,537,-1,537,535,534,-1,537,534,538,-1,538,534,533,-1,538,533,539,-1,539,533,532,-1,539,532,540,-1,540,532,329,-1,540,329,541,-1,541,329,328,-1,229,228,542,-1,542,228,276,-1,542,276,543,-1,543,276,536,-1,543,536,544,-1,544,536,537,-1,544,537,545,-1,545,537,538,-1,545,538,546,-1,546,538,539,-1,546,539,326,-1,326,539,540,-1,326,540,324,-1,324,540,541,-1,325,321,326,-1,326,321,323,-1,326,323,546,-1,546,323,547,-1,546,547,545,-1,545,547,548,-1,545,548,544,-1,544,548,549,-1,544,549,543,-1,543,549,550,-1,543,550,542,-1,542,550,275,-1,542,275,229,-1,229,275,230,-1,232,231,401,-1,401,231,275,-1,401,275,403,-1,403,275,550,-1,403,550,405,-1,405,550,549,-1,405,549,407,-1,407,549,548,-1,407,548,409,-1,409,548,547,-1,409,547,410,-1,410,547,323,-1,410,323,369,-1,369,323,322,-1,274,234,401,-1,401,234,233,-1,401,233,232,-1,236,235,551,-1,551,235,274,-1,551,274,552,-1,552,274,402,-1,552,402,553,-1,553,402,404,-1,553,404,554,-1,554,404,406,-1,554,406,555,-1,555,406,408,-1,555,408,556,-1,556,408,320,-1,556,320,557,-1,557,320,319,-1,557,315,556,-1,556,315,317,-1,556,317,555,-1,555,317,413,-1,555,413,554,-1,554,413,415,-1,554,415,553,-1,553,415,417,-1,553,417,552,-1,552,417,419,-1,552,419,551,-1,551,419,421,-1,551,421,236,-1,236,421,237,-1,273,239,421,-1,421,239,238,-1,421,238,237,-1,241,240,558,-1,558,240,273,-1,558,273,559,-1,559,273,420,-1,559,420,560,-1,560,420,418,-1,560,418,561,-1,561,418,416,-1,561,416,562,-1,562,416,414,-1,562,414,563,-1,563,414,412,-1,411,564,412,-1,412,564,370,-1,412,370,563,-1,563,370,314,-1,563,314,562,-1,562,314,565,-1,562,565,561,-1,561,565,566,-1,561,566,560,-1,560,566,567,-1,560,567,559,-1,559,567,568,-1,559,568,558,-1,558,568,272,-1,558,272,241,-1,241,272,242,-1,244,243,271,-1,271,243,272,-1,271,272,569,-1,569,272,568,-1,569,568,570,-1,570,568,567,-1,570,567,571,-1,571,567,566,-1,571,566,572,-1,572,566,565,-1,572,565,573,-1,573,565,314,-1,573,314,574,-1,574,314,313,-1,246,245,575,-1,575,245,271,-1,575,271,576,-1,576,271,569,-1,576,569,577,-1,577,569,570,-1,577,570,578,-1,578,570,571,-1,578,571,579,-1,579,571,572,-1,579,572,311,-1,311,572,573,-1,311,573,309,-1,309,573,574,-1,310,306,311,-1,311,306,308,-1,311,308,579,-1,579,308,580,-1,579,580,578,-1,578,580,581,-1,578,581,577,-1,577,581,582,-1,577,582,576,-1,576,582,583,-1,576,583,575,-1,575,583,270,-1,575,270,246,-1,246,270,247,-1,249,248,422,-1,422,248,270,-1,422,270,424,-1,424,270,583,-1,424,583,426,-1,426,583,582,-1,426,582,428,-1,428,582,581,-1,428,581,430,-1,430,581,580,-1,430,580,431,-1,431,580,308,-1,431,308,371,-1,371,308,307,-1,269,251,422,-1,422,251,250,-1,422,250,249,-1,253,252,584,-1,584,252,269,-1,584,269,585,-1,585,269,423,-1,585,423,586,-1,586,423,425,-1,586,425,587,-1,587,425,427,-1,587,427,588,-1,588,427,429,-1,588,429,589,-1,589,429,305,-1,589,305,590,-1,590,305,304,-1,590,300,589,-1,589,300,302,-1,589,302,588,-1,588,302,591,-1,588,591,587,-1,587,591,592,-1,587,592,586,-1,586,592,593,-1,586,593,585,-1,585,593,594,-1,585,594,584,-1,584,594,268,-1,584,268,253,-1,253,268,254,-1,256,255,267,-1,267,255,268,-1,267,268,595,-1,595,268,594,-1,595,594,596,-1,596,594,593,-1,596,593,597,-1,597,593,592,-1,597,592,598,-1,598,592,591,-1,598,591,299,-1,299,591,302,-1,299,302,297,-1,297,302,301,-1,258,257,599,-1,599,257,267,-1,599,267,600,-1,600,267,595,-1,600,595,601,-1,601,595,596,-1,601,596,602,-1,602,596,597,-1,602,597,603,-1,603,597,598,-1,603,598,604,-1,604,598,299,-1,604,299,605,-1,605,299,298,-1,605,294,604,-1,604,294,296,-1,604,296,603,-1,603,296,606,-1,603,606,602,-1,602,606,607,-1,602,607,601,-1,601,607,608,-1,601,608,600,-1,600,608,609,-1,600,609,599,-1,599,609,266,-1,599,266,258,-1,258,266,259,-1,261,260,265,-1,265,260,266,-1,265,266,610,-1,610,266,609,-1,610,609,611,-1,611,609,608,-1,611,608,612,-1,612,608,607,-1,612,607,613,-1,613,607,606,-1,613,606,614,-1,614,606,296,-1,614,296,615,-1,615,296,295,-1,263,262,616,-1,616,262,265,-1,616,265,617,-1,617,265,610,-1,617,610,618,-1,618,610,611,-1,618,611,619,-1,619,611,612,-1,619,612,620,-1,620,612,613,-1,620,613,293,-1,293,613,614,-1,293,614,291,-1,291,614,615,-1,292,432,293,-1,293,432,433,-1,293,433,620,-1,620,433,434,-1,620,434,619,-1,619,434,435,-1,619,435,618,-1,618,435,436,-1,618,436,617,-1,617,436,437,-1,617,437,616,-1,616,437,438,-1,616,438,263,-1,263,438,264,-1,361,360,621,-1,621,360,622,-1,622,360,455,-1,622,455,623,-1,621,624,361,-1,361,624,625,-1,361,625,357,-1,357,625,626,-1,357,626,358,-1,358,626,627,-1,628,349,629,-1,629,349,348,-1,629,348,630,-1,630,348,352,-1,630,352,631,-1,631,352,351,-1,631,351,632,-1,632,351,481,-1,632,481,633,-1,633,481,355,-1,633,355,634,-1,634,355,354,-1,634,354,627,-1,627,354,470,-1,627,470,358,-1,635,513,636,-1,636,513,340,-1,636,340,637,-1,637,340,339,-1,637,339,638,-1,638,339,343,-1,638,343,639,-1,639,343,342,-1,639,342,640,-1,640,342,498,-1,640,498,641,-1,641,498,346,-1,641,346,642,-1,642,346,345,-1,642,345,628,-1,628,345,488,-1,628,488,349,-1,643,531,644,-1,644,531,331,-1,644,331,645,-1,645,331,330,-1,645,330,646,-1,646,330,334,-1,646,334,647,-1,647,334,333,-1,647,333,648,-1,648,333,524,-1,648,524,649,-1,649,524,337,-1,649,337,635,-1,635,337,336,-1,635,336,513,-1,650,541,651,-1,651,541,328,-1,651,328,643,-1,643,328,327,-1,643,327,531,-1,652,557,653,-1,653,557,319,-1,653,319,654,-1,654,319,318,-1,654,318,655,-1,655,318,369,-1,655,369,656,-1,656,369,322,-1,656,322,657,-1,657,322,321,-1,657,321,658,-1,658,321,325,-1,658,325,650,-1,650,325,324,-1,650,324,541,-1,310,309,659,-1,659,309,574,-1,659,574,660,-1,660,574,313,-1,660,313,661,-1,661,313,312,-1,661,312,662,-1,662,312,370,-1,662,370,663,-1,663,370,564,-1,663,564,664,-1,664,564,411,-1,664,411,665,-1,665,411,316,-1,665,316,652,-1,652,316,315,-1,652,315,557,-1,659,666,310,-1,310,666,667,-1,310,667,306,-1,306,667,668,-1,306,668,307,-1,307,668,669,-1,670,298,671,-1,671,298,297,-1,671,297,672,-1,672,297,301,-1,672,301,673,-1,673,301,300,-1,673,300,674,-1,674,300,590,-1,674,590,675,-1,675,590,304,-1,675,304,676,-1,676,304,303,-1,676,303,669,-1,669,303,371,-1,669,371,307,-1,455,364,623,-1,623,364,363,-1,623,363,677,-1,677,363,445,-1,677,445,678,-1,678,445,367,-1,678,367,679,-1,679,367,366,-1,679,366,680,-1,680,366,372,-1,680,372,681,-1,681,372,432,-1,681,432,682,-1,682,432,292,-1,682,292,683,-1,683,292,291,-1,683,291,684,-1,684,291,615,-1,684,615,685,-1,685,615,295,-1,685,295,686,-1,686,295,294,-1,686,294,670,-1,670,294,605,-1,670,605,298,-1,645,646,687,-1,647,648,688,-1,635,636,689,-1,637,638,690,-1,639,640,691,-1,642,628,692,-1,629,630,693,-1,632,633,694,-1,634,627,695,-1,626,625,696,-1,621,622,697,-1,623,677,698,-1,679,680,699,-1,681,682,700,-1,683,684,701,-1,686,670,702,-1,671,672,703,-1,674,675,704,-1,676,669,705,-1,668,667,706,-1,659,660,707,-1,661,662,708,-1,664,665,709,-1,652,653,710,-1,654,655,711,-1,712,713,714,-1,714,713,715,-1,716,715,713,-1,716,713,717,-1,717,713,712,-1,717,712,718,-1,719,715,716,-1,719,716,720,-1,720,716,717,-1,720,717,721,-1,721,717,718,-1,721,718,722,-1,723,715,719,-1,723,719,724,-1,724,719,720,-1,724,720,725,-1,725,720,721,-1,725,721,726,-1,726,721,722,-1,726,722,727,-1,728,715,723,-1,728,723,729,-1,729,723,724,-1,729,724,730,-1,730,724,725,-1,730,725,731,-1,731,725,726,-1,731,726,732,-1,732,726,727,-1,732,727,733,-1,734,715,728,-1,734,728,735,-1,735,728,729,-1,735,729,736,-1,736,729,730,-1,736,730,737,-1,737,730,731,-1,737,731,738,-1,738,731,732,-1,738,732,739,-1,739,732,733,-1,739,733,740,-1,741,715,734,-1,741,734,742,-1,742,734,735,-1,742,735,743,-1,743,735,736,-1,743,736,744,-1,744,736,737,-1,744,737,745,-1,745,737,738,-1,745,738,746,-1,746,738,739,-1,746,739,747,-1,747,739,740,-1,747,740,748,-1,749,715,741,-1,749,741,750,-1,750,741,742,-1,750,742,751,-1,751,742,743,-1,751,743,752,-1,752,743,744,-1,752,744,753,-1,753,744,745,-1,753,745,754,-1,754,745,746,-1,754,746,755,-1,755,746,747,-1,755,747,756,-1,756,747,748,-1,756,748,757,-1,758,759,760,-1,657,658,759,-1,759,658,650,-1,759,650,760,-1,760,650,651,-1,760,651,643,-1,656,657,761,-1,761,657,759,-1,761,759,762,-1,762,759,758,-1,762,758,763,-1,655,656,711,-1,711,656,761,-1,711,761,764,-1,764,761,762,-1,764,762,765,-1,765,762,763,-1,765,763,766,-1,653,654,710,-1,710,654,711,-1,710,711,767,-1,767,711,764,-1,767,764,768,-1,768,764,765,-1,768,765,769,-1,769,765,766,-1,769,766,770,-1,665,652,709,-1,709,652,710,-1,709,710,771,-1,771,710,767,-1,771,767,772,-1,772,767,768,-1,772,768,773,-1,773,768,769,-1,773,769,774,-1,774,769,770,-1,774,770,775,-1,663,664,776,-1,776,664,709,-1,776,709,777,-1,777,709,771,-1,777,771,778,-1,778,771,772,-1,778,772,779,-1,779,772,773,-1,779,773,780,-1,780,773,774,-1,780,774,781,-1,781,774,775,-1,781,775,782,-1,662,663,708,-1,708,663,776,-1,708,776,783,-1,783,776,777,-1,783,777,784,-1,784,777,778,-1,784,778,785,-1,785,778,779,-1,785,779,786,-1,786,779,780,-1,786,780,787,-1,787,780,781,-1,787,781,788,-1,788,781,782,-1,788,782,789,-1,660,661,707,-1,707,661,708,-1,707,708,790,-1,790,708,783,-1,790,783,791,-1,791,783,784,-1,791,784,792,-1,792,784,785,-1,792,785,793,-1,793,785,786,-1,793,786,794,-1,794,786,787,-1,794,787,795,-1,795,787,788,-1,795,788,796,-1,796,788,789,-1,796,789,797,-1,666,659,798,-1,798,659,707,-1,798,707,799,-1,799,707,790,-1,799,790,800,-1,800,790,791,-1,800,791,801,-1,801,791,792,-1,801,792,802,-1,802,792,793,-1,802,793,803,-1,803,793,794,-1,803,794,804,-1,804,794,795,-1,804,795,805,-1,805,795,796,-1,805,796,806,-1,806,796,797,-1,667,666,706,-1,706,666,798,-1,706,798,807,-1,807,798,799,-1,807,799,808,-1,808,799,800,-1,808,800,809,-1,809,800,801,-1,809,801,810,-1,810,801,802,-1,810,802,811,-1,811,802,803,-1,811,803,812,-1,812,803,804,-1,812,804,813,-1,813,804,805,-1,813,805,814,-1,814,805,806,-1,814,806,715,-1,797,715,806,-1,643,757,760,-1,760,757,748,-1,760,748,758,-1,758,748,740,-1,758,740,763,-1,763,740,733,-1,763,733,766,-1,766,733,727,-1,766,727,770,-1,770,727,722,-1,770,722,775,-1,775,722,718,-1,775,718,782,-1,782,718,712,-1,782,712,789,-1,789,712,714,-1,789,714,797,-1,797,714,715,-1,669,668,705,-1,705,668,706,-1,705,706,815,-1,815,706,807,-1,815,807,816,-1,816,807,808,-1,816,808,817,-1,817,808,809,-1,817,809,818,-1,818,809,810,-1,818,810,819,-1,819,810,811,-1,819,811,820,-1,820,811,812,-1,820,812,821,-1,821,812,813,-1,821,813,822,-1,822,813,814,-1,822,814,715,-1,675,676,704,-1,704,676,705,-1,704,705,823,-1,823,705,815,-1,823,815,824,-1,824,815,816,-1,824,816,825,-1,825,816,817,-1,825,817,826,-1,826,817,818,-1,826,818,827,-1,827,818,819,-1,827,819,828,-1,828,819,820,-1,828,820,829,-1,829,820,821,-1,829,821,830,-1,830,821,822,-1,830,822,715,-1,673,674,831,-1,831,674,704,-1,831,704,832,-1,832,704,823,-1,832,823,833,-1,833,823,824,-1,833,824,834,-1,834,824,825,-1,834,825,835,-1,835,825,826,-1,835,826,836,-1,836,826,827,-1,836,827,837,-1,837,827,828,-1,837,828,838,-1,838,828,829,-1,838,829,839,-1,839,829,830,-1,839,830,715,-1,672,673,703,-1,703,673,831,-1,703,831,840,-1,840,831,832,-1,840,832,841,-1,841,832,833,-1,841,833,842,-1,842,833,834,-1,842,834,843,-1,843,834,835,-1,843,835,844,-1,844,835,836,-1,844,836,845,-1,845,836,837,-1,845,837,846,-1,846,837,838,-1,846,838,847,-1,847,838,839,-1,847,839,715,-1,670,671,702,-1,702,671,703,-1,702,703,848,-1,848,703,840,-1,848,840,849,-1,849,840,841,-1,849,841,850,-1,850,841,842,-1,850,842,851,-1,851,842,843,-1,851,843,852,-1,852,843,844,-1,852,844,853,-1,853,844,845,-1,853,845,854,-1,854,845,846,-1,854,846,855,-1,855,846,847,-1,855,847,715,-1,685,686,856,-1,856,686,702,-1,856,702,857,-1,857,702,848,-1,857,848,858,-1,858,848,849,-1,858,849,859,-1,859,849,850,-1,859,850,860,-1,860,850,851,-1,860,851,861,-1,861,851,852,-1,861,852,862,-1,862,852,853,-1,862,853,863,-1,863,853,854,-1,863,854,864,-1,864,854,855,-1,864,855,715,-1,684,685,701,-1,701,685,856,-1,701,856,865,-1,865,856,857,-1,865,857,866,-1,866,857,858,-1,866,858,867,-1,867,858,859,-1,867,859,868,-1,868,859,860,-1,868,860,869,-1,869,860,861,-1,869,861,870,-1,870,861,862,-1,870,862,871,-1,871,862,863,-1,871,863,872,-1,872,863,864,-1,872,864,715,-1,682,683,700,-1,700,683,701,-1,700,701,873,-1,873,701,865,-1,873,865,874,-1,874,865,866,-1,874,866,875,-1,875,866,867,-1,875,867,876,-1,876,867,868,-1,876,868,877,-1,877,868,869,-1,877,869,878,-1,878,869,870,-1,878,870,879,-1,879,870,871,-1,879,871,880,-1,880,871,872,-1,880,872,715,-1,680,681,699,-1,699,681,700,-1,699,700,881,-1,881,700,873,-1,881,873,882,-1,882,873,874,-1,882,874,883,-1,883,874,875,-1,883,875,884,-1,884,875,876,-1,884,876,885,-1,885,876,877,-1,885,877,886,-1,886,877,878,-1,886,878,887,-1,887,878,879,-1,887,879,888,-1,888,879,880,-1,888,880,715,-1,678,679,889,-1,889,679,699,-1,889,699,890,-1,890,699,881,-1,890,881,891,-1,891,881,882,-1,891,882,892,-1,892,882,883,-1,892,883,893,-1,893,883,884,-1,893,884,894,-1,894,884,885,-1,894,885,895,-1,895,885,886,-1,895,886,896,-1,896,886,887,-1,896,887,897,-1,897,887,888,-1,897,888,715,-1,677,678,698,-1,698,678,889,-1,698,889,898,-1,898,889,890,-1,898,890,899,-1,899,890,891,-1,899,891,900,-1,900,891,892,-1,900,892,901,-1,901,892,893,-1,901,893,902,-1,902,893,894,-1,902,894,903,-1,903,894,895,-1,903,895,904,-1,904,895,896,-1,904,896,905,-1,905,896,897,-1,905,897,715,-1,622,623,697,-1,697,623,698,-1,697,698,906,-1,906,698,898,-1,906,898,907,-1,907,898,899,-1,907,899,908,-1,908,899,900,-1,908,900,909,-1,909,900,901,-1,909,901,910,-1,910,901,902,-1,910,902,911,-1,911,902,903,-1,911,903,912,-1,912,903,904,-1,912,904,913,-1,913,904,905,-1,913,905,715,-1,624,621,914,-1,914,621,697,-1,914,697,915,-1,915,697,906,-1,915,906,916,-1,916,906,907,-1,916,907,917,-1,917,907,908,-1,917,908,918,-1,918,908,909,-1,918,909,919,-1,919,909,910,-1,919,910,920,-1,920,910,911,-1,920,911,921,-1,921,911,912,-1,921,912,922,-1,922,912,913,-1,922,913,715,-1,625,624,696,-1,696,624,914,-1,696,914,923,-1,923,914,915,-1,923,915,924,-1,924,915,916,-1,924,916,925,-1,925,916,917,-1,925,917,926,-1,926,917,918,-1,926,918,927,-1,927,918,919,-1,927,919,928,-1,928,919,920,-1,928,920,929,-1,929,920,921,-1,929,921,930,-1,930,921,922,-1,930,922,715,-1,627,626,695,-1,695,626,696,-1,695,696,931,-1,931,696,923,-1,931,923,932,-1,932,923,924,-1,932,924,933,-1,933,924,925,-1,933,925,934,-1,934,925,926,-1,934,926,935,-1,935,926,927,-1,935,927,936,-1,936,927,928,-1,936,928,937,-1,937,928,929,-1,937,929,938,-1,938,929,930,-1,938,930,715,-1,633,634,694,-1,694,634,695,-1,694,695,939,-1,939,695,931,-1,939,931,940,-1,940,931,932,-1,940,932,941,-1,941,932,933,-1,941,933,942,-1,942,933,934,-1,942,934,943,-1,943,934,935,-1,943,935,944,-1,944,935,936,-1,944,936,945,-1,945,936,937,-1,945,937,946,-1,946,937,938,-1,946,938,715,-1,631,632,947,-1,947,632,694,-1,947,694,948,-1,948,694,939,-1,948,939,949,-1,949,939,940,-1,949,940,950,-1,950,940,941,-1,950,941,951,-1,951,941,942,-1,951,942,952,-1,952,942,943,-1,952,943,953,-1,953,943,944,-1,953,944,954,-1,954,944,945,-1,954,945,955,-1,955,945,946,-1,955,946,715,-1,630,631,693,-1,693,631,947,-1,693,947,956,-1,956,947,948,-1,956,948,957,-1,957,948,949,-1,957,949,958,-1,958,949,950,-1,958,950,959,-1,959,950,951,-1,959,951,960,-1,960,951,952,-1,960,952,961,-1,961,952,953,-1,961,953,962,-1,962,953,954,-1,962,954,963,-1,963,954,955,-1,963,955,715,-1,628,629,692,-1,692,629,693,-1,692,693,964,-1,964,693,956,-1,964,956,965,-1,965,956,957,-1,965,957,966,-1,966,957,958,-1,966,958,967,-1,967,958,959,-1,967,959,968,-1,968,959,960,-1,968,960,969,-1,969,960,961,-1,969,961,970,-1,970,961,962,-1,970,962,971,-1,971,962,963,-1,971,963,715,-1,641,642,972,-1,972,642,692,-1,972,692,973,-1,973,692,964,-1,973,964,974,-1,974,964,965,-1,974,965,975,-1,975,965,966,-1,975,966,976,-1,976,966,967,-1,976,967,977,-1,977,967,968,-1,977,968,978,-1,978,968,969,-1,978,969,979,-1,979,969,970,-1,979,970,980,-1,980,970,971,-1,980,971,715,-1,640,641,691,-1,691,641,972,-1,691,972,981,-1,981,972,973,-1,981,973,982,-1,982,973,974,-1,982,974,983,-1,983,974,975,-1,983,975,984,-1,984,975,976,-1,984,976,985,-1,985,976,977,-1,985,977,986,-1,986,977,978,-1,986,978,987,-1,987,978,979,-1,987,979,988,-1,988,979,980,-1,988,980,715,-1,638,639,690,-1,690,639,691,-1,690,691,989,-1,989,691,981,-1,989,981,990,-1,990,981,982,-1,990,982,991,-1,991,982,983,-1,991,983,992,-1,992,983,984,-1,992,984,993,-1,993,984,985,-1,993,985,994,-1,994,985,986,-1,994,986,995,-1,995,986,987,-1,995,987,996,-1,996,987,988,-1,996,988,715,-1,636,637,689,-1,689,637,690,-1,689,690,997,-1,997,690,989,-1,997,989,998,-1,998,989,990,-1,998,990,999,-1,999,990,991,-1,999,991,1000,-1,1000,991,992,-1,1000,992,1001,-1,1001,992,993,-1,1001,993,1002,-1,1002,993,994,-1,1002,994,1003,-1,1003,994,995,-1,1003,995,1004,-1,1004,995,996,-1,1004,996,715,-1,649,635,1005,-1,1005,635,689,-1,1005,689,1006,-1,1006,689,997,-1,1006,997,1007,-1,1007,997,998,-1,1007,998,1008,-1,1008,998,999,-1,1008,999,1009,-1,1009,999,1000,-1,1009,1000,1010,-1,1010,1000,1001,-1,1010,1001,1011,-1,1011,1001,1002,-1,1011,1002,1012,-1,1012,1002,1003,-1,1012,1003,1013,-1,1013,1003,1004,-1,1013,1004,715,-1,648,649,688,-1,688,649,1005,-1,688,1005,1014,-1,1014,1005,1006,-1,1014,1006,1015,-1,1015,1006,1007,-1,1015,1007,1016,-1,1016,1007,1008,-1,1016,1008,1017,-1,1017,1008,1009,-1,1017,1009,1018,-1,1018,1009,1010,-1,1018,1010,1019,-1,1019,1010,1011,-1,1019,1011,1020,-1,1020,1011,1012,-1,1020,1012,1021,-1,1021,1012,1013,-1,1021,1013,715,-1,646,647,687,-1,687,647,688,-1,687,688,1022,-1,1022,688,1014,-1,1022,1014,1023,-1,1023,1014,1015,-1,1023,1015,1024,-1,1024,1015,1016,-1,1024,1016,1025,-1,1025,1016,1017,-1,1025,1017,1026,-1,1026,1017,1018,-1,1026,1018,1027,-1,1027,1018,1019,-1,1027,1019,1028,-1,1028,1019,1020,-1,1028,1020,1029,-1,1029,1020,1021,-1,1029,1021,715,-1,644,645,1030,-1,1030,645,687,-1,1030,687,1031,-1,1031,687,1022,-1,1031,1022,1032,-1,1032,1022,1023,-1,1032,1023,1033,-1,1033,1023,1024,-1,1033,1024,1034,-1,1034,1024,1025,-1,1034,1025,1035,-1,1035,1025,1026,-1,1035,1026,1036,-1,1036,1026,1027,-1,1036,1027,1037,-1,1037,1027,1028,-1,1037,1028,1038,-1,1038,1028,1029,-1,1038,1029,715,-1,643,644,757,-1,757,644,1030,-1,757,1030,756,-1,756,1030,1031,-1,756,1031,755,-1,755,1031,1032,-1,755,1032,754,-1,754,1032,1033,-1,754,1033,753,-1,753,1033,1034,-1,753,1034,752,-1,752,1034,1035,-1,752,1035,751,-1,751,1035,1036,-1,751,1036,750,-1,750,1036,1037,-1,750,1037,749,-1,749,1037,1038,-1,749,1038,715,-1,1039,1040,1041,-1,1041,1040,1042,-1,1041,1042,1043,-1,1044,1045,1041,-1,1041,1045,1046,-1,1041,1046,1039,-1,1047,1048,1041,-1,1041,1048,1049,-1,1041,1049,1044,-1,1050,1051,1041,-1,1041,1051,1052,-1,1041,1052,1047,-1,1053,1054,1041,-1,1041,1054,1055,-1,1041,1055,1050,-1,1056,1057,1041,-1,1041,1057,1058,-1,1041,1058,1053,-1,1059,1060,1041,-1,1041,1060,1061,-1,1041,1061,1056,-1,1043,1062,1041,-1,1041,1062,1063,-1,1041,1063,1059,-1,77,1060,1059,-1,77,75,1060,-1,1060,75,73,-1,1060,73,1061,-1,1061,73,71,-1,1061,71,1056,-1,71,69,1056,-1,1056,69,67,-1,1056,67,1057,-1,67,65,1057,-1,1057,65,64,-1,1057,64,1058,-1,1058,64,61,-1,1058,61,1053,-1,1053,61,58,-1,1053,58,1054,-1,58,49,1054,-1,1054,49,51,-1,1054,51,1055,-1,1055,51,53,-1,1055,53,1050,-1,1050,53,55,-1,1050,55,1051,-1,55,88,1051,-1,1051,88,86,-1,1051,86,1052,-1,1052,86,85,-1,1052,85,1047,-1,1047,85,83,-1,1047,83,1048,-1,83,94,1048,-1,1048,94,93,-1,1048,93,1049,-1,93,92,1049,-1,1049,92,91,-1,1049,91,1044,-1,1044,91,97,-1,1044,97,1045,-1,97,96,1045,-1,1045,96,95,-1,1045,95,1046,-1,95,14,1046,-1,1046,14,16,-1,1046,16,1039,-1,1039,16,18,-1,1039,18,1040,-1,1040,18,20,-1,1040,20,1042,-1,1042,20,9,-1,1042,9,1043,-1,1043,9,11,-1,1043,11,1062,-1,1062,11,8,-1,1062,8,1063,-1,1063,8,7,-1,1063,7,1059,-1,1059,7,79,-1,1059,79,77,-1,
        ]
    }
}
Shape{
    appearance Appearance {
        material  Material 	{
            diffuseColor 0.2235294117647059 0.2235294117647059 0.2235294117647059
            specularColor 0.11372549019607843 0.11372549019607843 0.11372549019607843
            ambientIntensity 0.2
            transparency 0
            shininess 0.5
        }
    }
    geometry IndexedFaceSet {
        ccw TRUE
        solid FALSE
        coord DEF co Coordinate {
            point [
                -0.1533 0.4318 0.0039, -0.1917 0.3334 0.0039, -0.1533 0.4318 0.0, -0.1917 0.3334 0.0, -0.1773 0.3334 0.0039, -0.1773 0.3334 0.0, -0.1673 0.361 0.0039, -0.1673 0.361 0.0, -0.1267 0.361 0.0039, -0.1267 0.361 0.0, -0.1173 0.3334 0.0039, -0.1173 0.3334 0.0, -0.1029 0.3334 0.0039, -0.1029 0.3334 0.0, -0.1401 0.4318 0.0039, -0.1401 0.4318 0.0, -0.13 0.3718 0.0039, -0.1629 0.3718 0.0039, -0.1447 0.4129 0.0039, -0.1456 0.4163 0.0039, -0.1462 0.4198 0.0039, -0.1466 0.4198 0.0039, -0.1472 0.4163 0.0039, -0.1481 0.4129 0.0039, -0.13 0.3718 0.0, -0.1629 0.3718 0.0, -0.1447 0.4129 0.0, -0.1456 0.4163 0.0, -0.1462 0.4198 0.0, -0.1466 0.4198 0.0, -0.1472 0.4163 0.0, -0.1481 0.4129 0.0, -0.0432 0.3334 0.0039, -0.0164 0.3334 0.0039, -0.0432 0.3334 0.0, -0.0164 0.3334 0.0, -0.0164 0.4318 0.0039, -0.0164 0.4318 0.0, -0.0442 0.4318 0.0039, -0.0442 0.4318 0.0, -0.0957 0.3838 0.0039, -0.0957 0.3838 0.0, -0.0949 0.3931 0.0, -0.0949 0.3931 0.0039, -0.0923 0.4028 0.0, -0.0923 0.4028 0.0039, -0.0877 0.4113 0.0, -0.0877 0.4113 0.0039, -0.0808 0.419 0.0, -0.0808 0.419 0.0039, -0.0807 0.4191 0.0, -0.0807 0.4191 0.0039, -0.0699 0.4263 0.0, -0.0699 0.4263 0.0039, -0.0584 0.4303 0.0, -0.0584 0.4303 0.0039, -0.0554 0.3345 0.0, -0.0554 0.3345 0.0039, -0.0667 0.3378 0.0, -0.0667 0.3378 0.0039, -0.077 0.3438 0.0, -0.077 0.3438 0.0039, -0.0851 0.3516 0.0, -0.0851 0.3516 0.0039, -0.0907 0.3604 0.0, -0.0907 0.3604 0.0039, -0.0943 0.3707 0.0, -0.0943 0.3707 0.0039, -0.0759 0.4072 0.0039, -0.0711 0.4123 0.0039, -0.0639 0.4169 0.0039, -0.0558 0.4198 0.0039, -0.0442 0.421 0.0039, -0.0296 0.421 0.0039, -0.0296 0.3442 0.0039, -0.0436 0.3442 0.0039, -0.054 0.3452 0.0039, -0.0623 0.3478 0.0039, -0.069 0.3517 0.0039, -0.0745 0.3572 0.0039, -0.0787 0.364 0.0039, -0.0815 0.3732 0.0039, -0.0825 0.3836 0.0039, -0.0816 0.3934 0.0039, -0.0793 0.4011 0.0039, -0.0442 0.421 0.0, -0.0296 0.421 0.0, -0.0558 0.4198 0.0, -0.0639 0.4169 0.0, -0.0711 0.4123 0.0, -0.0759 0.4072 0.0, -0.0793 0.4011 0.0, -0.0816 0.3934 0.0, -0.0825 0.3836 0.0, -0.0815 0.3732 0.0, -0.0787 0.364 0.0, -0.0745 0.3572 0.0, -0.069 0.3517 0.0, -0.0623 0.3478 0.0, -0.054 0.3452 0.0, -0.0436 0.3442 0.0, -0.0296 0.3442 0.0, 0.0028 0.3442 0.0039, 0.0028 0.3334 0.0039, 0.0028 0.3442 0.0, 0.0028 0.3334 0.0, 0.0556 0.3334 0.0039, 0.0556 0.3334 0.0, 0.0556 0.4318 0.0039, 0.0556 0.4318 0.0, 0.0052 0.4318 0.0039, 0.0052 0.4318 0.0, 0.0052 0.421 0.0039, 0.0052 0.421 0.0, 0.0424 0.421 0.0039, 0.0424 0.421 0.0, 0.0424 0.3886 0.0039, 0.0424 0.3886 0.0, 0.0076 0.3886 0.0039, 0.0076 0.3886 0.0, 0.0076 0.3778 0.0039, 0.0076 0.3778 0.0, 0.0424 0.3778 0.0039, 0.0424 0.3778 0.0, 0.0424 0.3442 0.0039, 0.0424 0.3442 0.0, 0.0748 0.3493 0.0039, 0.0748 0.3385 0.0039, 0.0748 0.3493 0.0, 0.0748 0.3385 0.0, 0.0853 0.3342 0.0039, 0.1019 0.3322 0.0039, 0.1019 0.3322 0.0, 0.0992 0.3322 0.0, 0.0992 0.3322 0.0039, 0.0952 0.3328 0.0, 0.0853 0.3342 0.0, 0.148 0.3808 0.0039, 0.148 0.3808 0.0, 0.1471 0.3694 0.0, 0.1471 0.3694 0.0039, 0.1441 0.3589 0.0, 0.1441 0.3589 0.0039, 0.1388 0.3496 0.0, 0.1388 0.3496 0.0039, 0.1315 0.3418 0.0, 0.1315 0.3418 0.0039, 0.1235 0.3367 0.0, 0.1235 0.3367 0.0039, 0.114 0.3335 0.0, 0.114 0.3335 0.0039, 0.1077 0.3328 0.0, 0.0979 0.433 0.0039, 0.0979 0.433 0.0, 0.1078 0.4322 0.0039, 0.1053 0.4324 0.0, 0.1078 0.4322 0.0, 0.1188 0.429 0.0, 0.1188 0.429 0.0039, 0.1282 0.4236 0.0, 0.1282 0.4236 0.0039, 0.137 0.4151 0.0, 0.137 0.4151 0.0039, 0.1428 0.4059 0.0, 0.1428 0.4059 0.0039, 0.1466 0.3947 0.0, 0.1466 0.3947 0.0039, 0.0893 0.4324 0.0, 0.0862 0.4322 0.0039, 0.0862 0.4322 0.0, 0.0748 0.4291 0.0039, 0.0748 0.4291 0.0, 0.0748 0.4159 0.0039, 0.0748 0.4159 0.0, 0.0978 0.4222 0.0039, 0.0978 0.4222 0.0, 0.0859 0.4207 0.0, 0.0859 0.4207 0.0039, 0.1348 0.3816 0.0039, 0.1348 0.3816 0.0, 0.1343 0.3892 0.0, 0.1343 0.3892 0.0039, 0.1317 0.3998 0.0, 0.1317 0.3998 0.0039, 0.1277 0.4074 0.0, 0.1277 0.4074 0.0039, 0.1217 0.4139 0.0, 0.1217 0.4139 0.0039, 0.1149 0.4185 0.0, 0.1149 0.4185 0.0039, 0.1075 0.4211 0.0, 0.1075 0.4211 0.0039, 0.1001 0.343 0.0039, 0.1001 0.343 0.0, 0.1092 0.344 0.0, 0.1092 0.344 0.0039, 0.1164 0.3467 0.0, 0.1164 0.3467 0.0039, 0.1224 0.3507 0.0, 0.1224 0.3507 0.0039, 0.1271 0.3556 0.0, 0.1271 0.3556 0.0039, 0.1311 0.3624 0.0, 0.1311 0.3624 0.0039, 0.1338 0.3709 0.0, 0.1338 0.3709 0.0039, 0.0766 0.3483 0.0, 0.0766 0.3483 0.0039, 0.087 0.3444 0.0, 0.087 0.3444 0.0039, 0.1564 0.3442 0.0039, 0.1564 0.3334 0.0039, 0.1564 0.3442 0.0, 0.1564 0.3334 0.0, 0.2068 0.3334 0.0039, 0.2068 0.3334 0.0, 0.2068 0.4318 0.0039, 0.2068 0.4318 0.0, 0.1936 0.4318 0.0039, 0.1936 0.4318 0.0, 0.1936 0.3442 0.0039, 0.1936 0.3442 0.0, 0.1936 0.3442 0.0
            ]
        }
        coordIndex [
            0,1,2,-1,2,1,3,-1,1,4,3,-1,3,4,5,-1,4,6,5,-1,5,6,7,-1,6,8,7,-1,7,8,9,-1,8,10,9,-1,9,10,11,-1,10,12,11,-1,11,12,13,-1,12,14,13,-1,13,14,15,-1,14,0,15,-1,15,0,2,-1,16,8,17,-1,17,8,6,-1,18,14,16,-1,16,14,12,-1,16,12,8,-1,8,12,10,-1,18,19,14,-1,14,19,20,-1,14,20,0,-1,0,20,21,-1,0,21,22,-1,22,23,0,-1,0,23,17,-1,0,17,1,-1,1,17,6,-1,1,6,4,-1,16,17,24,-1,24,17,25,-1,18,16,26,-1,26,16,24,-1,18,26,27,-1,18,27,19,-1,19,27,28,-1,19,28,20,-1,21,20,29,-1,29,20,28,-1,21,29,30,-1,21,30,22,-1,22,30,31,-1,22,31,23,-1,17,23,25,-1,25,23,31,-1,32,33,34,-1,34,33,35,-1,33,36,35,-1,35,36,37,-1,36,38,37,-1,37,38,39,-1,40,41,42,-1,40,42,43,-1,43,42,44,-1,43,44,45,-1,45,44,46,-1,45,46,47,-1,47,46,48,-1,47,48,49,-1,49,48,50,-1,49,50,51,-1,51,50,52,-1,51,52,53,-1,53,52,54,-1,53,54,55,-1,55,54,39,-1,55,39,38,-1,32,34,56,-1,32,56,57,-1,57,56,58,-1,57,58,59,-1,59,58,60,-1,59,60,61,-1,61,60,62,-1,61,62,63,-1,63,62,64,-1,63,64,65,-1,65,64,66,-1,65,66,67,-1,67,66,41,-1,67,41,40,-1,45,47,68,-1,68,47,49,-1,68,49,69,-1,69,49,51,-1,69,51,70,-1,70,51,53,-1,70,53,71,-1,71,53,55,-1,71,55,72,-1,72,55,38,-1,72,38,73,-1,73,38,36,-1,73,36,74,-1,74,36,33,-1,74,33,75,-1,75,33,32,-1,75,32,76,-1,76,32,57,-1,76,57,77,-1,77,57,59,-1,77,59,78,-1,78,59,61,-1,78,61,79,-1,79,61,63,-1,79,63,80,-1,80,63,65,-1,80,65,81,-1,81,65,67,-1,81,67,82,-1,82,67,40,-1,82,40,83,-1,83,40,43,-1,83,43,84,-1,84,43,45,-1,84,45,68,-1,72,73,85,-1,85,73,86,-1,72,85,87,-1,72,87,71,-1,71,87,88,-1,71,88,70,-1,70,88,89,-1,70,89,69,-1,69,89,90,-1,69,90,68,-1,68,90,91,-1,68,91,84,-1,84,91,92,-1,84,92,83,-1,83,92,93,-1,83,93,82,-1,82,93,94,-1,82,94,81,-1,81,94,95,-1,81,95,80,-1,80,95,96,-1,80,96,79,-1,79,96,97,-1,79,97,78,-1,78,97,98,-1,78,98,77,-1,77,98,99,-1,77,99,76,-1,76,99,100,-1,76,100,75,-1,74,75,101,-1,101,75,100,-1,73,74,86,-1,86,74,101,-1,102,103,104,-1,104,103,105,-1,103,106,105,-1,105,106,107,-1,106,108,107,-1,107,108,109,-1,108,110,109,-1,109,110,111,-1,110,112,111,-1,111,112,113,-1,112,114,113,-1,113,114,115,-1,114,116,115,-1,115,116,117,-1,116,118,117,-1,117,118,119,-1,118,120,119,-1,119,120,121,-1,120,122,121,-1,121,122,123,-1,122,124,123,-1,123,124,125,-1,124,102,125,-1,125,102,104,-1,106,103,102,-1,102,124,106,-1,106,124,122,-1,106,122,108,-1,112,110,114,-1,114,110,108,-1,114,108,116,-1,116,108,122,-1,116,122,118,-1,118,122,120,-1,126,127,128,-1,128,127,129,-1,129,127,130,-1,131,132,133,-1,131,133,134,-1,134,133,135,-1,134,135,130,-1,130,135,136,-1,130,136,129,-1,137,138,139,-1,137,139,140,-1,140,139,141,-1,140,141,142,-1,142,141,143,-1,142,143,144,-1,144,143,145,-1,144,145,146,-1,146,145,147,-1,146,147,148,-1,148,147,149,-1,148,149,150,-1,150,149,131,-1,131,149,151,-1,131,151,132,-1,152,153,154,-1,154,153,155,-1,155,156,154,-1,154,156,157,-1,154,157,158,-1,158,157,159,-1,158,159,160,-1,160,159,161,-1,160,161,162,-1,162,161,163,-1,162,163,164,-1,164,163,165,-1,164,165,166,-1,166,165,138,-1,166,138,137,-1,153,152,167,-1,167,152,168,-1,167,168,169,-1,169,168,170,-1,169,170,171,-1,170,172,171,-1,171,172,173,-1,174,175,176,-1,174,176,177,-1,177,176,173,-1,177,173,172,-1,178,179,180,-1,178,180,181,-1,181,180,182,-1,181,182,183,-1,183,182,184,-1,183,184,185,-1,185,184,186,-1,185,186,187,-1,187,186,188,-1,187,188,189,-1,189,188,190,-1,189,190,191,-1,191,190,175,-1,191,175,174,-1,192,193,194,-1,192,194,195,-1,195,194,196,-1,195,196,197,-1,197,196,198,-1,197,198,199,-1,199,198,200,-1,199,200,201,-1,201,200,202,-1,201,202,203,-1,203,202,204,-1,203,204,205,-1,205,204,179,-1,205,179,178,-1,126,128,206,-1,126,206,207,-1,207,206,208,-1,207,208,209,-1,209,208,193,-1,209,193,192,-1,195,131,192,-1,192,131,134,-1,192,134,209,-1,209,134,130,-1,209,130,207,-1,207,130,127,-1,207,127,126,-1,172,170,177,-1,177,170,168,-1,177,168,174,-1,174,168,152,-1,174,152,191,-1,191,152,154,-1,191,154,189,-1,189,154,158,-1,189,158,187,-1,187,158,160,-1,187,160,185,-1,185,160,162,-1,185,162,183,-1,183,162,164,-1,183,164,181,-1,181,164,166,-1,181,166,178,-1,178,166,137,-1,178,137,205,-1,205,137,140,-1,205,140,203,-1,203,140,142,-1,203,142,201,-1,201,142,144,-1,201,144,199,-1,199,144,146,-1,199,146,197,-1,197,146,148,-1,197,148,195,-1,195,148,150,-1,195,150,131,-1,210,211,212,-1,212,211,213,-1,211,214,213,-1,213,214,215,-1,214,216,215,-1,215,216,217,-1,216,218,217,-1,217,218,219,-1,218,220,219,-1,219,220,221,-1,220,210,221,-1,221,210,212,-1,218,216,220,-1,220,216,214,-1,220,214,210,-1,210,214,211,-1,
        ]
    }
}
Shape{
    appearance Appearance {
        material  Material 	{
            diffuseColor 0.9686274509803922 0.8784313725490196 0.6
            specularColor 0.6784313725490196 0.615686274509804 0.4196078431372549
            ambientIntensity 0.2
            transparency 0
            shininess 0.5
        }
    }
    geometry IndexedFaceSet {
        ccw TRUE
        solid FALSE
        coord DEF co Coordinate {
            point [
                -0.13 0.3718 0.0, -0.1629 0.3718 0.0, -0.1447 0.4129 0.0, -0.1481 0.4129 0.0, -0.1456 0.4163 0.0, -0.1472 0.4163 0.0, -0.1462 0.4198 0.0, -0.1466 0.4198 0.0, -0.0296 0.421 0.0, -0.0296 0.3442 0.0, -0.0442 0.421 0.0, -0.0436 0.3442 0.0, -0.054 0.3452 0.0, -0.0825 0.3836 0.0, -0.0816 0.3934 0.0, -0.0793 0.4011 0.0, -0.0558 0.4198 0.0, -0.0623 0.3478 0.0, -0.069 0.3517 0.0, -0.0745 0.3572 0.0, -0.0787 0.364 0.0, -0.0815 0.3732 0.0, -0.0759 0.4072 0.0, -0.0711 0.4123 0.0, -0.0639 0.4169 0.0, -0.0639 0.4169 0.0
            ]
        }
        coordIndex [
            0,1,2,-1,2,1,3,-1,2,3,4,-1,4,3,5,-1,4,5,6,-1,6,5,7,-1,8,9,10,-1,10,9,11,-1,10,11,12,-1,13,14,10,-1,10,14,15,-1,10,15,16,-1,12,17,10,-1,10,17,18,-1,10,18,19,-1,19,20,10,-1,10,20,21,-1,10,21,13,-1,22,23,15,-1,15,23,24,-1,15,24,16,-1,
        ]
    }
}